<svg xmlns="http://www.w3.org/2000/svg" xmlns:xlink="http://www.w3.org/1999/xlink" width="1920" height="937.256" viewBox="0 0 1920 937.256">
  <defs>
    <clipPath id="clip-path">
      <rect width="937.255" height="1920" fill="none"/>
    </clipPath>
    <clipPath id="clip-path-2">
      <rect id="Rectangle_15586" data-name="Rectangle 15586" width="937.255" height="705" transform="translate(-14 -358)" fill="none"/>
    </clipPath>
  </defs>
  <g id="Pattern2" transform="translate(542.402 -5.903) rotate(90)" opacity="0.1">
    <g id="Repeat_Grid_1" data-name="Repeat Grid 1" transform="translate(5.903 -1377.598)" clip-path="url(#clip-path)">
      <g transform="translate(-5.903 1377.598)">
        <g id="Group_125186" data-name="Group 125186" transform="translate(19.903 -1019.598)" clip-path="url(#clip-path-2)">
          <path id="Path_130768" data-name="Path 130768" d="M1310.258,799.143l-72.241-38.758-72.241,38.758L1126.747,778.2l-39.027,20.938-72.241-38.758-72.239,38.758L904.213,778.2l-39.025,20.938-72.241-38.758-72.241,38.758L681.678,778.2,642.65,799.143l-72.24-38.758-72.241,38.758L459.143,778.2l-39.027,20.938-72.241-38.758-72.241,38.758L236.609,778.2l-39.027,20.938m78.051-49L236.609,729.2,197.582,750.14m300.587,0L459.143,729.2,420.116,750.14m300.589,0L681.678,729.2,642.65,750.14m300.589,0L904.213,729.2,865.188,750.14m300.587,0L1126.747,729.2,1087.72,750.14M278.285,813.6,348,776.72l69.231,37.657M500.7,813.6l69.708-36.884,69.231,37.657m83.593-.773,69.712-36.884,69.229,37.657m83.594-.773,69.708-36.884,69.235,37.657m83.593-.773,69.71-36.884,69.229,37.657m3.012-31.568-72.241-38.758-72.241,38.758-39.028-20.938-39.027,20.938-72.241-38.758-72.239,38.758-39.027-20.938-39.025,20.938-72.241-38.758-72.241,38.758-39.027-20.938L642.65,782.809l-72.24-38.758-72.241,38.758-39.027-20.938-39.027,20.938-72.241-38.758-72.241,38.758-39.025-20.938-39.027,20.938m1112.676-16.336-72.241-38.756-72.241,38.756-39.028-20.936-39.027,20.936-72.241-38.756-72.239,38.756-39.027-20.936-39.025,20.936-72.241-38.756-72.241,38.756-39.027-20.936L642.65,766.473l-72.24-38.756-72.241,38.756-39.027-20.936-39.027,20.936-72.241-38.756-72.241,38.756-39.025-20.936-39.027,20.936m1001.406,96.52-72.241-38.756-72.241,38.756-39.026-20.936-39.025,20.936-72.241-38.756-72.242,38.756-39.025-20.936L753.92,862.994l-72.242-38.756-72.241,38.756-39.027-20.936-39.027,20.936-72.241-38.756L386.9,862.994l-39.027-20.936L308.85,862.994l-72.241-38.756-72.241,38.756-39.025-20.936L86.314,862.994m78.053-49-39.025-20.938L86.314,813.992m300.587,0-39.027-20.938L308.85,813.992m300.587,0-39.027-20.938-39.027,20.938m300.587,0-39.025-20.938L753.92,813.992m300.585,0-39.026-20.938-39.025,20.938M167.019,877.457l69.708-36.885,69.233,37.656m83.472-.771,69.71-36.885,69.233,37.656m83.593-.771,69.71-36.885,69.231,37.656m83.593-.771,69.71-36.885,69.233,37.656m83.593-.771,69.708-36.885,69.233,37.656m3.008-31.568L1126.747,807.9l-72.241,38.758-39.026-20.938L976.454,846.66,904.213,807.9,831.971,846.66l-39.025-20.938L753.92,846.66,681.678,807.9,609.437,846.66l-39.027-20.938L531.384,846.66,459.143,807.9,386.9,846.66l-39.027-20.938L308.85,846.66,236.609,807.9,164.367,846.66l-39.025-20.938L86.314,846.66m1112.674-16.334-72.241-38.758-72.241,38.758-39.026-20.938-39.025,20.938-72.241-38.758-72.242,38.758-39.025-20.938L753.92,830.326l-72.242-38.758-72.241,38.758-39.027-20.938-39.027,20.938-72.241-38.758L386.9,830.326l-39.027-20.938L308.85,830.326l-72.241-38.758-72.241,38.758-39.025-20.938L86.314,830.326M1310.258,671.054,1238.017,632.3l-72.241,38.758-39.028-20.938-39.027,20.938L1015.479,632.3l-72.239,38.758-39.027-20.938-39.025,20.938L792.947,632.3l-72.241,38.758-39.027-20.938L642.65,671.054,570.411,632.3l-72.241,38.758-39.027-20.938-39.027,20.938L347.875,632.3l-72.241,38.758-39.025-20.938-39.027,20.938m78.051-49-39.025-20.936-39.027,20.936m300.587,0-39.027-20.936-39.027,20.936m300.589,0-39.027-20.936L642.65,622.051m300.589,0-39.027-20.936-39.025,20.936m300.587,0-39.028-20.936-39.027,20.936M278.285,685.516,348,648.632l69.231,37.657m83.476-.773,69.708-36.884,69.231,37.657m83.593-.773,69.712-36.884,69.229,37.657m83.594-.773,69.708-36.884,69.235,37.657m83.593-.773,69.71-36.884,69.229,37.657m3.012-31.568-72.241-38.758-72.241,38.758-39.028-20.938L1087.72,654.72l-72.241-38.758L943.239,654.72l-39.027-20.938L865.188,654.72l-72.241-38.758L720.705,654.72l-39.027-20.938L642.65,654.72l-72.24-38.758L498.169,654.72l-39.027-20.938L420.116,654.72l-72.241-38.758L275.633,654.72l-39.025-20.938L197.582,654.72m1112.676-16.335-72.241-38.756-72.241,38.756-39.028-20.937-39.027,20.937-72.241-38.756-72.239,38.756-39.027-20.937-39.025,20.937-72.241-38.756-72.241,38.756-39.027-20.937L642.65,638.385l-72.24-38.756-72.241,38.756-39.027-20.937-39.027,20.937-72.241-38.756-72.241,38.756-39.025-20.937-39.027,20.937m1001.406,96.52-72.241-38.758-72.241,38.758-39.026-20.938-39.025,20.938-72.241-38.758-72.242,38.758-39.025-20.938L753.92,734.905l-72.242-38.758-72.241,38.758-39.027-20.938-39.027,20.938-72.241-38.758L386.9,734.905l-39.027-20.938L308.85,734.905l-72.241-38.758-72.241,38.758-39.025-20.938L86.314,734.905m78.053-49-39.025-20.938L86.314,685.9m300.587,0-39.027-20.938L308.85,685.9m300.587,0-39.027-20.938L531.384,685.9m300.587,0-39.025-20.938L753.92,685.9m300.585,0-39.026-20.938L976.454,685.9M167.019,749.367l69.708-36.884L305.96,750.14m83.472-.773,69.71-36.884,69.233,37.657m83.593-.773,69.71-36.884L750.91,750.14m83.593-.773,69.71-36.884,69.233,37.657m83.593-.773,69.708-36.884,69.233,37.657m3.008-31.568-72.241-38.758-72.241,38.758-39.026-20.938-39.025,20.938-72.241-38.758-72.242,38.758-39.025-20.938L753.92,718.571l-72.242-38.758-72.241,38.758-39.027-20.938-39.027,20.938-72.241-38.758L386.9,718.571l-39.027-20.938L308.85,718.571l-72.241-38.758-72.241,38.758-39.025-20.938L86.314,718.571m1112.674-16.334-72.241-38.758-72.241,38.758L1015.479,681.3l-39.025,20.938L904.213,663.48l-72.242,38.758L792.947,681.3,753.92,702.238,681.678,663.48l-72.241,38.758L570.411,681.3l-39.027,20.938L459.143,663.48,386.9,702.238,347.875,681.3,308.85,702.238,236.609,663.48l-72.241,38.758L125.342,681.3,86.314,702.238M1310.258,542.966l-72.241-38.758-72.241,38.758-39.028-20.938-39.027,20.938-72.241-38.758-72.239,38.758-39.027-20.938-39.025,20.938-72.241-38.758-72.241,38.758-39.027-20.938L642.65,542.966l-72.24-38.758-72.241,38.758-39.027-20.938-39.027,20.938-72.241-38.758-72.241,38.758-39.025-20.938-39.027,20.938m78.051-49-39.025-20.938-39.027,20.938m300.587,0-39.027-20.938-39.027,20.938m300.589,0-39.027-20.938L642.65,493.963m300.589,0-39.027-20.938-39.025,20.938m300.587,0-39.028-20.938-39.027,20.938M278.285,557.427,348,520.543,417.227,558.2m83.476-.773,69.708-36.884L639.642,558.2m83.593-.773,69.712-36.884L862.176,558.2m83.594-.773,69.708-36.884,69.235,37.657m83.593-.773,69.71-36.884,69.229,37.657m3.012-31.568-72.241-38.758-72.241,38.758-39.028-20.938-39.027,20.938-72.241-38.758-72.239,38.758-39.027-20.938-39.025,20.938-72.241-38.758-72.241,38.758-39.027-20.938L642.65,526.632l-72.24-38.758-72.241,38.758-39.027-20.938-39.027,20.938-72.241-38.758-72.241,38.758-39.025-20.938-39.027,20.938M1310.258,510.3l-72.241-38.756L1165.775,510.3l-39.028-20.936L1087.72,510.3l-72.241-38.756L943.239,510.3,904.213,489.36,865.188,510.3,792.947,471.54,720.705,510.3,681.678,489.36,642.65,510.3l-72.24-38.756L498.169,510.3,459.143,489.36,420.116,510.3,347.875,471.54,275.633,510.3,236.609,489.36,197.582,510.3m1001.406,96.52-72.241-38.758-72.241,38.758-39.026-20.938-39.025,20.938-72.241-38.758-72.242,38.758-39.025-20.938L753.92,606.817l-72.242-38.758-72.241,38.758-39.027-20.938-39.027,20.938-72.241-38.758L386.9,606.817l-39.027-20.938L308.85,606.817l-72.241-38.758-72.241,38.758-39.025-20.938L86.314,606.817m78.053-49-39.025-20.937L86.314,557.814m300.587,0-39.027-20.937L308.85,557.814m300.587,0-39.027-20.937-39.027,20.937m300.587,0-39.025-20.937L753.92,557.814m300.585,0-39.026-20.937-39.025,20.937M167.019,621.28l69.708-36.886,69.233,37.657m83.472-.771,69.71-36.886,69.233,37.657m83.593-.771,69.71-36.886,69.231,37.657m83.593-.771,69.71-36.886,69.233,37.657m83.593-.771,69.708-36.886,69.233,37.657m3.008-31.568-72.241-38.758-72.241,38.758-39.026-20.938-39.025,20.938-72.241-38.758-72.242,38.758-39.025-20.938L753.92,590.483l-72.242-38.758-72.241,38.758-39.027-20.938-39.027,20.938-72.241-38.758L386.9,590.483l-39.027-20.938L308.85,590.483l-72.241-38.758-72.241,38.758-39.025-20.938L86.314,590.483m1112.674-16.334-72.241-38.758-72.241,38.758-39.026-20.938-39.025,20.938-72.241-38.758-72.242,38.758-39.025-20.938L753.92,574.149l-72.242-38.758-72.241,38.758-39.027-20.938-39.027,20.938-72.241-38.758L386.9,574.149l-39.027-20.938L308.85,574.149l-72.241-38.758-72.241,38.758-39.025-20.938L86.314,574.149M1310.258,414.877l-72.241-38.758-72.241,38.758-39.028-20.938-39.027,20.938-72.241-38.758-72.239,38.758-39.027-20.938-39.025,20.938-72.241-38.758-72.241,38.758-39.027-20.938L642.65,414.877l-72.24-38.758-72.241,38.758-39.027-20.938-39.027,20.938-72.241-38.758-72.241,38.758-39.025-20.938-39.027,20.938m78.051-49-39.025-20.938-39.027,20.938m300.587,0-39.027-20.938-39.027,20.938m300.589,0-39.027-20.938L642.65,365.874m300.589,0-39.027-20.938-39.025,20.938m300.587,0-39.028-20.938-39.027,20.938M278.285,429.339,348,392.453l69.231,37.658m83.476-.773,69.708-36.885,69.231,37.658m83.593-.773,69.712-36.885,69.229,37.658m83.594-.773,69.708-36.885,69.235,37.658m83.593-.773,69.71-36.885,69.229,37.658m3.012-31.57-72.241-38.756-72.241,38.756-39.028-20.936-39.027,20.936-72.241-38.756-72.239,38.756-39.027-20.936-39.025,20.936-72.241-38.756-72.241,38.756-39.027-20.936L642.65,398.542l-72.24-38.756-72.241,38.756-39.027-20.936-39.027,20.936-72.241-38.756-72.241,38.756-39.025-20.936-39.027,20.936m1112.676-16.334-72.241-38.756-72.241,38.756-39.028-20.936-39.027,20.936-72.241-38.756-72.239,38.756-39.027-20.936-39.025,20.936-72.241-38.756-72.241,38.756-39.027-20.936L642.65,382.208l-72.24-38.756-72.241,38.756-39.027-20.936-39.027,20.936-72.241-38.756-72.241,38.756-39.025-20.936-39.027,20.936m1001.406,96.52-72.241-38.758-72.241,38.758-39.026-20.938-39.025,20.938L904.213,439.97l-72.242,38.758L792.947,457.79,753.92,478.728,681.678,439.97l-72.241,38.758L570.411,457.79l-39.027,20.938L459.143,439.97,386.9,478.728,347.875,457.79,308.85,478.728,236.609,439.97l-72.241,38.758L125.342,457.79,86.314,478.728m78.053-49-39.025-20.937L86.314,429.725m300.587,0-39.027-20.937L308.85,429.725m300.587,0-39.027-20.937-39.027,20.937m300.587,0-39.025-20.937L753.92,429.725m300.585,0-39.026-20.937-39.025,20.937M167.019,493.19l69.708-36.884,69.233,37.657m83.472-.773,69.71-36.884,69.233,37.657m83.593-.773,69.71-36.884,69.231,37.657m83.593-.773,69.71-36.884,69.233,37.657m83.593-.773,69.708-36.884,69.233,37.657m3.008-31.568-72.241-38.758-72.241,38.758-39.026-20.938-39.025,20.938-72.241-38.758-72.242,38.758-39.025-20.938L753.92,462.395l-72.242-38.758-72.241,38.758-39.027-20.938-39.027,20.938-72.241-38.758L386.9,462.395l-39.027-20.938L308.85,462.395l-72.241-38.758-72.241,38.758-39.025-20.938L86.314,462.395m1112.674-16.334L1126.747,407.3l-72.241,38.758-39.026-20.938-39.025,20.938L904.213,407.3l-72.242,38.758-39.025-20.938L753.92,446.061,681.678,407.3l-72.241,38.758-39.027-20.938-39.027,20.938L459.143,407.3,386.9,446.061l-39.027-20.938L308.85,446.061,236.609,407.3l-72.241,38.758-39.025-20.938L86.314,446.061M1310.258,286.789l-72.241-38.758-72.241,38.758-39.028-20.938-39.027,20.938-72.241-38.758-72.239,38.758-39.027-20.938-39.025,20.938-72.241-38.758-72.241,38.758-39.027-20.938L642.65,286.789l-72.24-38.758-72.241,38.758-39.027-20.938-39.027,20.938-72.241-38.758-72.241,38.758-39.025-20.938-39.027,20.938m78.051-49-39.025-20.938-39.027,20.938m300.587,0-39.027-20.938-39.027,20.938m300.589,0-39.027-20.938L642.65,237.786m300.589,0-39.027-20.938-39.025,20.938m300.587,0-39.028-20.938-39.027,20.938M278.285,301.25,348,264.365l69.231,37.658m83.476-.773,69.708-36.886,69.231,37.658m83.593-.773,69.712-36.886,69.229,37.658m83.594-.773,69.708-36.886,69.235,37.658m83.593-.773,69.71-36.886,69.229,37.658m3.012-31.57L1238.017,231.7l-72.241,38.756-39.028-20.936-39.027,20.936L1015.479,231.7l-72.239,38.756-39.027-20.936-39.025,20.936L792.947,231.7l-72.241,38.756-39.027-20.936L642.65,270.453,570.411,231.7l-72.241,38.756-39.027-20.936-39.027,20.936L347.875,231.7l-72.241,38.756-39.025-20.936-39.027,20.936M1310.258,254.12l-72.241-38.758-72.241,38.758-39.028-20.936L1087.72,254.12l-72.241-38.758L943.239,254.12l-39.027-20.936L865.188,254.12l-72.241-38.758L720.705,254.12l-39.027-20.936L642.65,254.12l-72.24-38.758L498.169,254.12l-39.027-20.936L420.116,254.12l-72.241-38.758L275.633,254.12l-39.025-20.936L197.582,254.12m1001.406,96.52-72.241-38.758-72.241,38.758L1015.479,329.7,976.454,350.64l-72.241-38.758L831.971,350.64,792.947,329.7,753.92,350.64l-72.242-38.758L609.437,350.64,570.411,329.7,531.384,350.64l-72.241-38.758L386.9,350.64,347.875,329.7,308.85,350.64l-72.241-38.758L164.367,350.64,125.342,329.7,86.314,350.64m78.053-49L125.342,280.7,86.314,301.637m300.587,0L347.875,280.7,308.85,301.637m300.587,0L570.411,280.7l-39.027,20.936m300.587,0L792.947,280.7,753.92,301.637m300.585,0L1015.479,280.7l-39.025,20.936M167.019,365.1l69.708-36.884,69.233,37.657m83.472-.773,69.71-36.884,69.233,37.657m83.593-.773,69.71-36.884,69.231,37.657M834.5,365.1l69.71-36.884,69.233,37.657m83.593-.773,69.708-36.884,69.233,37.657m3.008-31.568-72.241-38.758-72.241,38.758-39.026-20.938-39.025,20.938-72.241-38.758-72.242,38.758-39.025-20.938L753.92,334.306l-72.242-38.758-72.241,38.758-39.027-20.938-39.027,20.938-72.241-38.758L386.9,334.306l-39.027-20.938L308.85,334.306l-72.241-38.758-72.241,38.758-39.025-20.938L86.314,334.306m1112.674-16.336-72.241-38.756-72.241,38.756-39.026-20.936-39.025,20.936-72.241-38.756-72.242,38.756-39.025-20.936L753.92,317.971l-72.242-38.756-72.241,38.756-39.027-20.936-39.027,20.936-72.241-38.756L386.9,317.971l-39.027-20.936L308.85,317.971l-72.241-38.756-72.241,38.756-39.025-20.936L86.314,317.971M1310.258,158.7l-72.241-38.758L1165.775,158.7l-39.028-20.938L1087.72,158.7l-72.241-38.758L943.239,158.7l-39.027-20.938L865.188,158.7l-72.241-38.758L720.705,158.7l-39.027-20.938L642.65,158.7l-72.24-38.758L498.169,158.7l-39.027-20.938L420.116,158.7l-72.241-38.758L275.633,158.7l-39.025-20.938L197.582,158.7m78.051-49L236.609,88.759,197.582,109.7m300.587,0L459.143,88.759,420.116,109.7m300.589,0L681.678,88.759,642.65,109.7m300.589,0L904.213,88.759,865.188,109.7m300.587,0-39.028-20.938L1087.72,109.7M278.285,173.162,348,136.276l69.231,37.658m83.476-.773,69.708-36.886,69.231,37.658m83.593-.773,69.712-36.886,69.229,37.658m83.594-.773,69.708-36.886,69.235,37.658m83.593-.773,69.71-36.886,69.229,37.658m3.012-31.57-72.241-38.756-72.241,38.756-39.028-20.936-39.027,20.936-72.241-38.756-72.239,38.756-39.027-20.936-39.025,20.936-72.241-38.756-72.241,38.756-39.027-20.936L642.65,142.365l-72.24-38.756-72.241,38.756-39.027-20.936-39.027,20.936-72.241-38.756-72.241,38.756-39.025-20.936-39.027,20.936m1112.676-16.334-72.241-38.756-72.241,38.756-39.028-20.938-39.027,20.938-72.241-38.756-72.239,38.756-39.027-20.938-39.025,20.938L792.947,87.275l-72.241,38.756-39.027-20.938L642.65,126.031l-72.24-38.756-72.241,38.756-39.027-20.938-39.027,20.938L347.875,87.275l-72.241,38.756-39.025-20.938-39.027,20.938m1001.406,96.52-72.241-38.758-72.241,38.758-39.026-20.938-39.025,20.938-72.241-38.758-72.242,38.758-39.025-20.938L753.92,222.552l-72.242-38.758-72.241,38.758-39.027-20.938-39.027,20.938-72.241-38.758L386.9,222.552l-39.027-20.938L308.85,222.552l-72.241-38.758-72.241,38.758-39.025-20.938L86.314,222.552m78.053-49L125.342,152.61,86.314,173.548m300.587,0L347.875,152.61,308.85,173.548m300.587,0L570.411,152.61l-39.027,20.938m300.587,0L792.947,152.61,753.92,173.548m300.585,0-39.026-20.938-39.025,20.938M167.019,237.013l69.708-36.884,69.233,37.657m83.472-.773,69.71-36.884,69.233,37.657m83.593-.773,69.71-36.884,69.231,37.657m83.593-.773,69.71-36.884,69.233,37.657m83.593-.773,69.708-36.884,69.233,37.657m3.008-31.568-72.241-38.758-72.241,38.758-39.026-20.938-39.025,20.938L904.213,167.46l-72.242,38.758L792.947,185.28,753.92,206.218,681.678,167.46l-72.241,38.758L570.411,185.28l-39.027,20.938L459.143,167.46,386.9,206.218,347.875,185.28,308.85,206.218,236.609,167.46l-72.241,38.758L125.342,185.28,86.314,206.218m1112.674-16.336-72.241-38.756-72.241,38.756-39.026-20.936-39.025,20.936-72.241-38.756-72.242,38.756-39.025-20.936L753.92,189.882l-72.242-38.756-72.241,38.756-39.027-20.936-39.027,20.936-72.241-38.756L386.9,189.882l-39.027-20.936L308.85,189.882l-72.241-38.756-72.241,38.756-39.025-20.936L86.314,189.882" transform="translate(-229.735 -488.511)" fill="none" stroke="#b58500" stroke-miterlimit="10" stroke-width="2"/>
        </g>
      </g>
      <g transform="translate(-5.903 2083.598)">
        <g id="Group_125186-2" data-name="Group 125186" transform="translate(19.903 -1019.598)" clip-path="url(#clip-path-2)">
          <path id="Path_130768-2" data-name="Path 130768" d="M1310.258,799.143l-72.241-38.758-72.241,38.758L1126.747,778.2l-39.027,20.938-72.241-38.758-72.239,38.758L904.213,778.2l-39.025,20.938-72.241-38.758-72.241,38.758L681.678,778.2,642.65,799.143l-72.24-38.758-72.241,38.758L459.143,778.2l-39.027,20.938-72.241-38.758-72.241,38.758L236.609,778.2l-39.027,20.938m78.051-49L236.609,729.2,197.582,750.14m300.587,0L459.143,729.2,420.116,750.14m300.589,0L681.678,729.2,642.65,750.14m300.589,0L904.213,729.2,865.188,750.14m300.587,0L1126.747,729.2,1087.72,750.14M278.285,813.6,348,776.72l69.231,37.657M500.7,813.6l69.708-36.884,69.231,37.657m83.593-.773,69.712-36.884,69.229,37.657m83.594-.773,69.708-36.884,69.235,37.657m83.593-.773,69.71-36.884,69.229,37.657m3.012-31.568-72.241-38.758-72.241,38.758-39.028-20.938-39.027,20.938-72.241-38.758-72.239,38.758-39.027-20.938-39.025,20.938-72.241-38.758-72.241,38.758-39.027-20.938L642.65,782.809l-72.24-38.758-72.241,38.758-39.027-20.938-39.027,20.938-72.241-38.758-72.241,38.758-39.025-20.938-39.027,20.938m1112.676-16.336-72.241-38.756-72.241,38.756-39.028-20.936-39.027,20.936-72.241-38.756-72.239,38.756-39.027-20.936-39.025,20.936-72.241-38.756-72.241,38.756-39.027-20.936L642.65,766.473l-72.24-38.756-72.241,38.756-39.027-20.936-39.027,20.936-72.241-38.756-72.241,38.756-39.025-20.936-39.027,20.936m1001.406,96.52-72.241-38.756-72.241,38.756-39.026-20.936-39.025,20.936-72.241-38.756-72.242,38.756-39.025-20.936L753.92,862.994l-72.242-38.756-72.241,38.756-39.027-20.936-39.027,20.936-72.241-38.756L386.9,862.994l-39.027-20.936L308.85,862.994l-72.241-38.756-72.241,38.756-39.025-20.936L86.314,862.994m78.053-49-39.025-20.938L86.314,813.992m300.587,0-39.027-20.938L308.85,813.992m300.587,0-39.027-20.938-39.027,20.938m300.587,0-39.025-20.938L753.92,813.992m300.585,0-39.026-20.938-39.025,20.938M167.019,877.457l69.708-36.885,69.233,37.656m83.472-.771,69.71-36.885,69.233,37.656m83.593-.771,69.71-36.885,69.231,37.656m83.593-.771,69.71-36.885,69.233,37.656m83.593-.771,69.708-36.885,69.233,37.656m3.008-31.568L1126.747,807.9l-72.241,38.758-39.026-20.938L976.454,846.66,904.213,807.9,831.971,846.66l-39.025-20.938L753.92,846.66,681.678,807.9,609.437,846.66l-39.027-20.938L531.384,846.66,459.143,807.9,386.9,846.66l-39.027-20.938L308.85,846.66,236.609,807.9,164.367,846.66l-39.025-20.938L86.314,846.66m1112.674-16.334-72.241-38.758-72.241,38.758-39.026-20.938-39.025,20.938-72.241-38.758-72.242,38.758-39.025-20.938L753.92,830.326l-72.242-38.758-72.241,38.758-39.027-20.938-39.027,20.938-72.241-38.758L386.9,830.326l-39.027-20.938L308.85,830.326l-72.241-38.758-72.241,38.758-39.025-20.938L86.314,830.326M1310.258,671.054,1238.017,632.3l-72.241,38.758-39.028-20.938-39.027,20.938L1015.479,632.3l-72.239,38.758-39.027-20.938-39.025,20.938L792.947,632.3l-72.241,38.758-39.027-20.938L642.65,671.054,570.411,632.3l-72.241,38.758-39.027-20.938-39.027,20.938L347.875,632.3l-72.241,38.758-39.025-20.938-39.027,20.938m78.051-49-39.025-20.936-39.027,20.936m300.587,0-39.027-20.936-39.027,20.936m300.589,0-39.027-20.936L642.65,622.051m300.589,0-39.027-20.936-39.025,20.936m300.587,0-39.028-20.936-39.027,20.936M278.285,685.516,348,648.632l69.231,37.657m83.476-.773,69.708-36.884,69.231,37.657m83.593-.773,69.712-36.884,69.229,37.657m83.594-.773,69.708-36.884,69.235,37.657m83.593-.773,69.71-36.884,69.229,37.657m3.012-31.568-72.241-38.758-72.241,38.758-39.028-20.938L1087.72,654.72l-72.241-38.758L943.239,654.72l-39.027-20.938L865.188,654.72l-72.241-38.758L720.705,654.72l-39.027-20.938L642.65,654.72l-72.24-38.758L498.169,654.72l-39.027-20.938L420.116,654.72l-72.241-38.758L275.633,654.72l-39.025-20.938L197.582,654.72m1112.676-16.335-72.241-38.756-72.241,38.756-39.028-20.937-39.027,20.937-72.241-38.756-72.239,38.756-39.027-20.937-39.025,20.937-72.241-38.756-72.241,38.756-39.027-20.937L642.65,638.385l-72.24-38.756-72.241,38.756-39.027-20.937-39.027,20.937-72.241-38.756-72.241,38.756-39.025-20.937-39.027,20.937m1001.406,96.52-72.241-38.758-72.241,38.758-39.026-20.938-39.025,20.938-72.241-38.758-72.242,38.758-39.025-20.938L753.92,734.905l-72.242-38.758-72.241,38.758-39.027-20.938-39.027,20.938-72.241-38.758L386.9,734.905l-39.027-20.938L308.85,734.905l-72.241-38.758-72.241,38.758-39.025-20.938L86.314,734.905m78.053-49-39.025-20.938L86.314,685.9m300.587,0-39.027-20.938L308.85,685.9m300.587,0-39.027-20.938L531.384,685.9m300.587,0-39.025-20.938L753.92,685.9m300.585,0-39.026-20.938L976.454,685.9M167.019,749.367l69.708-36.884L305.96,750.14m83.472-.773,69.71-36.884,69.233,37.657m83.593-.773,69.71-36.884L750.91,750.14m83.593-.773,69.71-36.884,69.233,37.657m83.593-.773,69.708-36.884,69.233,37.657m3.008-31.568-72.241-38.758-72.241,38.758-39.026-20.938-39.025,20.938-72.241-38.758-72.242,38.758-39.025-20.938L753.92,718.571l-72.242-38.758-72.241,38.758-39.027-20.938-39.027,20.938-72.241-38.758L386.9,718.571l-39.027-20.938L308.85,718.571l-72.241-38.758-72.241,38.758-39.025-20.938L86.314,718.571m1112.674-16.334-72.241-38.758-72.241,38.758L1015.479,681.3l-39.025,20.938L904.213,663.48l-72.242,38.758L792.947,681.3,753.92,702.238,681.678,663.48l-72.241,38.758L570.411,681.3l-39.027,20.938L459.143,663.48,386.9,702.238,347.875,681.3,308.85,702.238,236.609,663.48l-72.241,38.758L125.342,681.3,86.314,702.238M1310.258,542.966l-72.241-38.758-72.241,38.758-39.028-20.938-39.027,20.938-72.241-38.758-72.239,38.758-39.027-20.938-39.025,20.938-72.241-38.758-72.241,38.758-39.027-20.938L642.65,542.966l-72.24-38.758-72.241,38.758-39.027-20.938-39.027,20.938-72.241-38.758-72.241,38.758-39.025-20.938-39.027,20.938m78.051-49-39.025-20.938-39.027,20.938m300.587,0-39.027-20.938-39.027,20.938m300.589,0-39.027-20.938L642.65,493.963m300.589,0-39.027-20.938-39.025,20.938m300.587,0-39.028-20.938-39.027,20.938M278.285,557.427,348,520.543,417.227,558.2m83.476-.773,69.708-36.884L639.642,558.2m83.593-.773,69.712-36.884L862.176,558.2m83.594-.773,69.708-36.884,69.235,37.657m83.593-.773,69.71-36.884,69.229,37.657m3.012-31.568-72.241-38.758-72.241,38.758-39.028-20.938-39.027,20.938-72.241-38.758-72.239,38.758-39.027-20.938-39.025,20.938-72.241-38.758-72.241,38.758-39.027-20.938L642.65,526.632l-72.24-38.758-72.241,38.758-39.027-20.938-39.027,20.938-72.241-38.758-72.241,38.758-39.025-20.938-39.027,20.938M1310.258,510.3l-72.241-38.756L1165.775,510.3l-39.028-20.936L1087.72,510.3l-72.241-38.756L943.239,510.3,904.213,489.36,865.188,510.3,792.947,471.54,720.705,510.3,681.678,489.36,642.65,510.3l-72.24-38.756L498.169,510.3,459.143,489.36,420.116,510.3,347.875,471.54,275.633,510.3,236.609,489.36,197.582,510.3m1001.406,96.52-72.241-38.758-72.241,38.758-39.026-20.938-39.025,20.938-72.241-38.758-72.242,38.758-39.025-20.938L753.92,606.817l-72.242-38.758-72.241,38.758-39.027-20.938-39.027,20.938-72.241-38.758L386.9,606.817l-39.027-20.938L308.85,606.817l-72.241-38.758-72.241,38.758-39.025-20.938L86.314,606.817m78.053-49-39.025-20.937L86.314,557.814m300.587,0-39.027-20.937L308.85,557.814m300.587,0-39.027-20.937-39.027,20.937m300.587,0-39.025-20.937L753.92,557.814m300.585,0-39.026-20.937-39.025,20.937M167.019,621.28l69.708-36.886,69.233,37.657m83.472-.771,69.71-36.886,69.233,37.657m83.593-.771,69.71-36.886,69.231,37.657m83.593-.771,69.71-36.886,69.233,37.657m83.593-.771,69.708-36.886,69.233,37.657m3.008-31.568-72.241-38.758-72.241,38.758-39.026-20.938-39.025,20.938-72.241-38.758-72.242,38.758-39.025-20.938L753.92,590.483l-72.242-38.758-72.241,38.758-39.027-20.938-39.027,20.938-72.241-38.758L386.9,590.483l-39.027-20.938L308.85,590.483l-72.241-38.758-72.241,38.758-39.025-20.938L86.314,590.483m1112.674-16.334-72.241-38.758-72.241,38.758-39.026-20.938-39.025,20.938-72.241-38.758-72.242,38.758-39.025-20.938L753.92,574.149l-72.242-38.758-72.241,38.758-39.027-20.938-39.027,20.938-72.241-38.758L386.9,574.149l-39.027-20.938L308.85,574.149l-72.241-38.758-72.241,38.758-39.025-20.938L86.314,574.149M1310.258,414.877l-72.241-38.758-72.241,38.758-39.028-20.938-39.027,20.938-72.241-38.758-72.239,38.758-39.027-20.938-39.025,20.938-72.241-38.758-72.241,38.758-39.027-20.938L642.65,414.877l-72.24-38.758-72.241,38.758-39.027-20.938-39.027,20.938-72.241-38.758-72.241,38.758-39.025-20.938-39.027,20.938m78.051-49-39.025-20.938-39.027,20.938m300.587,0-39.027-20.938-39.027,20.938m300.589,0-39.027-20.938L642.65,365.874m300.589,0-39.027-20.938-39.025,20.938m300.587,0-39.028-20.938-39.027,20.938M278.285,429.339,348,392.453l69.231,37.658m83.476-.773,69.708-36.885,69.231,37.658m83.593-.773,69.712-36.885,69.229,37.658m83.594-.773,69.708-36.885,69.235,37.658m83.593-.773,69.71-36.885,69.229,37.658m3.012-31.57-72.241-38.756-72.241,38.756-39.028-20.936-39.027,20.936-72.241-38.756-72.239,38.756-39.027-20.936-39.025,20.936-72.241-38.756-72.241,38.756-39.027-20.936L642.65,398.542l-72.24-38.756-72.241,38.756-39.027-20.936-39.027,20.936-72.241-38.756-72.241,38.756-39.025-20.936-39.027,20.936m1112.676-16.334-72.241-38.756-72.241,38.756-39.028-20.936-39.027,20.936-72.241-38.756-72.239,38.756-39.027-20.936-39.025,20.936-72.241-38.756-72.241,38.756-39.027-20.936L642.65,382.208l-72.24-38.756-72.241,38.756-39.027-20.936-39.027,20.936-72.241-38.756-72.241,38.756-39.025-20.936-39.027,20.936m1001.406,96.52-72.241-38.758-72.241,38.758-39.026-20.938-39.025,20.938L904.213,439.97l-72.242,38.758L792.947,457.79,753.92,478.728,681.678,439.97l-72.241,38.758L570.411,457.79l-39.027,20.938L459.143,439.97,386.9,478.728,347.875,457.79,308.85,478.728,236.609,439.97l-72.241,38.758L125.342,457.79,86.314,478.728m78.053-49-39.025-20.937L86.314,429.725m300.587,0-39.027-20.937L308.85,429.725m300.587,0-39.027-20.937-39.027,20.937m300.587,0-39.025-20.937L753.92,429.725m300.585,0-39.026-20.937-39.025,20.937M167.019,493.19l69.708-36.884,69.233,37.657m83.472-.773,69.71-36.884,69.233,37.657m83.593-.773,69.71-36.884,69.231,37.657m83.593-.773,69.71-36.884,69.233,37.657m83.593-.773,69.708-36.884,69.233,37.657m3.008-31.568-72.241-38.758-72.241,38.758-39.026-20.938-39.025,20.938-72.241-38.758-72.242,38.758-39.025-20.938L753.92,462.395l-72.242-38.758-72.241,38.758-39.027-20.938-39.027,20.938-72.241-38.758L386.9,462.395l-39.027-20.938L308.85,462.395l-72.241-38.758-72.241,38.758-39.025-20.938L86.314,462.395m1112.674-16.334L1126.747,407.3l-72.241,38.758-39.026-20.938-39.025,20.938L904.213,407.3l-72.242,38.758-39.025-20.938L753.92,446.061,681.678,407.3l-72.241,38.758-39.027-20.938-39.027,20.938L459.143,407.3,386.9,446.061l-39.027-20.938L308.85,446.061,236.609,407.3l-72.241,38.758-39.025-20.938L86.314,446.061M1310.258,286.789l-72.241-38.758-72.241,38.758-39.028-20.938-39.027,20.938-72.241-38.758-72.239,38.758-39.027-20.938-39.025,20.938-72.241-38.758-72.241,38.758-39.027-20.938L642.65,286.789l-72.24-38.758-72.241,38.758-39.027-20.938-39.027,20.938-72.241-38.758-72.241,38.758-39.025-20.938-39.027,20.938m78.051-49-39.025-20.938-39.027,20.938m300.587,0-39.027-20.938-39.027,20.938m300.589,0-39.027-20.938L642.65,237.786m300.589,0-39.027-20.938-39.025,20.938m300.587,0-39.028-20.938-39.027,20.938M278.285,301.25,348,264.365l69.231,37.658m83.476-.773,69.708-36.886,69.231,37.658m83.593-.773,69.712-36.886,69.229,37.658m83.594-.773,69.708-36.886,69.235,37.658m83.593-.773,69.71-36.886,69.229,37.658m3.012-31.57L1238.017,231.7l-72.241,38.756-39.028-20.936-39.027,20.936L1015.479,231.7l-72.239,38.756-39.027-20.936-39.025,20.936L792.947,231.7l-72.241,38.756-39.027-20.936L642.65,270.453,570.411,231.7l-72.241,38.756-39.027-20.936-39.027,20.936L347.875,231.7l-72.241,38.756-39.025-20.936-39.027,20.936M1310.258,254.12l-72.241-38.758-72.241,38.758-39.028-20.936L1087.72,254.12l-72.241-38.758L943.239,254.12l-39.027-20.936L865.188,254.12l-72.241-38.758L720.705,254.12l-39.027-20.936L642.65,254.12l-72.24-38.758L498.169,254.12l-39.027-20.936L420.116,254.12l-72.241-38.758L275.633,254.12l-39.025-20.936L197.582,254.12m1001.406,96.52-72.241-38.758-72.241,38.758L1015.479,329.7,976.454,350.64l-72.241-38.758L831.971,350.64,792.947,329.7,753.92,350.64l-72.242-38.758L609.437,350.64,570.411,329.7,531.384,350.64l-72.241-38.758L386.9,350.64,347.875,329.7,308.85,350.64l-72.241-38.758L164.367,350.64,125.342,329.7,86.314,350.64m78.053-49L125.342,280.7,86.314,301.637m300.587,0L347.875,280.7,308.85,301.637m300.587,0L570.411,280.7l-39.027,20.936m300.587,0L792.947,280.7,753.92,301.637m300.585,0L1015.479,280.7l-39.025,20.936M167.019,365.1l69.708-36.884,69.233,37.657m83.472-.773,69.71-36.884,69.233,37.657m83.593-.773,69.71-36.884,69.231,37.657M834.5,365.1l69.71-36.884,69.233,37.657m83.593-.773,69.708-36.884,69.233,37.657m3.008-31.568-72.241-38.758-72.241,38.758-39.026-20.938-39.025,20.938-72.241-38.758-72.242,38.758-39.025-20.938L753.92,334.306l-72.242-38.758-72.241,38.758-39.027-20.938-39.027,20.938-72.241-38.758L386.9,334.306l-39.027-20.938L308.85,334.306l-72.241-38.758-72.241,38.758-39.025-20.938L86.314,334.306m1112.674-16.336-72.241-38.756-72.241,38.756-39.026-20.936-39.025,20.936-72.241-38.756-72.242,38.756-39.025-20.936L753.92,317.971l-72.242-38.756-72.241,38.756-39.027-20.936-39.027,20.936-72.241-38.756L386.9,317.971l-39.027-20.936L308.85,317.971l-72.241-38.756-72.241,38.756-39.025-20.936L86.314,317.971M1310.258,158.7l-72.241-38.758L1165.775,158.7l-39.028-20.938L1087.72,158.7l-72.241-38.758L943.239,158.7l-39.027-20.938L865.188,158.7l-72.241-38.758L720.705,158.7l-39.027-20.938L642.65,158.7l-72.24-38.758L498.169,158.7l-39.027-20.938L420.116,158.7l-72.241-38.758L275.633,158.7l-39.025-20.938L197.582,158.7m78.051-49L236.609,88.759,197.582,109.7m300.587,0L459.143,88.759,420.116,109.7m300.589,0L681.678,88.759,642.65,109.7m300.589,0L904.213,88.759,865.188,109.7m300.587,0-39.028-20.938L1087.72,109.7M278.285,173.162,348,136.276l69.231,37.658m83.476-.773,69.708-36.886,69.231,37.658m83.593-.773,69.712-36.886,69.229,37.658m83.594-.773,69.708-36.886,69.235,37.658m83.593-.773,69.71-36.886,69.229,37.658m3.012-31.57-72.241-38.756-72.241,38.756-39.028-20.936-39.027,20.936-72.241-38.756-72.239,38.756-39.027-20.936-39.025,20.936-72.241-38.756-72.241,38.756-39.027-20.936L642.65,142.365l-72.24-38.756-72.241,38.756-39.027-20.936-39.027,20.936-72.241-38.756-72.241,38.756-39.025-20.936-39.027,20.936m1112.676-16.334-72.241-38.756-72.241,38.756-39.028-20.938-39.027,20.938-72.241-38.756-72.239,38.756-39.027-20.938-39.025,20.938L792.947,87.275l-72.241,38.756-39.027-20.938L642.65,126.031l-72.24-38.756-72.241,38.756-39.027-20.938-39.027,20.938L347.875,87.275l-72.241,38.756-39.025-20.938-39.027,20.938m1001.406,96.52-72.241-38.758-72.241,38.758-39.026-20.938-39.025,20.938-72.241-38.758-72.242,38.758-39.025-20.938L753.92,222.552l-72.242-38.758-72.241,38.758-39.027-20.938-39.027,20.938-72.241-38.758L386.9,222.552l-39.027-20.938L308.85,222.552l-72.241-38.758-72.241,38.758-39.025-20.938L86.314,222.552m78.053-49L125.342,152.61,86.314,173.548m300.587,0L347.875,152.61,308.85,173.548m300.587,0L570.411,152.61l-39.027,20.938m300.587,0L792.947,152.61,753.92,173.548m300.585,0-39.026-20.938-39.025,20.938M167.019,237.013l69.708-36.884,69.233,37.657m83.472-.773,69.71-36.884,69.233,37.657m83.593-.773,69.71-36.884,69.231,37.657m83.593-.773,69.71-36.884,69.233,37.657m83.593-.773,69.708-36.884,69.233,37.657m3.008-31.568-72.241-38.758-72.241,38.758-39.026-20.938-39.025,20.938L904.213,167.46l-72.242,38.758L792.947,185.28,753.92,206.218,681.678,167.46l-72.241,38.758L570.411,185.28l-39.027,20.938L459.143,167.46,386.9,206.218,347.875,185.28,308.85,206.218,236.609,167.46l-72.241,38.758L125.342,185.28,86.314,206.218m1112.674-16.336-72.241-38.756-72.241,38.756-39.026-20.936-39.025,20.936-72.241-38.756-72.242,38.756-39.025-20.936L753.92,189.882l-72.242-38.756-72.241,38.756-39.027-20.936-39.027,20.936-72.241-38.756L386.9,189.882l-39.027-20.936L308.85,189.882l-72.241-38.756-72.241,38.756-39.025-20.936L86.314,189.882" transform="translate(-229.735 -488.511)" fill="none" stroke="#b58500" stroke-miterlimit="10" stroke-width="2"/>
        </g>
      </g>
      <g transform="translate(-5.903 2789.598)">
        <g id="Group_125186-3" data-name="Group 125186" transform="translate(19.903 -1019.598)" clip-path="url(#clip-path-2)">
          <path id="Path_130768-3" data-name="Path 130768" d="M1310.258,799.143l-72.241-38.758-72.241,38.758L1126.747,778.2l-39.027,20.938-72.241-38.758-72.239,38.758L904.213,778.2l-39.025,20.938-72.241-38.758-72.241,38.758L681.678,778.2,642.65,799.143l-72.24-38.758-72.241,38.758L459.143,778.2l-39.027,20.938-72.241-38.758-72.241,38.758L236.609,778.2l-39.027,20.938m78.051-49L236.609,729.2,197.582,750.14m300.587,0L459.143,729.2,420.116,750.14m300.589,0L681.678,729.2,642.65,750.14m300.589,0L904.213,729.2,865.188,750.14m300.587,0L1126.747,729.2,1087.72,750.14M278.285,813.6,348,776.72l69.231,37.657M500.7,813.6l69.708-36.884,69.231,37.657m83.593-.773,69.712-36.884,69.229,37.657m83.594-.773,69.708-36.884,69.235,37.657m83.593-.773,69.71-36.884,69.229,37.657m3.012-31.568-72.241-38.758-72.241,38.758-39.028-20.938-39.027,20.938-72.241-38.758-72.239,38.758-39.027-20.938-39.025,20.938-72.241-38.758-72.241,38.758-39.027-20.938L642.65,782.809l-72.24-38.758-72.241,38.758-39.027-20.938-39.027,20.938-72.241-38.758-72.241,38.758-39.025-20.938-39.027,20.938m1112.676-16.336-72.241-38.756-72.241,38.756-39.028-20.936-39.027,20.936-72.241-38.756-72.239,38.756-39.027-20.936-39.025,20.936-72.241-38.756-72.241,38.756-39.027-20.936L642.65,766.473l-72.24-38.756-72.241,38.756-39.027-20.936-39.027,20.936-72.241-38.756-72.241,38.756-39.025-20.936-39.027,20.936m1001.406,96.52-72.241-38.756-72.241,38.756-39.026-20.936-39.025,20.936-72.241-38.756-72.242,38.756-39.025-20.936L753.92,862.994l-72.242-38.756-72.241,38.756-39.027-20.936-39.027,20.936-72.241-38.756L386.9,862.994l-39.027-20.936L308.85,862.994l-72.241-38.756-72.241,38.756-39.025-20.936L86.314,862.994m78.053-49-39.025-20.938L86.314,813.992m300.587,0-39.027-20.938L308.85,813.992m300.587,0-39.027-20.938-39.027,20.938m300.587,0-39.025-20.938L753.92,813.992m300.585,0-39.026-20.938-39.025,20.938M167.019,877.457l69.708-36.885,69.233,37.656m83.472-.771,69.71-36.885,69.233,37.656m83.593-.771,69.71-36.885,69.231,37.656m83.593-.771,69.71-36.885,69.233,37.656m83.593-.771,69.708-36.885,69.233,37.656m3.008-31.568L1126.747,807.9l-72.241,38.758-39.026-20.938L976.454,846.66,904.213,807.9,831.971,846.66l-39.025-20.938L753.92,846.66,681.678,807.9,609.437,846.66l-39.027-20.938L531.384,846.66,459.143,807.9,386.9,846.66l-39.027-20.938L308.85,846.66,236.609,807.9,164.367,846.66l-39.025-20.938L86.314,846.66m1112.674-16.334-72.241-38.758-72.241,38.758-39.026-20.938-39.025,20.938-72.241-38.758-72.242,38.758-39.025-20.938L753.92,830.326l-72.242-38.758-72.241,38.758-39.027-20.938-39.027,20.938-72.241-38.758L386.9,830.326l-39.027-20.938L308.85,830.326l-72.241-38.758-72.241,38.758-39.025-20.938L86.314,830.326M1310.258,671.054,1238.017,632.3l-72.241,38.758-39.028-20.938-39.027,20.938L1015.479,632.3l-72.239,38.758-39.027-20.938-39.025,20.938L792.947,632.3l-72.241,38.758-39.027-20.938L642.65,671.054,570.411,632.3l-72.241,38.758-39.027-20.938-39.027,20.938L347.875,632.3l-72.241,38.758-39.025-20.938-39.027,20.938m78.051-49-39.025-20.936-39.027,20.936m300.587,0-39.027-20.936-39.027,20.936m300.589,0-39.027-20.936L642.65,622.051m300.589,0-39.027-20.936-39.025,20.936m300.587,0-39.028-20.936-39.027,20.936M278.285,685.516,348,648.632l69.231,37.657m83.476-.773,69.708-36.884,69.231,37.657m83.593-.773,69.712-36.884,69.229,37.657m83.594-.773,69.708-36.884,69.235,37.657m83.593-.773,69.71-36.884,69.229,37.657m3.012-31.568-72.241-38.758-72.241,38.758-39.028-20.938L1087.72,654.72l-72.241-38.758L943.239,654.72l-39.027-20.938L865.188,654.72l-72.241-38.758L720.705,654.72l-39.027-20.938L642.65,654.72l-72.24-38.758L498.169,654.72l-39.027-20.938L420.116,654.72l-72.241-38.758L275.633,654.72l-39.025-20.938L197.582,654.72m1112.676-16.335-72.241-38.756-72.241,38.756-39.028-20.937-39.027,20.937-72.241-38.756-72.239,38.756-39.027-20.937-39.025,20.937-72.241-38.756-72.241,38.756-39.027-20.937L642.65,638.385l-72.24-38.756-72.241,38.756-39.027-20.937-39.027,20.937-72.241-38.756-72.241,38.756-39.025-20.937-39.027,20.937m1001.406,96.52-72.241-38.758-72.241,38.758-39.026-20.938-39.025,20.938-72.241-38.758-72.242,38.758-39.025-20.938L753.92,734.905l-72.242-38.758-72.241,38.758-39.027-20.938-39.027,20.938-72.241-38.758L386.9,734.905l-39.027-20.938L308.85,734.905l-72.241-38.758-72.241,38.758-39.025-20.938L86.314,734.905m78.053-49-39.025-20.938L86.314,685.9m300.587,0-39.027-20.938L308.85,685.9m300.587,0-39.027-20.938L531.384,685.9m300.587,0-39.025-20.938L753.92,685.9m300.585,0-39.026-20.938L976.454,685.9M167.019,749.367l69.708-36.884L305.96,750.14m83.472-.773,69.71-36.884,69.233,37.657m83.593-.773,69.71-36.884L750.91,750.14m83.593-.773,69.71-36.884,69.233,37.657m83.593-.773,69.708-36.884,69.233,37.657m3.008-31.568-72.241-38.758-72.241,38.758-39.026-20.938-39.025,20.938-72.241-38.758-72.242,38.758-39.025-20.938L753.92,718.571l-72.242-38.758-72.241,38.758-39.027-20.938-39.027,20.938-72.241-38.758L386.9,718.571l-39.027-20.938L308.85,718.571l-72.241-38.758-72.241,38.758-39.025-20.938L86.314,718.571m1112.674-16.334-72.241-38.758-72.241,38.758L1015.479,681.3l-39.025,20.938L904.213,663.48l-72.242,38.758L792.947,681.3,753.92,702.238,681.678,663.48l-72.241,38.758L570.411,681.3l-39.027,20.938L459.143,663.48,386.9,702.238,347.875,681.3,308.85,702.238,236.609,663.48l-72.241,38.758L125.342,681.3,86.314,702.238M1310.258,542.966l-72.241-38.758-72.241,38.758-39.028-20.938-39.027,20.938-72.241-38.758-72.239,38.758-39.027-20.938-39.025,20.938-72.241-38.758-72.241,38.758-39.027-20.938L642.65,542.966l-72.24-38.758-72.241,38.758-39.027-20.938-39.027,20.938-72.241-38.758-72.241,38.758-39.025-20.938-39.027,20.938m78.051-49-39.025-20.938-39.027,20.938m300.587,0-39.027-20.938-39.027,20.938m300.589,0-39.027-20.938L642.65,493.963m300.589,0-39.027-20.938-39.025,20.938m300.587,0-39.028-20.938-39.027,20.938M278.285,557.427,348,520.543,417.227,558.2m83.476-.773,69.708-36.884L639.642,558.2m83.593-.773,69.712-36.884L862.176,558.2m83.594-.773,69.708-36.884,69.235,37.657m83.593-.773,69.71-36.884,69.229,37.657m3.012-31.568-72.241-38.758-72.241,38.758-39.028-20.938-39.027,20.938-72.241-38.758-72.239,38.758-39.027-20.938-39.025,20.938-72.241-38.758-72.241,38.758-39.027-20.938L642.65,526.632l-72.24-38.758-72.241,38.758-39.027-20.938-39.027,20.938-72.241-38.758-72.241,38.758-39.025-20.938-39.027,20.938M1310.258,510.3l-72.241-38.756L1165.775,510.3l-39.028-20.936L1087.72,510.3l-72.241-38.756L943.239,510.3,904.213,489.36,865.188,510.3,792.947,471.54,720.705,510.3,681.678,489.36,642.65,510.3l-72.24-38.756L498.169,510.3,459.143,489.36,420.116,510.3,347.875,471.54,275.633,510.3,236.609,489.36,197.582,510.3m1001.406,96.52-72.241-38.758-72.241,38.758-39.026-20.938-39.025,20.938-72.241-38.758-72.242,38.758-39.025-20.938L753.92,606.817l-72.242-38.758-72.241,38.758-39.027-20.938-39.027,20.938-72.241-38.758L386.9,606.817l-39.027-20.938L308.85,606.817l-72.241-38.758-72.241,38.758-39.025-20.938L86.314,606.817m78.053-49-39.025-20.937L86.314,557.814m300.587,0-39.027-20.937L308.85,557.814m300.587,0-39.027-20.937-39.027,20.937m300.587,0-39.025-20.937L753.92,557.814m300.585,0-39.026-20.937-39.025,20.937M167.019,621.28l69.708-36.886,69.233,37.657m83.472-.771,69.71-36.886,69.233,37.657m83.593-.771,69.71-36.886,69.231,37.657m83.593-.771,69.71-36.886,69.233,37.657m83.593-.771,69.708-36.886,69.233,37.657m3.008-31.568-72.241-38.758-72.241,38.758-39.026-20.938-39.025,20.938-72.241-38.758-72.242,38.758-39.025-20.938L753.92,590.483l-72.242-38.758-72.241,38.758-39.027-20.938-39.027,20.938-72.241-38.758L386.9,590.483l-39.027-20.938L308.85,590.483l-72.241-38.758-72.241,38.758-39.025-20.938L86.314,590.483m1112.674-16.334-72.241-38.758-72.241,38.758-39.026-20.938-39.025,20.938-72.241-38.758-72.242,38.758-39.025-20.938L753.92,574.149l-72.242-38.758-72.241,38.758-39.027-20.938-39.027,20.938-72.241-38.758L386.9,574.149l-39.027-20.938L308.85,574.149l-72.241-38.758-72.241,38.758-39.025-20.938L86.314,574.149M1310.258,414.877l-72.241-38.758-72.241,38.758-39.028-20.938-39.027,20.938-72.241-38.758-72.239,38.758-39.027-20.938-39.025,20.938-72.241-38.758-72.241,38.758-39.027-20.938L642.65,414.877l-72.24-38.758-72.241,38.758-39.027-20.938-39.027,20.938-72.241-38.758-72.241,38.758-39.025-20.938-39.027,20.938m78.051-49-39.025-20.938-39.027,20.938m300.587,0-39.027-20.938-39.027,20.938m300.589,0-39.027-20.938L642.65,365.874m300.589,0-39.027-20.938-39.025,20.938m300.587,0-39.028-20.938-39.027,20.938M278.285,429.339,348,392.453l69.231,37.658m83.476-.773,69.708-36.885,69.231,37.658m83.593-.773,69.712-36.885,69.229,37.658m83.594-.773,69.708-36.885,69.235,37.658m83.593-.773,69.71-36.885,69.229,37.658m3.012-31.57-72.241-38.756-72.241,38.756-39.028-20.936-39.027,20.936-72.241-38.756-72.239,38.756-39.027-20.936-39.025,20.936-72.241-38.756-72.241,38.756-39.027-20.936L642.65,398.542l-72.24-38.756-72.241,38.756-39.027-20.936-39.027,20.936-72.241-38.756-72.241,38.756-39.025-20.936-39.027,20.936m1112.676-16.334-72.241-38.756-72.241,38.756-39.028-20.936-39.027,20.936-72.241-38.756-72.239,38.756-39.027-20.936-39.025,20.936-72.241-38.756-72.241,38.756-39.027-20.936L642.65,382.208l-72.24-38.756-72.241,38.756-39.027-20.936-39.027,20.936-72.241-38.756-72.241,38.756-39.025-20.936-39.027,20.936m1001.406,96.52-72.241-38.758-72.241,38.758-39.026-20.938-39.025,20.938L904.213,439.97l-72.242,38.758L792.947,457.79,753.92,478.728,681.678,439.97l-72.241,38.758L570.411,457.79l-39.027,20.938L459.143,439.97,386.9,478.728,347.875,457.79,308.85,478.728,236.609,439.97l-72.241,38.758L125.342,457.79,86.314,478.728m78.053-49-39.025-20.937L86.314,429.725m300.587,0-39.027-20.937L308.85,429.725m300.587,0-39.027-20.937-39.027,20.937m300.587,0-39.025-20.937L753.92,429.725m300.585,0-39.026-20.937-39.025,20.937M167.019,493.19l69.708-36.884,69.233,37.657m83.472-.773,69.71-36.884,69.233,37.657m83.593-.773,69.71-36.884,69.231,37.657m83.593-.773,69.71-36.884,69.233,37.657m83.593-.773,69.708-36.884,69.233,37.657m3.008-31.568-72.241-38.758-72.241,38.758-39.026-20.938-39.025,20.938-72.241-38.758-72.242,38.758-39.025-20.938L753.92,462.395l-72.242-38.758-72.241,38.758-39.027-20.938-39.027,20.938-72.241-38.758L386.9,462.395l-39.027-20.938L308.85,462.395l-72.241-38.758-72.241,38.758-39.025-20.938L86.314,462.395m1112.674-16.334L1126.747,407.3l-72.241,38.758-39.026-20.938-39.025,20.938L904.213,407.3l-72.242,38.758-39.025-20.938L753.92,446.061,681.678,407.3l-72.241,38.758-39.027-20.938-39.027,20.938L459.143,407.3,386.9,446.061l-39.027-20.938L308.85,446.061,236.609,407.3l-72.241,38.758-39.025-20.938L86.314,446.061M1310.258,286.789l-72.241-38.758-72.241,38.758-39.028-20.938-39.027,20.938-72.241-38.758-72.239,38.758-39.027-20.938-39.025,20.938-72.241-38.758-72.241,38.758-39.027-20.938L642.65,286.789l-72.24-38.758-72.241,38.758-39.027-20.938-39.027,20.938-72.241-38.758-72.241,38.758-39.025-20.938-39.027,20.938m78.051-49-39.025-20.938-39.027,20.938m300.587,0-39.027-20.938-39.027,20.938m300.589,0-39.027-20.938L642.65,237.786m300.589,0-39.027-20.938-39.025,20.938m300.587,0-39.028-20.938-39.027,20.938M278.285,301.25,348,264.365l69.231,37.658m83.476-.773,69.708-36.886,69.231,37.658m83.593-.773,69.712-36.886,69.229,37.658m83.594-.773,69.708-36.886,69.235,37.658m83.593-.773,69.71-36.886,69.229,37.658m3.012-31.57L1238.017,231.7l-72.241,38.756-39.028-20.936-39.027,20.936L1015.479,231.7l-72.239,38.756-39.027-20.936-39.025,20.936L792.947,231.7l-72.241,38.756-39.027-20.936L642.65,270.453,570.411,231.7l-72.241,38.756-39.027-20.936-39.027,20.936L347.875,231.7l-72.241,38.756-39.025-20.936-39.027,20.936M1310.258,254.12l-72.241-38.758-72.241,38.758-39.028-20.936L1087.72,254.12l-72.241-38.758L943.239,254.12l-39.027-20.936L865.188,254.12l-72.241-38.758L720.705,254.12l-39.027-20.936L642.65,254.12l-72.24-38.758L498.169,254.12l-39.027-20.936L420.116,254.12l-72.241-38.758L275.633,254.12l-39.025-20.936L197.582,254.12m1001.406,96.52-72.241-38.758-72.241,38.758L1015.479,329.7,976.454,350.64l-72.241-38.758L831.971,350.64,792.947,329.7,753.92,350.64l-72.242-38.758L609.437,350.64,570.411,329.7,531.384,350.64l-72.241-38.758L386.9,350.64,347.875,329.7,308.85,350.64l-72.241-38.758L164.367,350.64,125.342,329.7,86.314,350.64m78.053-49L125.342,280.7,86.314,301.637m300.587,0L347.875,280.7,308.85,301.637m300.587,0L570.411,280.7l-39.027,20.936m300.587,0L792.947,280.7,753.92,301.637m300.585,0L1015.479,280.7l-39.025,20.936M167.019,365.1l69.708-36.884,69.233,37.657m83.472-.773,69.71-36.884,69.233,37.657m83.593-.773,69.71-36.884,69.231,37.657M834.5,365.1l69.71-36.884,69.233,37.657m83.593-.773,69.708-36.884,69.233,37.657m3.008-31.568-72.241-38.758-72.241,38.758-39.026-20.938-39.025,20.938-72.241-38.758-72.242,38.758-39.025-20.938L753.92,334.306l-72.242-38.758-72.241,38.758-39.027-20.938-39.027,20.938-72.241-38.758L386.9,334.306l-39.027-20.938L308.85,334.306l-72.241-38.758-72.241,38.758-39.025-20.938L86.314,334.306m1112.674-16.336-72.241-38.756-72.241,38.756-39.026-20.936-39.025,20.936-72.241-38.756-72.242,38.756-39.025-20.936L753.92,317.971l-72.242-38.756-72.241,38.756-39.027-20.936-39.027,20.936-72.241-38.756L386.9,317.971l-39.027-20.936L308.85,317.971l-72.241-38.756-72.241,38.756-39.025-20.936L86.314,317.971M1310.258,158.7l-72.241-38.758L1165.775,158.7l-39.028-20.938L1087.72,158.7l-72.241-38.758L943.239,158.7l-39.027-20.938L865.188,158.7l-72.241-38.758L720.705,158.7l-39.027-20.938L642.65,158.7l-72.24-38.758L498.169,158.7l-39.027-20.938L420.116,158.7l-72.241-38.758L275.633,158.7l-39.025-20.938L197.582,158.7m78.051-49L236.609,88.759,197.582,109.7m300.587,0L459.143,88.759,420.116,109.7m300.589,0L681.678,88.759,642.65,109.7m300.589,0L904.213,88.759,865.188,109.7m300.587,0-39.028-20.938L1087.72,109.7M278.285,173.162,348,136.276l69.231,37.658m83.476-.773,69.708-36.886,69.231,37.658m83.593-.773,69.712-36.886,69.229,37.658m83.594-.773,69.708-36.886,69.235,37.658m83.593-.773,69.71-36.886,69.229,37.658m3.012-31.57-72.241-38.756-72.241,38.756-39.028-20.936-39.027,20.936-72.241-38.756-72.239,38.756-39.027-20.936-39.025,20.936-72.241-38.756-72.241,38.756-39.027-20.936L642.65,142.365l-72.24-38.756-72.241,38.756-39.027-20.936-39.027,20.936-72.241-38.756-72.241,38.756-39.025-20.936-39.027,20.936m1112.676-16.334-72.241-38.756-72.241,38.756-39.028-20.938-39.027,20.938-72.241-38.756-72.239,38.756-39.027-20.938-39.025,20.938L792.947,87.275l-72.241,38.756-39.027-20.938L642.65,126.031l-72.24-38.756-72.241,38.756-39.027-20.938-39.027,20.938L347.875,87.275l-72.241,38.756-39.025-20.938-39.027,20.938m1001.406,96.52-72.241-38.758-72.241,38.758-39.026-20.938-39.025,20.938-72.241-38.758-72.242,38.758-39.025-20.938L753.92,222.552l-72.242-38.758-72.241,38.758-39.027-20.938-39.027,20.938-72.241-38.758L386.9,222.552l-39.027-20.938L308.85,222.552l-72.241-38.758-72.241,38.758-39.025-20.938L86.314,222.552m78.053-49L125.342,152.61,86.314,173.548m300.587,0L347.875,152.61,308.85,173.548m300.587,0L570.411,152.61l-39.027,20.938m300.587,0L792.947,152.61,753.92,173.548m300.585,0-39.026-20.938-39.025,20.938M167.019,237.013l69.708-36.884,69.233,37.657m83.472-.773,69.71-36.884,69.233,37.657m83.593-.773,69.71-36.884,69.231,37.657m83.593-.773,69.71-36.884,69.233,37.657m83.593-.773,69.708-36.884,69.233,37.657m3.008-31.568-72.241-38.758-72.241,38.758-39.026-20.938-39.025,20.938L904.213,167.46l-72.242,38.758L792.947,185.28,753.92,206.218,681.678,167.46l-72.241,38.758L570.411,185.28l-39.027,20.938L459.143,167.46,386.9,206.218,347.875,185.28,308.85,206.218,236.609,167.46l-72.241,38.758L125.342,185.28,86.314,206.218m1112.674-16.336-72.241-38.756-72.241,38.756-39.026-20.936-39.025,20.936-72.241-38.756-72.242,38.756-39.025-20.936L753.92,189.882l-72.242-38.756-72.241,38.756-39.027-20.936-39.027,20.936-72.241-38.756L386.9,189.882l-39.027-20.936L308.85,189.882l-72.241-38.756-72.241,38.756-39.025-20.936L86.314,189.882" transform="translate(-229.735 -488.511)" fill="none" stroke="#b58500" stroke-miterlimit="10" stroke-width="2"/>
        </g>
      </g>
    </g>
  </g>
</svg>
