<svg id="downloadGold" xmlns="http://www.w3.org/2000/svg" width="24" height="24" viewBox="0 0 24 24">
  <g id="download">
    <rect id="Rectangle_15638" data-name="Rectangle 15638" width="24" height="24" fill="#c7993b" opacity="0"/>
    <rect id="Rectangle_15639" data-name="Rectangle 15639" width="16" height="2" rx="1" transform="translate(4 18)" fill="#c7993b"/>
    <rect id="Rectangle_15640" data-name="Rectangle 15640" width="4" height="2" rx="1" transform="translate(4 20) rotate(-90)" fill="#c7993b"/>
    <rect id="Rectangle_15641" data-name="Rectangle 15641" width="4" height="2" rx="1" transform="translate(18 20) rotate(-90)" fill="#c7993b"/>
    <path id="Path_131137" data-name="Path 131137" d="M12,15a1,1,0,0,1-.58-.18L7.42,12a1,1,0,1,1,1.16-1.63L12,12.76l3.4-2.56a1,1,0,1,1,1.2,1.6l-4,3a1,1,0,0,1-.6.2Z" fill="#c7993b"/>
    <path id="Path_131138" data-name="Path 131138" d="M12,13a1,1,0,0,1-1-1V4a1,1,0,0,1,2,0v8A1,1,0,0,1,12,13Z" fill="#c7993b"/>
  </g>
</svg>
