<svg id="eyeImg" xmlns="http://www.w3.org/2000/svg" width="48" height="48" viewBox="0 0 48 48">
  <g id="vuesax_bulk_frame" data-name="vuesax/bulk/frame">
    <g id="frame">
      <path id="Vector" d="M38.5,11.44C33.88,4.18,27.12,0,20,0A19.365,19.365,0,0,0,9.82,2.98,26.707,26.707,0,0,0,1.5,11.44a11.542,11.542,0,0,0,0,11.38C6.12,30.1,12.88,34.26,20,34.26a19.365,19.365,0,0,0,10.18-2.98,26.707,26.707,0,0,0,8.32-8.46A11.542,11.542,0,0,0,38.5,11.44ZM20,25.22a8.08,8.08,0,1,1,8.08-8.08A8.07,8.07,0,0,1,20,25.22Z" transform="translate(4 6.86)" fill="#c7993b" opacity="0.4"/>
      <path id="Vector-2" data-name="Vector" d="M5.7,0a5.71,5.71,0,1,0,5.72,5.72A5.715,5.715,0,0,0,5.7,0Z" transform="translate(18.3 18.28)" fill="#c7993b"/>
      <path id="Vector-3" data-name="Vector" d="M0,0H48V48H0Z" fill="none" opacity="0"/>
    </g>
  </g>
</svg>
