<svg xmlns="http://www.w3.org/2000/svg" width="925.651" height="239.666" viewBox="0 0 925.651 239.666">
  <g id="Error_404_NF" transform="translate(-3327.983 1099.37)">
    <g id="Group_125588" data-name="Group 125588" transform="translate(0.739)">
      <path id="Path_131545" data-name="Path 131545" d="M1985.014,92.189V79.973h-32.971q-6.241,0-9.359-2.824a9.845,9.845,0,0,1-3.12-7.685,7.446,7.446,0,0,1,.46-2.529,13.059,13.059,0,0,1,1.379-2.693q.919-1.412,1.9-2.726t2.43-3.218l34.811-46.567a53.022,53.022,0,0,1,5.615-6.667A7.444,7.444,0,0,1,1991.451,3q9.983,0,9.983,11.428V65.261h2.824a19.959,19.959,0,0,1,8.111,1.379q3.054,1.379,3.054,6.043,0,3.81-2.5,5.55t-7.488,1.74h-4.006V92.189q0,5.058-2.233,7.52a8.365,8.365,0,0,1-11.921-.066q-2.266-2.527-2.266-7.455m-28.242-26.929h28.242V27.1Z" transform="translate(1723.34 -1101.734)" fill="#b58500"/>
      <path id="Path_131546" data-name="Path 131546" d="M1990.856,100.437a8.243,8.243,0,0,1-6.415-2.739c-1.61-1.8-2.427-4.447-2.427-7.877V78.237h-32.339c-4.3,0-7.595-1.005-9.784-2.988a10.493,10.493,0,0,1-3.328-8.153,8.1,8.1,0,0,1,.5-2.742,13.744,13.744,0,0,1,1.444-2.824c.614-.943,1.263-1.872,1.929-2.76s1.468-1.95,2.432-3.221l34.808-46.564a53.836,53.836,0,0,1,5.689-6.749,8.09,8.09,0,0,1,5.72-2.24c7.044,0,10.615,4.058,10.615,12.06v50.2h2.192a20.654,20.654,0,0,1,8.372,1.435c2.273,1.027,3.426,3.253,3.426,6.619,0,2.747-.931,4.789-2.766,6.069-1.764,1.23-4.405,1.854-7.849,1.854H1999.7V89.822c0,3.517-.806,6.19-2.4,7.945a8.314,8.314,0,0,1-6.445,2.671M1989.083,1.26a6.774,6.774,0,0,0-4.854,1.9,52.69,52.69,0,0,0-5.541,6.583l-34.812,46.569q-1.448,1.909-2.431,3.219c-.649.866-1.282,1.772-1.881,2.691a12.494,12.494,0,0,0-1.314,2.561,6.848,6.848,0,0,0-.423,2.316,9.163,9.163,0,0,0,2.912,7.216c1.949,1.766,4.956,2.661,8.935,2.661h33.6V89.822c0,3.109.708,5.475,2.1,7.033a6.939,6.939,0,0,0,5.473,2.319,7.01,7.01,0,0,0,5.509-2.256c1.373-1.515,2.069-3.9,2.069-7.1V76.973h4.639c3.18,0,5.578-.547,7.126-1.627,1.5-1.044,2.225-2.69,2.225-5.031,0-2.863-.877-4.651-2.682-5.466a19.443,19.443,0,0,0-7.851-1.323h-3.457V12.056c0-7.265-3.059-10.8-9.351-10.8m-5.8,62.265H1953.15l30.129-40.709Zm-27.62-1.264h26.356V26.649Z" transform="translate(1725.708 -1099.366)" fill="#b58500"/>
      <path id="Path_131547" data-name="Path 131547" d="M2408.276,55.275a112.619,112.619,0,0,1-1.314,18.522,43.135,43.135,0,0,1-4.86,14.056,32.281,32.281,0,0,1-11.56,11.954,31.4,31.4,0,0,1-33.661-1.445,34.365,34.365,0,0,1-11.921-15.632,58.05,58.05,0,0,1-2.989-12.052,100.2,100.2,0,0,1-.952-14.285,137.183,137.183,0,0,1,1.051-17.865,58.952,58.952,0,0,1,3.284-13.662,30.869,30.869,0,0,1,11.264-14.417,30.9,30.9,0,0,1,17.635-4.959,32.9,32.9,0,0,1,12.282,2.2,28.032,28.032,0,0,1,9.688,6.437,36.838,36.838,0,0,1,7.061,10.476q4.99,10.837,4.991,30.672m-18-1.314a109.439,109.439,0,0,0-1.445-19.671q-1.445-7.651-4.86-11.56t-9.458-3.908q-8.669,0-12.052,8.735t-3.383,26.929a115.7,115.7,0,0,0,1.445,20.229q1.444,7.882,4.86,11.921a12.689,12.689,0,0,0,18.719-.164q3.415-4.2,4.795-12.019a122.418,122.418,0,0,0,1.379-20.492" transform="translate(1406.479 -1103.703)" fill="#b58500"/>
      <path id="Path_131548" data-name="Path 131548" d="M2372.412,102.274a30.807,30.807,0,0,1-18.265-5.766,35.14,35.14,0,0,1-12.14-15.911,58.969,58.969,0,0,1-3.028-12.2,101.3,101.3,0,0,1-.959-14.375,138.476,138.476,0,0,1,1.056-17.948,59.846,59.846,0,0,1,3.322-13.809,31.634,31.634,0,0,1,11.5-14.711,31.658,31.658,0,0,1,17.987-5.066A33.674,33.674,0,0,1,2384.4,4.735a28.791,28.791,0,0,1,9.9,6.58,37.621,37.621,0,0,1,7.184,10.654c3.351,7.277,5.051,17.686,5.051,30.938a113.772,113.772,0,0,1-1.323,18.627,43.969,43.969,0,0,1-4.933,14.26A33.062,33.062,0,0,1,2388.5,97.982a31.109,31.109,0,0,1-16.085,4.292m-.526-98.52A30.424,30.424,0,0,0,2354.6,8.606a30.392,30.392,0,0,0-11.031,14.131,58.6,58.6,0,0,0-3.242,13.5,137.232,137.232,0,0,0-1.045,17.782,100,100,0,0,0,.946,14.195,57.66,57.66,0,0,0,2.955,11.921,33.886,33.886,0,0,0,11.7,15.339,30.767,30.767,0,0,0,32.972,1.415,31.807,31.807,0,0,0,11.334-11.725,42.712,42.712,0,0,0,4.785-13.846,112.55,112.55,0,0,0,1.3-18.416c0-13.068-1.66-23.3-4.934-30.408a36.37,36.37,0,0,0-6.937-10.3,27.541,27.541,0,0,0-9.471-6.293,32.42,32.42,0,0,0-12.048-2.155m.394,85.187a12.147,12.147,0,0,1-9.744-4.264c-2.339-2.766-4.021-6.876-5-12.215a116.908,116.908,0,0,1-1.455-20.343c0-12.152,1.153-21.289,3.425-27.157,2.348-6.064,6.6-9.139,12.642-9.139,4.2,0,7.541,1.387,9.934,4.124,2.341,2.68,4.025,6.67,5.005,11.858a110.57,110.57,0,0,1,1.456,19.788,123.587,123.587,0,0,1-1.389,20.6c-.934,5.293-2.591,9.434-4.926,12.308a12.168,12.168,0,0,1-9.948,4.437m-.132-71.854c-5.542,0-9.292,2.725-11.463,8.332-2.216,5.722-3.34,14.705-3.34,26.7a115.659,115.659,0,0,0,1.435,20.115c.938,5.119,2.526,9.031,4.721,11.627a12.06,12.06,0,0,0,17.745-.155c2.2-2.705,3.767-6.652,4.663-11.731a122.428,122.428,0,0,0,1.37-20.382,109.364,109.364,0,0,0-1.434-19.554c-.938-4.964-2.524-8.753-4.715-11.261a11.351,11.351,0,0,0-8.982-3.692" transform="translate(1408.847 -1101.335)" fill="#b58500"/>
      <path id="Path_131549" data-name="Path 131549" d="M2743.667,92.189V79.973H2710.7q-6.241,0-9.36-2.824a9.844,9.844,0,0,1-3.12-7.685,7.437,7.437,0,0,1,.46-2.529,13.058,13.058,0,0,1,1.379-2.693q.92-1.412,1.9-2.726t2.43-3.218l34.81-46.567a53.02,53.02,0,0,1,5.616-6.667A7.444,7.444,0,0,1,2750.1,3q9.983,0,9.984,11.428V65.261h2.824a19.962,19.962,0,0,1,8.112,1.379q3.053,1.379,3.054,6.043,0,3.81-2.5,5.55t-7.488,1.74h-4.006V92.189q0,5.058-2.233,7.52a8.365,8.365,0,0,1-11.921-.066q-2.266-2.527-2.266-7.455m-28.242-26.929h28.242V27.1Z" transform="translate(1124.552 -1101.734)" fill="#b58500"/>
      <path id="Path_131550" data-name="Path 131550" d="M2749.51,100.437A8.242,8.242,0,0,1,2743.1,97.7c-1.611-1.8-2.428-4.447-2.428-7.877V78.237h-32.339c-4.3,0-7.595-1.005-9.783-2.988a10.492,10.492,0,0,1-3.328-8.153,8.109,8.109,0,0,1,.5-2.743,13.759,13.759,0,0,1,1.445-2.824c.615-.945,1.264-1.874,1.928-2.76s1.468-1.95,2.432-3.221l34.808-46.564a53.835,53.835,0,0,1,5.689-6.749,8.089,8.089,0,0,1,5.72-2.24c7.044,0,10.616,4.058,10.616,12.06v50.2h2.192a20.653,20.653,0,0,1,8.372,1.435c2.274,1.027,3.426,3.253,3.426,6.619,0,2.747-.931,4.789-2.766,6.069-1.764,1.23-4.405,1.854-7.849,1.854h-3.374V89.822c0,3.517-.806,6.19-2.4,7.945a8.314,8.314,0,0,1-6.445,2.671M2747.736,1.26a6.774,6.774,0,0,0-4.854,1.9,52.659,52.659,0,0,0-5.541,6.583l-34.812,46.569q-1.448,1.909-2.431,3.219c-.647.864-1.281,1.77-1.881,2.691a12.507,12.507,0,0,0-1.314,2.561,6.843,6.843,0,0,0-.423,2.316,9.163,9.163,0,0,0,2.912,7.216c1.949,1.766,4.956,2.661,8.935,2.661h33.6V89.822c0,3.109.708,5.475,2.1,7.033a6.938,6.938,0,0,0,5.473,2.319,7.01,7.01,0,0,0,5.509-2.256c1.373-1.515,2.069-3.9,2.069-7.1V76.973h4.638c3.18,0,5.578-.547,7.126-1.627,1.5-1.044,2.225-2.69,2.225-5.031,0-2.863-.877-4.651-2.682-5.467a19.449,19.449,0,0,0-7.851-1.323h-3.456V12.056c0-7.265-3.059-10.8-9.351-10.8m-5.8,62.265H2711.8l30.128-40.709Zm-27.62-1.264h26.356V26.649Z" transform="translate(1126.919 -1099.366)" fill="#b58500"/>
      <g id="Group_125590" data-name="Group 125590" transform="translate(7.881 -2.235)">
        <circle id="Ellipse_11194" data-name="Ellipse 11194" cx="7.5" cy="7.5" r="7.5" transform="translate(3622.164 -1012.765)" fill="#b58500"/>
        <path id="Path_131565" data-name="Path 131565" d="M7.5,0C11.642,0,18,3.358,18,7.5l-3,45a7.5,7.5,0,0,1-15,0l-3-45C-3,3.358,3.358,0,7.5,0Z" transform="translate(3622.164 -1081.765)" fill="#b58500"/>
      </g>
    </g>
    <g id="Group_125587" data-name="Group 125587" transform="translate(-0.195)">
      <g id="Group_125591" data-name="Group 125591">
        <path id="Path_131551" data-name="Path 131551" d="M1894.707,1141.485h-17.471a7.553,7.553,0,0,1-7.553-7.553v-13.394a7.532,7.532,0,0,1,2.653-5.746h0a7.519,7.519,0,0,1,4.9-1.8h17.471Z" transform="translate(1778.374 -2020.826)" fill="#286140"/>
        <path id="Path_131552" data-name="Path 131552" d="M2014.44,1100.612h-34.9a9.76,9.76,0,0,1-9.759-9.761V1052.1a9.759,9.759,0,0,1,9.759-9.758h34.9Z" transform="translate(1699.338 -1965.067)" fill="#30744d"/>
        <path id="Path_131553" data-name="Path 131553" d="M2189.393,1021.077v65.209a1.281,1.281,0,0,1-1.281,1.281h-5.121a1.281,1.281,0,0,1-1.281-1.281v-65.209a1.281,1.281,0,0,1,1.281-1.281h5.121a1.281,1.281,0,0,1,1.281,1.281" transform="translate(1532.07 -1947.272)" fill="#286140"/>
        <path id="Path_131554" data-name="Path 131554" d="M2218.172,1101.908v-9.931h23.75a4.965,4.965,0,1,1,0,9.931Z" transform="translate(1503.29 -2004.243)" fill="#286140"/>
        <path id="Path_131555" data-name="Path 131555" d="M2218.172,1232.033V1222.1h23.75a4.965,4.965,0,1,1,0,9.931Z" transform="translate(1503.29 -2106.948)" fill="#286140"/>
        <path id="Path_131556" data-name="Path 131556" d="M2014.44,1100.612h-34.9a9.76,9.76,0,0,1-9.759-9.761V1052.1a9.759,9.759,0,0,1,9.759-9.758c2.907,41.842,34.9,45.686,34.9,45.686Z" transform="translate(1699.338 -1965.067)" fill="#286140"/>
        <rect id="Rectangle_15727" data-name="Rectangle 15727" width="2.814" height="58.27" transform="translate(3710.964 -922.725)" fill="#205034"/>
        <path id="Path_131557" data-name="Path 131557" d="M1999.69,1180.416h-20.148a9.759,9.759,0,0,1-9.759-9.761v-27.2c0,27.471,29.907,36.964,29.907,36.964" transform="translate(1699.338 -2044.871)" fill="#205034"/>
        <rect id="Rectangle_15728" data-name="Rectangle 15728" width="1.824" height="28.496" transform="translate(3667.297 -907.838)" fill="#205034"/>
        <rect id="Rectangle_15729" data-name="Rectangle 15729" width="3.477" height="9.931" transform="translate(3721.462 -912.266)" fill="#205034"/>
        <rect id="Rectangle_15730" data-name="Rectangle 15730" width="3.477" height="9.931" transform="translate(3721.462 -884.846)" fill="#205034"/>
        <path id="Path_131558" data-name="Path 131558" d="M1890.776,1148.244h-13.54a7.553,7.553,0,0,1-7.553-7.553V1127.3a7.532,7.532,0,0,1,2.653-5.746h0c-2.561,20.876,18.438,24.064,18.438,24.064Z" transform="translate(1778.375 -2027.585)" fill="#205034"/>
        <rect id="Rectangle_15733" data-name="Rectangle 15733" width="320" height="8.768" transform="translate(3328.178 -897.974)" fill="#286140"/>
      </g>
      <g id="Group_125592" data-name="Group 125592">
        <path id="Path_131559" data-name="Path 131559" d="M2970.93,1141.485H2988.4a7.553,7.553,0,0,0,7.553-7.553v-13.394a7.533,7.533,0,0,0-2.653-5.746h0a7.519,7.519,0,0,0-4.9-1.8H2970.93Z" transform="translate(909.305 -2020.826)" fill="#286140"/>
        <path id="Path_131560" data-name="Path 131560" d="M2777.658,1100.612h34.9a9.76,9.76,0,0,0,9.759-9.761V1052.1a9.759,9.759,0,0,0-9.759-9.758h-34.9Z" transform="translate(1061.851 -1965.067)" fill="#30744d"/>
        <path id="Path_131561" data-name="Path 131561" d="M2741.2,1021.077v65.209a1.281,1.281,0,0,0,1.281,1.281h5.121a1.281,1.281,0,0,0,1.281-1.281v-65.209a1.281,1.281,0,0,0-1.281-1.281h-5.121a1.281,1.281,0,0,0-1.281,1.281" transform="translate(1090.63 -1947.272)" fill="#286140"/>
        <path id="Path_131562" data-name="Path 131562" d="M2777.658,1100.612h34.9a9.76,9.76,0,0,0,9.759-9.761V1052.1a9.759,9.759,0,0,0-9.759-9.758c-2.907,41.842-34.9,45.686-34.9,45.686Z" transform="translate(1061.851 -1965.067)" fill="#286140"/>
        <rect id="Rectangle_15731" data-name="Rectangle 15731" width="2.814" height="58.27" transform="translate(3839.509 -922.725)" fill="#205034"/>
        <path id="Path_131563" data-name="Path 131563" d="M2847.659,1180.416h20.148a9.759,9.759,0,0,0,9.759-9.761v-27.2c0,27.471-29.907,36.964-29.907,36.964" transform="translate(1006.601 -2044.871)" fill="#205034"/>
        <rect id="Rectangle_15732" data-name="Rectangle 15732" width="1.824" height="28.496" transform="translate(3884.167 -907.838)" fill="#205034"/>
        <path id="Path_131564" data-name="Path 131564" d="M2989.585,1148.244h13.54a7.553,7.553,0,0,0,7.553-7.553V1127.3a7.532,7.532,0,0,0-2.653-5.746h0c2.561,20.876-18.438,24.064-18.438,24.064Z" transform="translate(894.581 -2027.585)" fill="#205034"/>
        <rect id="Rectangle_15734" data-name="Rectangle 15734" width="348.57" height="8.768" transform="translate(3905.26 -897.072)" fill="#286140"/>
      </g>
    </g>
  </g>
</svg>
