<svg xmlns="http://www.w3.org/2000/svg" width="619.807" height="342.767" viewBox="0 0 619.807 342.767">
  <g id="under-construction" transform="translate(-182.023 -114.188)">
    <path id="Path_131154" data-name="Path 131154" d="M315.665,303.981a107.019,107.019,0,0,1,13.483,43.671,110.73,110.73,0,0,1-.558,23.484c-.565,4.442,2.044,13.153-5.085,13.3-3.224.068-6.125-1.8-9.188-2.8-6.853-2.255-14.259-.172-21.429.628a119,119,0,0,1-17.24.246c-7.2-.246-14.454-.5-21.438-2.247s-13.766-5.129-18.362-10.671c-3.2-3.858-5.26-9.082-3.94-13.92a16.223,16.223,0,0,1,4.142-6.752,28.114,28.114,0,0,1,9.683-6.583c5.411-2.2,12.442-3.578,14.13-9.17,1.406-4.662-1.961-9.234-4.436-13.426s-3.72-10.535.38-13.162c3.2-2.051,7.724-.338,11.063-2.155,4.512-2.46,3.806-9.028,2.657-14.036q-2.141-9.339-3.361-18.858c-.654-5.117-.344-11.646,4.4-13.67,4.906-2.092,9.989,2.63,12.662,7.245a53.205,53.205,0,0,1,5.812,14.754c.9,3.937,1.4,8.1,3.6,11.5,4.014,6.206,8.143,2.541,13.466,3.676C310.509,295.972,313.436,300.068,315.665,303.981Z" transform="translate(25.094 72.386)" fill="#a9d2c3" opacity="0.37"/>
    <g id="Group_125434" data-name="Group 125434" transform="translate(270.847 340.744)">
      <path id="Path_131155" data-name="Path 131155" d="M320.72,368.043c-.565-1.524-12.348-4.208-14.282-4.936q-7.072-2.665-13.991-5.714c-8.22-3.622-17.9-6.833-25-12.3-1.278-.986-2.616-2.25-2.615-3.864a3.679,3.679,0,0,1,2.766-3.262,8.151,8.151,0,0,1,4.515.252,2.652,2.652,0,0,0,1.7.121,1.693,1.693,0,0,0,.707-2.2,4.486,4.486,0,0,0-1.748-1.827c-5.554-3.819-12.14-5.836-17.988-9.186-5.2-2.983-10.98-8.255-12.038-14.527-1.023-6.068,5.082-10.152,5.566-16.193.371-4.641-2.451-8.839-4.68-12.925s-3.917-9.278-1.439-13.219c3.01-4.787,10.541-4.476,15.02-1.025s6.809,8.91,9.451,13.91c2.108,3.986,5.581,10.234,9.219,13,1.937,1.473,4.8,2.021,6.793.63,1.257-.876,1.958-2.335,3-3.456,3.845-4.121,11.376-2.1,14.419,2.641s2.674,10.9,1.423,16.395c-.541,2.374-1.23,4.821-.735,7.207s2.66,4.641,5.064,4.249c1.5-.243,2.749-1.432,4.264-1.521,1.8-.105,3.35,1.438,3.9,3.153a13.678,13.678,0,0,1,.193,5.359C313,342.862,315.9,355.062,320.72,368.043Z" transform="translate(-240.958 -264.654)" fill="none" stroke="#679b86" stroke-miterlimit="10" stroke-width="1"/>
      <path id="Path_131156" data-name="Path 131156" d="M246.483,270.4a162.663,162.663,0,0,0,18.433,39.177c.1.5.2,1,.291,1.507a.579.579,0,0,0,.927.3c.44.66.879,1.322,1.331,1.976-6.787-4.826-13.575-9.24-19.2-15.619a.4.4,0,0,0-.615.523c5.946,6.928,12.886,14.066,21.506,17.578.014.006.024,0,.038,0,9.274,12.978,20.734,25.964,34.17,34.619.576.371,1.4-.439.844-.94-6.169-5.6-12.22-11.1-17.956-16.894a79.956,79.956,0,0,0-7.745-34.521c-.136-.283-.639-.142-.541.176a195.076,195.076,0,0,1,7.09,33.1,153.16,153.16,0,0,1-14.546-17.053c-1.512-2.089-2.958-4.223-4.377-6.38-.728-9.557-4.439-18.984-9.148-27.169-.194-.338-.726-.1-.553.264,3.685,7.587,5.771,15.372,7.46,23.424a173.878,173.878,0,0,1-16.523-34.362C247.193,269.617,246.32,269.9,246.483,270.4Z" transform="translate(-238.167 -262.017)" fill="#a9d2c3" opacity="0.37"/>
    </g>
    <g id="Group_125435" data-name="Group 125435" transform="translate(300.705 274.738)">
      <path id="Path_131157" data-name="Path 131157" d="M290.742,316.748A163.682,163.682,0,0,1,269,244.829c-.423-6.531-.458-13.254,1.762-19.409" transform="translate(-256.707 -218.546)" fill="none" stroke="#679b86" stroke-linecap="round" stroke-linejoin="round" stroke-width="1"/>
      <path id="Path_131158" data-name="Path 131158" d="M268.351,243.122l4.065-11.545c1.144-3.249,2.273-6.915.791-10.026a1.165,1.165,0,0,0-.58-.654c-.413-.148-.844.155-1.158.461-2.52,2.451-3.421,6.172-3.337,9.685s-.149,8.687.5,12.142" transform="translate(-257.037 -220.859)" fill="none" stroke="#679b86" stroke-linecap="round" stroke-linejoin="round" stroke-width="1"/>
      <path id="Path_131159" data-name="Path 131159" d="M273.336,251.679a29.258,29.258,0,0,1-12.095-12.826,2.651,2.651,0,0,1-.249-2.476c.558-.894,1.9-.835,2.856-.387a10.27,10.27,0,0,1,3.792,3.759,73.139,73.139,0,0,1,6.081,10.681" transform="translate(-260.769 -213.347)" fill="none" stroke="#679b86" stroke-linecap="round" stroke-linejoin="round" stroke-width="1"/>
      <path id="Path_131160" data-name="Path 131160" d="M275.7,262.905a30.617,30.617,0,0,1-12.66-13.426,2.777,2.777,0,0,1-.261-2.594c.583-.934,1.992-.874,2.989-.4a10.764,10.764,0,0,1,3.97,3.934A76.692,76.692,0,0,1,276.1,261.6" transform="translate(-259.869 -208.034)" fill="none" stroke="#679b86" stroke-linecap="round" stroke-linejoin="round" stroke-width="1"/>
      <path id="Path_131161" data-name="Path 131161" d="M281.344,273.971a30.631,30.631,0,0,1-16.274-8.7A2.776,2.776,0,0,1,264,262.9c.256-1.072,1.611-1.463,2.705-1.335a10.784,10.784,0,0,1,5.016,2.467,76.725,76.725,0,0,1,9.592,8.576" transform="translate(-259.152 -200.23)" fill="none" stroke="#679b86" stroke-linecap="round" stroke-linejoin="round" stroke-width="1"/>
      <path id="Path_131162" data-name="Path 131162" d="M269.382,245.288a26.012,26.012,0,0,0,7.843-13.572,2.355,2.355,0,0,0-.291-2.194c-.665-.659-1.818-.335-2.55.249a9.155,9.155,0,0,0-2.514,4.029,65.135,65.135,0,0,0-3.078,10.487" transform="translate(-256.699 -216.651)" fill="none" stroke="#679b86" stroke-linecap="round" stroke-linejoin="round" stroke-width="1"/>
      <path id="Path_131163" data-name="Path 131163" d="M271.082,257.069a31.06,31.06,0,0,0,9.364-16.2,2.814,2.814,0,0,0-.348-2.619c-.794-.787-2.17-.4-3.044.3a10.923,10.923,0,0,0-3,4.809,77.818,77.818,0,0,0-3.674,12.52" transform="translate(-255.895 -212.262)" fill="none" stroke="#679b86" stroke-linecap="round" stroke-linejoin="round" stroke-width="1"/>
      <path id="Path_131164" data-name="Path 131164" d="M274.008,268.781a31.038,31.038,0,0,0,9.364-16.2,2.814,2.814,0,0,0-.347-2.619c-.794-.787-2.17-.4-3.046.3a10.912,10.912,0,0,0-3,4.809,77.691,77.691,0,0,0-3.674,12.518" transform="translate(-254.41 -206.323)" fill="none" stroke="#679b86" stroke-linecap="round" stroke-linejoin="round" stroke-width="1"/>
      <path id="Path_131165" data-name="Path 131165" d="M278.214,281.108a31.039,31.039,0,0,0,9.364-16.2,2.814,2.814,0,0,0-.347-2.619c-.794-.787-2.17-.4-3.046.3a10.941,10.941,0,0,0-3,4.809,77.659,77.659,0,0,0-3.674,12.52" transform="translate(-252.277 -200.07)" fill="none" stroke="#679b86" stroke-linecap="round" stroke-linejoin="round" stroke-width="1"/>
    </g>
    <path id="Path_131166" data-name="Path 131166" d="M459.553,303.981a98.465,98.465,0,0,0-14.335,67.156c.625,4.442-2.265,13.153,5.64,13.3,3.575.068,6.793-1.8,10.188-2.8,7.6-2.255,15.815-.172,23.766.628a146.309,146.309,0,0,0,19.12.246c7.979-.246,16.029-.5,23.774-2.247s15.268-5.129,20.365-10.671c3.549-3.858,5.833-9.082,4.368-13.92a16.038,16.038,0,0,0-4.592-6.752,31.529,31.529,0,0,0-10.74-6.583c-6-2.2-13.8-3.578-15.67-9.17-1.56-4.662,2.175-9.234,4.919-13.426s4.125-10.535-.42-13.162c-3.551-2.051-8.567-.338-12.268-2.155-5.005-2.46-4.222-9.028-2.948-14.036a178.4,178.4,0,0,0,3.727-18.858c.726-5.117.381-11.646-4.88-13.67-5.441-2.092-11.078,2.63-14.042,7.245a50.242,50.242,0,0,0-6.445,14.754c-1,3.937-1.558,8.1-3.989,11.5-4.452,6.206-9.031,2.541-14.934,3.676C465.271,295.972,462.025,300.068,459.553,303.981Z" transform="translate(132.953 72.386)" fill="#a9d2c3" opacity="0.37"/>
    <g id="Group_125436" data-name="Group 125436" transform="translate(588.162 325.304)">
      <path id="Path_131167" data-name="Path 131167" d="M451.5,360.328c.58-1.561,12.651-4.31,14.631-5.058q7.246-2.729,14.333-5.852c8.422-3.711,18.342-7,25.616-12.606,1.31-1.01,2.68-2.3,2.68-3.958a3.769,3.769,0,0,0-2.833-3.341,8.361,8.361,0,0,0-4.625.256,2.721,2.721,0,0,1-1.738.125,1.732,1.732,0,0,1-.723-2.249,4.576,4.576,0,0,1,1.79-1.872c5.69-3.913,12.436-5.98,18.427-9.412,5.331-3.055,11.249-8.457,12.333-14.883,1.049-6.216-5.207-10.4-5.7-16.589-.38-4.754,2.509-9.055,4.794-13.24s4.014-9.5,1.474-13.542c-3.084-4.9-10.8-4.586-15.388-1.052s-6.975,9.129-9.683,14.25c-2.158,4.084-5.717,10.484-9.444,13.319-1.983,1.507-4.913,2.071-6.959.645-1.287-.9-2.006-2.393-3.078-3.54-3.938-4.222-11.655-2.157-14.77,2.705s-2.74,11.165-1.459,16.794c.555,2.433,1.26,4.94.754,7.384s-2.725,4.755-5.188,4.354c-1.536-.249-2.815-1.468-4.368-1.558-1.842-.109-3.433,1.474-4,3.23a14,14,0,0,0-.2,5.491C459.408,334.53,456.433,347.031,451.5,360.328Z" transform="translate(-451.497 -254.41)" fill="none" stroke="#679b86" stroke-miterlimit="10" stroke-width="1"/>
      <path id="Path_131168" data-name="Path 131168" d="M520.024,260.3a166.646,166.646,0,0,1-18.883,40.136c-.1.515-.2,1.026-.3,1.543a.593.593,0,0,1-.95.309c-.451.675-.9,1.353-1.362,2.024,6.951-4.943,13.907-9.465,19.668-16a.413.413,0,0,1,.63.535c-6.09,7.1-13.2,14.41-22.032,18.009-.015.006-.024,0-.038,0-9.5,13.3-21.242,26.6-35.007,35.466-.589.38-1.433-.451-.865-.965,6.319-5.739,12.52-11.367,18.395-17.307a81.924,81.924,0,0,1,7.935-35.365c.139-.291.656-.146.555.181a199.855,199.855,0,0,0-7.263,33.913,156.818,156.818,0,0,0,14.9-17.471c1.548-2.14,3.031-4.327,4.484-6.537.746-9.79,4.549-19.448,9.372-27.833.2-.347.745-.1.567.27-3.774,7.772-5.913,15.747-7.643,24A178.164,178.164,0,0,0,519.118,260C519.3,259.494,520.189,259.781,520.024,260.3Z" transform="translate(-446.83 -251.709)" fill="#a9d2c3" opacity="0.37"/>
    </g>
    <g id="Group_125437" data-name="Group 125437" transform="translate(607.734 396.808)">
      <path id="Path_131169" data-name="Path 131169" d="M464.483,340.339a163.666,163.666,0,0,0,71.542-22.948c5.616-3.359,11.17-7.148,14.975-12.473" transform="translate(-464.483 -300.298)" fill="none" stroke="#679b86" stroke-linecap="round" stroke-linejoin="round" stroke-width="1"/>
      <path id="Path_131170" data-name="Path 131170" d="M514.743,316.843l7.971-9.287c2.244-2.615,4.856-5.424,8.291-5.694a1.165,1.165,0,0,1,.856.178,1.215,1.215,0,0,1,.179,1.233c-.865,3.406-3.64,6.047-6.725,7.727s-7.451,4.469-10.769,5.632" transform="translate(-439.093 -301.853)" fill="none" stroke="#679b86" stroke-linecap="round" stroke-linejoin="round" stroke-width="1"/>
      <path id="Path_131171" data-name="Path 131171" d="M505.269,318.289a29.257,29.257,0,0,0,17.424,2.672,2.656,2.656,0,0,0,2.181-1.2c.418-.966-.395-2.041-1.3-2.571a10.308,10.308,0,0,0-5.248-.986,73.3,73.3,0,0,0-12.246,1.06" transform="translate(-443.798 -294.576)" fill="none" stroke="#679b86" stroke-linecap="round" stroke-linejoin="round" stroke-width="1"/>
      <path id="Path_131172" data-name="Path 131172" d="M495.007,322.772a30.608,30.608,0,0,0,18.24,2.8,2.774,2.774,0,0,0,2.283-1.258c.439-1.011-.411-2.136-1.365-2.69a10.767,10.767,0,0,0-5.492-1.032,76.6,76.6,0,0,0-12.818,1.109" transform="translate(-449.003 -292.351)" fill="none" stroke="#679b86" stroke-linecap="round" stroke-linejoin="round" stroke-width="1"/>
      <path id="Path_131173" data-name="Path 131173" d="M482.3,325.925a30.609,30.609,0,0,0,16.4,8.454,2.773,2.773,0,0,0,2.564-.466c.738-.82.289-2.157-.437-2.986a10.78,10.78,0,0,0-4.879-2.726,76.826,76.826,0,0,0-12.5-3.026" transform="translate(-455.445 -290.026)" fill="none" stroke="#679b86" stroke-linecap="round" stroke-linejoin="round" stroke-width="1"/>
      <path id="Path_131174" data-name="Path 131174" d="M509.91,318.738a26.009,26.009,0,0,1,6.717-14.163,2.357,2.357,0,0,1,1.971-1.007c.921.173,1.307,1.307,1.243,2.241a9.153,9.153,0,0,1-1.888,4.356,65.094,65.094,0,0,1-6.885,8.49" transform="translate(-441.444 -300.994)" fill="none" stroke="#679b86" stroke-linecap="round" stroke-linejoin="round" stroke-width="1"/>
      <path id="Path_131175" data-name="Path 131175" d="M500.745,324.7a31.048,31.048,0,0,1,8.02-16.909,2.817,2.817,0,0,1,2.354-1.2c1.1.207,1.56,1.56,1.483,2.675a10.921,10.921,0,0,1-2.255,5.2A77.992,77.992,0,0,1,502.13,324.6" transform="translate(-446.092 -299.464)" fill="none" stroke="#679b86" stroke-linecap="round" stroke-linejoin="round" stroke-width="1"/>
      <path id="Path_131176" data-name="Path 131176" d="M489.443,328.94a31.057,31.057,0,0,1,8.018-16.909,2.819,2.819,0,0,1,2.354-1.2c1.1.206,1.56,1.56,1.484,2.675a10.934,10.934,0,0,1-2.255,5.2,77.872,77.872,0,0,1-8.219,10.134" transform="translate(-451.824 -297.313)" fill="none" stroke="#679b86" stroke-linecap="round" stroke-linejoin="round" stroke-width="1"/>
      <path id="Path_131177" data-name="Path 131177" d="M476.907,332.479a31.043,31.043,0,0,1,8.02-16.909,2.815,2.815,0,0,1,2.354-1.2c1.1.206,1.56,1.561,1.483,2.677a10.909,10.909,0,0,1-2.255,5.2,77.8,77.8,0,0,1-8.217,10.134" transform="translate(-458.182 -295.519)" fill="none" stroke="#679b86" stroke-linecap="round" stroke-linejoin="round" stroke-width="1"/>
    </g>
    <path id="Path_131178" data-name="Path 131178" d="M488.625,209.166h-7.346a45.581,45.581,0,0,0-6.5-15.717l5.191-5.191a3.1,3.1,0,0,0,0-4.381l-8.931-8.931a3.1,3.1,0,0,0-4.381,0l-5.162,5.162a45.62,45.62,0,0,0-15.744-6.562v-7.258a3.1,3.1,0,0,0-3.1-3.1h-12.63a3.1,3.1,0,0,0-3.1,3.1v7.255a45.556,45.556,0,0,0-15.748,6.562l-5.157-5.159a3.1,3.1,0,0,0-4.381,0l-8.931,8.931a3.1,3.1,0,0,0,0,4.381l5.188,5.188a45.582,45.582,0,0,0-6.5,15.72h-7.344a3.1,3.1,0,0,0-3.1,3.1v12.63a3.1,3.1,0,0,0,3.1,3.1h7.4a45.613,45.613,0,0,0,6.527,15.638L392.7,248.9a3.1,3.1,0,0,0,0,4.381l8.931,8.931a3.1,3.1,0,0,0,4.381,0l5.292-5.292a45.568,45.568,0,0,0,15.614,6.481v7.469a3.1,3.1,0,0,0,3.1,3.1h12.63a3.1,3.1,0,0,0,3.1-3.1V263.4a45.593,45.593,0,0,0,15.611-6.481l5.295,5.3a3.1,3.1,0,0,0,4.381,0l8.931-8.931a3.1,3.1,0,0,0,0-4.381l-5.272-5.272a45.586,45.586,0,0,0,6.531-15.635h7.4a3.1,3.1,0,0,0,3.1-3.1v-12.63A3.1,3.1,0,0,0,488.625,209.166Zm-69.295,26.3a24.045,24.045,0,1,1,34,0A24.042,24.042,0,0,1,419.331,235.466Zm5.423-28.58a16.4,16.4,0,0,1,23.159,0" transform="translate(100.883 24.631)" fill="none" stroke="#679b86" stroke-miterlimit="10" stroke-width="1"/>
    <g id="Group_125438" data-name="Group 125438" transform="translate(585.924 247.642)">
      <path id="Path_131179" data-name="Path 131179" d="M525.643,235.173h-5.159a32.057,32.057,0,0,0-4.568-11.038l3.644-3.646a2.174,2.174,0,0,0,0-3.076l-6.273-6.273a2.176,2.176,0,0,0-3.078,0l-3.625,3.625a32.064,32.064,0,0,0-11.058-4.609v-5.1a2.176,2.176,0,0,0-2.176-2.176h-8.871a2.177,2.177,0,0,0-2.176,2.176v5.1a31.988,31.988,0,0,0-11.06,4.609l-3.623-3.622a2.176,2.176,0,0,0-3.078,0l-6.273,6.273a2.174,2.174,0,0,0,0,3.076l3.643,3.644a32.092,32.092,0,0,0-4.567,11.04h-5.157a2.175,2.175,0,0,0-2.176,2.176v8.871a2.176,2.176,0,0,0,2.176,2.176h5.2a32.054,32.054,0,0,0,4.585,10.983l-3.7,3.7a2.176,2.176,0,0,0,0,3.078l6.273,6.273a2.176,2.176,0,0,0,3.078,0l3.717-3.717a32.007,32.007,0,0,0,10.966,4.552v5.246a2.176,2.176,0,0,0,2.176,2.176h8.871a2.175,2.175,0,0,0,2.176-2.176v-5.249a32.012,32.012,0,0,0,10.965-4.552l3.718,3.72a2.176,2.176,0,0,0,3.078,0l6.273-6.273a2.176,2.176,0,0,0,0-3.078l-3.7-3.7a32.043,32.043,0,0,0,4.586-10.98h5.2a2.177,2.177,0,0,0,2.176-2.176V237.35A2.176,2.176,0,0,0,525.643,235.173Zm-48.669,18.472a16.888,16.888,0,1,1,23.884,0A16.886,16.886,0,0,1,476.974,253.645Z" transform="translate(-450.012 -202.881)" fill="none" stroke="#679b86" stroke-miterlimit="10" stroke-width="1"/>
      <path id="Path_131180" data-name="Path 131180" d="M478.447,237.094a10.985,10.985,0,0,1-7.8-3.23" transform="translate(-439.544 -187.168)" fill="none" stroke="#679b86" stroke-miterlimit="10" stroke-width="1"/>
      <path id="Path_131181" data-name="Path 131181" d="M470.652,224.6a11.025,11.025,0,0,1,18.743,9.1" transform="translate(-439.544 -193.499)" fill="none" stroke="#679b86" stroke-miterlimit="10" stroke-width="1"/>
    </g>
    <g id="Group_125439" data-name="Group 125439" transform="translate(300.469 251.733)">
      <path id="Path_131182" data-name="Path 131182" d="M430.928,205.6H551a9.877,9.877,0,0,1,9.878,9.878V396.063H282.206V214.387A8.79,8.79,0,0,1,291,205.6H415.051" transform="translate(-249.66 -205.596)" fill="none" stroke="#679b86" stroke-miterlimit="10" stroke-width="1"/>
      <g id="Path_131183" data-name="Path 131183" transform="translate(-260.612 -141.504)" fill="none" stroke-miterlimit="10">
        <path d="M604.375,331.971H260.612a12.514,12.514,0,0,0,12.512,12.514H591.861a12.515,12.515,0,0,0,12.514-12.514Z" stroke="none"/>
        <path d="M 260.6119995117188 331.9709777832031 C 260.6119995117188 338.8812866210938 266.214111328125 344.4848937988281 273.1244506835938 344.4848937988281 L 591.86083984375 344.4848937988281 C 598.771240234375 344.4848937988281 604.374755859375 338.8812866210938 604.374755859375 331.9709777832031 L 260.6119995117188 331.9709777832031 M 259.6119995117188 330.9709777832031 L 605.374755859375 330.9709777832031 L 605.374755859375 331.9709777832031 C 605.374755859375 335.5802612304688 603.9689331054688 338.9737548828125 601.416259765625 341.5263977050781 C 598.8636474609375 344.0790710449219 595.4700927734375 345.4848937988281 591.86083984375 345.4848937988281 L 273.1244506835938 345.4848937988281 C 269.5152587890625 345.4848937988281 266.1219482421875 344.0790710449219 263.5697021484375 341.5263366699219 C 261.017578125 338.9737854003906 259.6119995117188 335.5802917480469 259.6119995117188 331.9709777832031 L 259.6119995117188 330.9709777832031 Z" stroke="none" fill="#679b86"/>
      </g>
      <path id="Rectangle_15669" data-name="Rectangle 15669" d="M0,0H73.552a0,0,0,0,1,0,0V5.178a2.486,2.486,0,0,1-2.486,2.486H2.486A2.486,2.486,0,0,1,0,5.177V0A0,0,0,0,1,0,0Z" transform="translate(135.105 190.467)" fill="#a9d2c3" opacity="0.37"/>
      <path id="Path_131184" data-name="Path 131184" d="M548.994,214.148V373.511a3.456,3.456,0,0,1-3.534,3.375H291.639a3.456,3.456,0,0,1-3.534-3.375V214.148a3.456,3.456,0,0,1,3.534-3.375h253.82A3.456,3.456,0,0,1,548.994,214.148Z" transform="translate(-246.669 -202.97)" fill="#679b86" stroke="#fff" stroke-miterlimit="10" stroke-width="1"/>
      <g id="Path_131185" data-name="Path 131185" transform="translate(-246.669 -202.97)" fill="#fff" stroke-miterlimit="10">
        <path d="M 548.5637817382812 222.2948455810547 L 288.534912109375 222.2948455810547 L 288.534912109375 214.3253936767578 C 288.534912109375 212.6036529541016 289.9275207519531 211.2029266357422 291.6392822265625 211.2029266357422 L 545.4594116210938 211.2029266357422 C 547.1712036132812 211.2029266357422 548.5637817382812 212.6036529541016 548.5637817382812 214.3253936767578 L 548.5637817382812 222.2948455810547 Z" stroke="none"/>
        <path d="M 291.6392822265625 211.6327819824219 C 290.16455078125 211.6327819824219 288.9647827148438 212.8406677246094 288.9647827148438 214.3253936767578 L 288.9647827148438 221.864990234375 L 548.1339111328125 221.864990234375 L 548.1339111328125 214.3253936767578 C 548.1339111328125 212.8406677246094 546.9341430664062 211.6327819824219 545.4594116210938 211.6327819824219 L 291.6392822265625 211.6327819824219 M 291.6392822265625 210.7729949951172 L 545.4594116210938 210.7729949951172 C 547.408203125 210.7729949951172 548.9937133789062 212.3585357666016 548.9937133789062 214.3253936767578 L 548.9937133789062 222.7247772216797 L 288.10498046875 222.7247772216797 L 288.10498046875 214.3253936767578 C 288.10498046875 212.3585357666016 289.6905517578125 210.7729949951172 291.6392822265625 210.7729949951172 Z" stroke="none" fill="#679b86"/>
      </g>
      <g id="Group_125476" data-name="Group 125476" transform="translate(0.001)">
        <path id="Path_131242" data-name="Path 131242" d="M-139.62-5.58l16.14-34.56a24.222,24.222,0,0,1,4.59,1.05,14.774,14.774,0,0,1,4.35,2.37l-10.92,24.06h5.94v-6.72a17.168,17.168,0,0,1,2.55-.39q1.23-.09,2.43-.09,1.14,0,2.37.09a15.682,15.682,0,0,1,2.49.39v6.72h3.18a19.767,19.767,0,0,1,.54,4.44,19.767,19.767,0,0,1-.54,4.44h-3.18V3.3a15.682,15.682,0,0,1-2.49.39q-1.23.09-2.37.09-1.2,0-2.43-.09a17.168,17.168,0,0,1-2.55-.39V-3.78H-138.6ZM-86.4.72A14.888,14.888,0,0,1-93.36-.81a13.308,13.308,0,0,1-4.83-4.23,19.24,19.24,0,0,1-2.82-6.36,32.356,32.356,0,0,1-.93-7.98,32.1,32.1,0,0,1,.96-8.04,19.622,19.622,0,0,1,2.88-6.45,13.656,13.656,0,0,1,4.89-4.29,14.968,14.968,0,0,1,7.05-1.56,14.651,14.651,0,0,1,6.96,1.56,13.731,13.731,0,0,1,4.86,4.29,18.757,18.757,0,0,1,2.82,6.45,34.137,34.137,0,0,1,.9,8.04,31.4,31.4,0,0,1-.96,7.98,19.32,19.32,0,0,1-2.88,6.36A13.427,13.427,0,0,1-79.38-.81,15.257,15.257,0,0,1-86.4.72Zm.12-8.88q2.28,0,3.6-2.82t1.32-8.4q0-5.64-1.32-8.46t-3.6-2.82q-2.4,0-3.72,2.82t-1.32,8.46q0,5.58,1.35,8.4T-86.28-8.16Zm18.96,2.58,16.14-34.56a24.222,24.222,0,0,1,4.59,1.05,14.774,14.774,0,0,1,4.35,2.37L-53.16-12.66h5.94v-6.72a17.168,17.168,0,0,1,2.55-.39q1.23-.09,2.43-.09,1.14,0,2.37.09a15.682,15.682,0,0,1,2.49.39v6.72h3.18a19.767,19.767,0,0,1,.54,4.44,19.767,19.767,0,0,1-.54,4.44h-3.18V3.3a15.682,15.682,0,0,1-2.49.39q-1.23.09-2.37.09-1.2,0-2.43-.09a17.168,17.168,0,0,1-2.55-.39V-3.78H-66.3Z" transform="translate(243.49 120.487)" fill="#fff"/>
        <path id="Path_131243" data-name="Path 131243" d="M-14.424-43.14a14.88,14.88,0,0,1,2.221-.3q1.075-.06,2.03-.06t2.007.06a16.071,16.071,0,0,1,2.245.3l-.43,28a18.979,18.979,0,0,1-2.1.421,13.129,13.129,0,0,1-1.72.12,17.748,17.748,0,0,1-3.822-.541Zm.239,42.079q-.143-1.382-.239-2.644a11.336,11.336,0,0,1-.1-1.4,10.637,10.637,0,0,1,.1-1.373q.1-1.232.239-2.614,1.1-.24,2.078-.36a15.877,15.877,0,0,1,1.935-.12,15.877,15.877,0,0,1,1.935.12q.979.12,2.078.36.143,1.382.239,2.614a10.637,10.637,0,0,1,.1,1.373,11.337,11.337,0,0,1-.1,1.4q-.1,1.262-.239,2.644-1.1.24-2.078.36a15.877,15.877,0,0,1-1.935.12A15.877,15.877,0,0,1-12.107-.7Q-13.087-.82-14.186-1.06Z" transform="translate(241.2 123.847)" fill="#fff"/>
      </g>
    </g>
    <rect id="Rectangle_15670" data-name="Rectangle 15670" width="580.653" height="2.536" transform="translate(182.023 454.419)" fill="#679b86"/>
    <path id="Path_131230" data-name="Path 131230" d="M295.887,215.45a2,2,0,1,1-2-2A2,2,0,0,1,295.887,215.45Z" transform="translate(55.722 50.123)" fill="#679b86"/>
    <path id="Path_131231" data-name="Path 131231" d="M301.7,215.45a2,2,0,1,1-2-2A2,2,0,0,1,301.7,215.45Z" transform="translate(58.67 50.123)" fill="#679b86"/>
    <path id="Path_131232" data-name="Path 131232" d="M307.509,215.45a2,2,0,1,1-2-2A2,2,0,0,1,307.509,215.45Z" transform="translate(61.617 50.123)" fill="#679b86"/>
    <g id="Group_125459" data-name="Group 125459" transform="translate(235.643 399.313)">
      <g id="Group_125458" data-name="Group 125458" transform="translate(0 0)">
        <g id="Group_125457" data-name="Group 125457">
          <path id="Path_131233" data-name="Path 131233" d="M260.127,351.717H220.612l.309-.838,2.915-7.944,3.189-8.726,3.37-9.182,3.188-8.726,3.953-10.8a3.017,3.017,0,0,1,5.667,0l3.953,10.8,3.188,8.726,3.39,9.236,3.188,8.708,2.9,7.908Z" transform="translate(-216.072 -303.515)" fill="none" stroke="#679b86" stroke-miterlimit="10" stroke-width="1"/>
          <rect id="Rectangle_15688" data-name="Rectangle 15688" width="48.596" height="7.107" rx="1.538" transform="translate(0 47.37)" fill="none" stroke="#679b86" stroke-miterlimit="10" stroke-width="1"/>
        </g>
      </g>
      <path id="Path_131234" data-name="Path 131234" d="M247.052,320.724H227.1L230.291,312h13.573Z" transform="translate(-212.78 -299.213)" fill="#679b86"/>
      <path id="Path_131235" data-name="Path 131235" d="M255.836,332.643l-33.085-.036,3.188-8.727,26.708.055Z" transform="translate(-214.987 -293.187)" fill="#679b86"/>
    </g>
    <g id="Group_125462" data-name="Group 125462" transform="translate(691.606 399.313)">
      <g id="Group_125461" data-name="Group 125461" transform="translate(0 0)">
        <g id="Group_125460" data-name="Group 125460">
          <path id="Path_131236" data-name="Path 131236" d="M562.66,351.717H523.144l.309-.838,2.915-7.944,3.189-8.726,3.37-9.182,3.188-8.726,3.953-10.8a3.017,3.017,0,0,1,5.667,0l3.953,10.8,3.188,8.726,3.39,9.236,3.188,8.708,2.9,7.908Z" transform="translate(-518.604 -303.515)" fill="none" stroke="#679b86" stroke-miterlimit="10" stroke-width="1"/>
          <rect id="Rectangle_15689" data-name="Rectangle 15689" width="48.595" height="7.107" rx="1.538" transform="translate(0 47.37)" fill="none" stroke="#679b86" stroke-miterlimit="10" stroke-width="1"/>
        </g>
      </g>
      <path id="Path_131237" data-name="Path 131237" d="M549.584,320.724H529.635L532.823,312H546.4Z" transform="translate(-515.313 -299.213)" fill="#679b86"/>
      <path id="Path_131238" data-name="Path 131238" d="M558.368,332.643l-33.085-.036,3.188-8.727,26.708.055Z" transform="translate(-517.52 -293.187)" fill="#679b86"/>
    </g>
    <g id="Group_125463" data-name="Group 125463" transform="translate(370.365 293.322)">
      <line id="Line_8627" data-name="Line 8627" x2="58.892" transform="translate(0 7.332)" fill="#fff" stroke="#457861" stroke-linecap="round" stroke-linejoin="round" stroke-width="1"/>
      <line id="Line_8628" data-name="Line 8628" x2="58.892" transform="translate(18.855 0)" fill="#fff" stroke="#457861" stroke-linecap="round" stroke-linejoin="round" stroke-width="1"/>
    </g>
    <g id="Group_125464" data-name="Group 125464" transform="translate(540.458 310.22)">
      <line id="Line_8629" data-name="Line 8629" x2="36.853" transform="translate(0 7.332)" fill="#fff" stroke="#457861" stroke-linecap="round" stroke-linejoin="round" stroke-width="1"/>
      <line id="Line_8630" data-name="Line 8630" x2="36.853" transform="translate(11.799)" fill="#fff" stroke="#457861" stroke-linecap="round" stroke-linejoin="round" stroke-width="1"/>
    </g>
    <g id="Group_125468" data-name="Group 125468" transform="translate(184.275 114.623)" opacity="0.45">
      <rect id="Rectangle_15690" data-name="Rectangle 15690" width="31.376" height="13.653" transform="translate(250.784)" fill="#fff" stroke="#679b86" stroke-miterlimit="10" stroke-width="0.871"/>
      <rect id="Rectangle_15691" data-name="Rectangle 15691" width="21.77" height="12.486" transform="translate(2.995 149.89)" fill="#fff" stroke="#679b86" stroke-miterlimit="10" stroke-width="0.694"/>
      <rect id="Rectangle_15692" data-name="Rectangle 15692" width="38.631" height="13.6" transform="translate(88.891 66.857)" fill="#fff" stroke="#679b86" stroke-miterlimit="10" stroke-width="0.756"/>
      <rect id="Rectangle_15693" data-name="Rectangle 15693" width="36.132" height="13.6" transform="translate(109.727 80.42)" fill="#fff" stroke="#679b86" stroke-miterlimit="10" stroke-width="0.756"/>
      <rect id="Rectangle_15694" data-name="Rectangle 15694" width="36.132" height="13.6" transform="translate(109.727 53.244)" fill="#fff" stroke="#679b86" stroke-miterlimit="10" stroke-width="0.756"/>
      <rect id="Rectangle_15695" data-name="Rectangle 15695" width="32.261" height="12.143" transform="translate(537.414 101.851)" fill="#fff" stroke="#679b86" stroke-miterlimit="10" stroke-width="0.675"/>
      <rect id="Rectangle_15696" data-name="Rectangle 15696" width="32.261" height="12.143" transform="translate(523.446 89.706)" fill="#fff" stroke="#679b86" stroke-miterlimit="10" stroke-width="0.675"/>
      <rect id="Rectangle_15697" data-name="Rectangle 15697" width="32.261" height="12.143" transform="translate(555.632 89.706)" fill="#fff" stroke="#679b86" stroke-miterlimit="10" stroke-width="0.675"/>
      <rect id="Rectangle_15698" data-name="Rectangle 15698" width="26.714" height="13.479" transform="translate(517.025 204.878)" fill="#fff" stroke="#679b86" stroke-miterlimit="10" stroke-width="0.749"/>
      <rect id="Rectangle_15699" data-name="Rectangle 15699" width="36.868" height="12.486" transform="translate(24.581 168.869)" fill="#fff" stroke="#679b86" stroke-miterlimit="10" stroke-width="0.694"/>
      <g id="Group_125465" data-name="Group 125465" transform="translate(558.663 263.325)">
        <line id="Line_8631" data-name="Line 8631" x2="58.892" fill="#fff" stroke="#679b86" stroke-miterlimit="10" stroke-width="0.694"/>
      </g>
      <g id="Group_125466" data-name="Group 125466" transform="translate(0 236.483)">
        <line id="Line_8632" data-name="Line 8632" x2="36.853" fill="#fff" stroke="#679b86" stroke-miterlimit="10" stroke-width="0.694"/>
      </g>
      <g id="Group_125467" data-name="Group 125467" transform="translate(392.704 52.017)">
        <line id="Line_8633" data-name="Line 8633" x2="36.853" fill="#fff" stroke="#679b86" stroke-miterlimit="10" stroke-width="0.694"/>
      </g>
    </g>
    <g id="Group_125469" data-name="Group 125469" transform="translate(352.152 403.7)">
      <line id="Line_8634" data-name="Line 8634" x2="22.596" transform="translate(0 7.332)" fill="#fff" stroke="#457861" stroke-linecap="round" stroke-linejoin="round" stroke-width="1"/>
      <line id="Line_8635" data-name="Line 8635" x2="22.596" transform="translate(7.235)" fill="#fff" stroke="#457861" stroke-linecap="round" stroke-linejoin="round" stroke-width="1"/>
    </g>
    <g id="Group_125470" data-name="Group 125470" transform="translate(381.559 180.036)">
      <path id="Path_131239" data-name="Path 131239" d="M373.566,213.318H318.754a4.332,4.332,0,0,1-3.735-6.526l11.305-19.236,3.3-5.607,2.662-4.529,10.145-17.26a4.33,4.33,0,0,1,7.466,0L377.3,206.792A4.332,4.332,0,0,1,373.566,213.318Z" transform="translate(-314.415 -158.025)" fill="none" stroke="#679b86" stroke-miterlimit="10" stroke-width="1"/>
      <path id="Path_131240" data-name="Path 131240" d="M341.35,188.894a4.393,4.393,0,1,1-4.393-4.393A4.393,4.393,0,0,1,341.35,188.894Z" transform="translate(-305.212 -144.597)" fill="#cc9c25"/>
      <path id="Path_131241" data-name="Path 131241" d="M341.35,174.136c0,2.427-1.967,14.28-4.393,14.28s-4.393-11.854-4.393-14.28a4.393,4.393,0,0,1,8.787,0Z" transform="translate(-305.212 -152.081)" fill="#cc9c25"/>
    </g>
    <line id="Line_8636" data-name="Line 8636" x1="10.354" y2="17.034" transform="translate(383.787 193.414)" fill="none" stroke="#679b86" stroke-miterlimit="10" stroke-width="1"/>
  </g>
</svg>
