<svg xmlns="http://www.w3.org/2000/svg" width="534" height="367.834" viewBox="0 0 534 367.834">
  <g id="Group_125536" data-name="Group 125536" transform="translate(-323.211 -512.559)">
    <ellipse id="Ellipse_11191" data-name="Ellipse 11191" cx="252" cy="5" rx="252" ry="5" transform="translate(338.211 855.393)" fill="#35351f" opacity="0.48"/>
    <g id="Group_125519" data-name="Group 125519" transform="translate(360.314 580.863)">
      <g id="Group_125518" data-name="Group 125518" transform="translate(0 0)">
        <g id="Group_125507" data-name="Group 125507" transform="translate(41.289)">
          <rect id="Rectangle_15703" data-name="Rectangle 15703" width="377.213" height="235.758" rx="10" fill="#d7e4dc"/>
          <rect id="Rectangle_15704" data-name="Rectangle 15704" width="358.354" height="216.899" transform="translate(9.43 9.431)" fill="#1c342a"/>
        </g>
        <g id="Group_125517" data-name="Group 125517" transform="translate(0 229.166)">
          <g id="Group_125508" data-name="Group 125508">
            <path id="Path_131340" data-name="Path 131340" d="M809.719,1408.038H369.7c-6.823.187-11.828-13.258-8.13-18.637l37.95-20.434a5.984,5.984,0,0,1,3.7-1.265H776.2a5.984,5.984,0,0,1,3.7,1.265l38.809,20.882C822.181,1393.883,819.194,1407.552,809.719,1408.038Z" transform="translate(-360.316 -1357.842)" fill="#a5aea8"/>
            <path id="Path_131341" data-name="Path 131341" d="M814.394,1380.6H366.832c-5.427,0-7.876-6.45-3.7-9.738l37.288-29.333a5.984,5.984,0,0,1,3.7-1.265H777.106a5.984,5.984,0,0,1,3.7,1.265l37.288,29.333C822.27,1374.153,819.822,1380.6,814.394,1380.6Z" transform="translate(-360.771 -1340.267)" fill="#c8d1cb"/>
          </g>
          <g id="Group_125509" data-name="Group 125509" transform="translate(152.063 26.358)">
            <path id="Path_131342" data-name="Path 131342" d="M939.1,1422.619H783.43l8.487-9.01H930.609Z" transform="translate(-783.43 -1413.609)" fill="#62786b"/>
            <path id="Path_131343" data-name="Path 131343" d="M792.525,1414.583H930l7.393,8.036h1.7l-8.487-9.01H791.918l-8.487,9.01h1.7Z" transform="translate(-783.43 -1413.609)" fill="#5e6873"/>
          </g>
          <path id="Path_131344" data-name="Path 131344" d="M955.006,1457.1H852.866a2.294,2.294,0,0,1-2.25-1.843l-.574-2.863H957.829l-.574,2.863A2.3,2.3,0,0,1,955.006,1457.1Z" transform="translate(-674.04 -1412.099)" fill="#e3e9e5"/>
          <g id="Group_125516" data-name="Group 125516" transform="translate(37.496 1.649)">
            <g id="Group_125510" data-name="Group 125510" transform="translate(0.114 18.946)">
              <path id="Path_131345" data-name="Path 131345" d="M939.743,1400.582H795.719q.639-1.505,1.31-3.01H938.523Q939.149,1399.077,939.743,1400.582Z" transform="translate(-676.85 -1397.572)" fill="#26282a"/>
              <path id="Path_131346" data-name="Path 131346" d="M736.933,1400.582H711.077q.9-1.505,1.844-3.01h25.4Q737.61,1399.077,736.933,1400.582Z" transform="translate(-622.627 -1397.572)" fill="#26282a"/>
              <path id="Path_131347" data-name="Path 131347" d="M654.9,1400.582H629.04q1.151-1.505,2.362-3.01h25.4Q655.826,1399.077,654.9,1400.582Z" transform="translate(-570.073 -1397.572)" fill="#26282a"/>
              <path id="Path_131348" data-name="Path 131348" d="M572.859,1400.582H547q1.4-1.505,2.879-3.01h25.4Q574.041,1399.077,572.859,1400.582Z" transform="translate(-517.52 -1397.572)" fill="#26282a"/>
              <path id="Path_131349" data-name="Path 131349" d="M490.822,1400.582H464.966q1.656-1.505,3.4-3.01h25.4Q492.256,1399.077,490.822,1400.582Z" transform="translate(-464.966 -1397.572)" fill="#26282a"/>
              <path id="Path_131350" data-name="Path 131350" d="M1471.535,1400.582h-25.857q-1.376-1.505-2.825-3.01h25.4Q1469.939,1399.077,1471.535,1400.582Z" transform="translate(-1091.411 -1397.572)" fill="#26282a"/>
              <path id="Path_131351" data-name="Path 131351" d="M1390.42,1400.582h-25.856q-1.124-1.505-2.307-3.01h25.4Q1389.076,1399.077,1390.42,1400.582Z" transform="translate(-1039.78 -1397.572)" fill="#26282a"/>
              <path id="Path_131352" data-name="Path 131352" d="M1309.306,1400.582H1283.45q-.87-1.505-1.789-3.01h25.4Q1308.214,1399.077,1309.306,1400.582Z" transform="translate(-988.149 -1397.572)" fill="#26282a"/>
              <path id="Path_131353" data-name="Path 131353" d="M1228.192,1400.582h-25.856q-.619-1.505-1.271-3.01h25.4Q1227.353,1399.077,1228.192,1400.582Z" transform="translate(-936.518 -1397.572)" fill="#26282a"/>
            </g>
            <g id="Group_125511" data-name="Group 125511" transform="translate(0 15.171)">
              <path id="Path_131354" data-name="Path 131354" d="M692.056,1390.077H666.773q1.128-1.5,2.311-3.009h24.8Q692.947,1388.573,692.056,1390.077Z" transform="translate(-594.131 -1387.068)" fill="#26282a"/>
              <path id="Path_131355" data-name="Path 131355" d="M612.178,1390.077H586.9q1.4-1.5,2.86-3.009h24.8Q613.337,1388.573,612.178,1390.077Z" transform="translate(-542.961 -1387.068)" fill="#26282a"/>
              <path id="Path_131356" data-name="Path 131356" d="M532.3,1390.077H507.017q1.664-1.5,3.41-3.009h24.8Q533.727,1388.573,532.3,1390.077Z" transform="translate(-491.79 -1387.068)" fill="#26282a"/>
              <path id="Path_131357" data-name="Path 131357" d="M476.45,1390.077h-11.8q1.806-1.5,3.7-3.009h11.577Q478.146,1388.573,476.45,1390.077Z" transform="translate(-464.648 -1387.068)" fill="#26282a"/>
              <path id="Path_131358" data-name="Path 131358" d="M1011.568,1390.077H986.285q.056-1.5.115-3.009h24.8Q1011.388,1388.573,1011.568,1390.077Z" transform="translate(-798.814 -1387.068)" fill="#26282a"/>
              <path id="Path_131359" data-name="Path 131359" d="M931.69,1390.077H906.407q.324-1.5.664-3.009h24.8Q931.778,1388.573,931.69,1390.077Z" transform="translate(-747.643 -1387.068)" fill="#26282a"/>
              <path id="Path_131360" data-name="Path 131360" d="M851.812,1390.077H826.529q.591-1.5,1.213-3.009h24.8Q852.168,1388.573,851.812,1390.077Z" transform="translate(-696.473 -1387.068)" fill="#26282a"/>
              <path id="Path_131361" data-name="Path 131361" d="M771.934,1390.077H746.651q.86-1.5,1.762-3.009h24.8Q772.558,1388.573,771.934,1390.077Z" transform="translate(-645.302 -1387.068)" fill="#26282a"/>
              <path id="Path_131362" data-name="Path 131362" d="M1327.369,1390.077h-25.283q-1.016-1.5-2.082-3.009h24.8Q1326.118,1388.573,1327.369,1390.077Z" transform="translate(-999.786 -1387.068)" fill="#26282a"/>
              <path id="Path_131363" data-name="Path 131363" d="M1248.47,1390.077h-25.283q-.749-1.5-1.533-3.009h24.8Q1247.487,1388.573,1248.47,1390.077Z" transform="translate(-949.594 -1387.068)" fill="#26282a"/>
              <path id="Path_131364" data-name="Path 131364" d="M1169.571,1390.077h-25.283q-.48-1.5-.984-3.009h24.8Q1168.854,1388.573,1169.571,1390.077Z" transform="translate(-899.402 -1387.068)" fill="#26282a"/>
              <path id="Path_131365" data-name="Path 131365" d="M1090.671,1390.077h-25.282q-.212-1.5-.435-3.009h24.8Q1090.223,1388.573,1090.671,1390.077Z" transform="translate(-849.21 -1387.068)" fill="#26282a"/>
              <path id="Path_131366" data-name="Path 131366" d="M1484.633,1390.077h-24.749q-1.551-1.5-3.18-3.009h24.275Q1482.851,1388.573,1484.633,1390.077Z" transform="translate(-1100.169 -1387.068)" fill="#26282a"/>
              <path id="Path_131367" data-name="Path 131367" d="M1406.268,1390.077h-25.283q-1.284-1.5-2.631-3.009h24.8Q1404.749,1388.573,1406.268,1390.077Z" transform="translate(-1049.977 -1387.068)" fill="#26282a"/>
            </g>
            <g id="Group_125512" data-name="Group 125512" transform="translate(4.57 11.475)">
              <path id="Path_131368" data-name="Path 131368" d="M737.94,1379.794H713.254q1.056-1.5,2.16-3.009h24.173Q738.745,1378.289,737.94,1379.794Z" transform="translate(-628.478 -1376.785)" fill="#26282a"/>
              <path id="Path_131369" data-name="Path 131369" d="M659.949,1379.794H635.263q1.34-1.5,2.742-3.009h24.173Q661.038,1378.289,659.949,1379.794Z" transform="translate(-578.516 -1376.785)" fill="#26282a"/>
              <path id="Path_131370" data-name="Path 131370" d="M581.958,1379.794H557.272q1.624-1.5,3.324-3.009h24.173Q583.331,1378.289,581.958,1379.794Z" transform="translate(-528.554 -1376.785)" fill="#26282a"/>
              <path id="Path_131371" data-name="Path 131371" d="M502.739,1379.794H477.365q1.915-1.5,3.92-3.009h24.848Q504.4,1378.289,502.739,1379.794Z" transform="translate(-477.365 -1376.785)" fill="#26282a"/>
              <path id="Path_131372" data-name="Path 131372" d="M1049.6,1379.794H1024.92q-.082-1.5-.168-3.009h24.173Q1049.274,1378.289,1049.6,1379.794Z" transform="translate(-828.027 -1376.785)" fill="#26282a"/>
              <path id="Path_131373" data-name="Path 131373" d="M971.912,1379.794H947.227q.2-1.5.414-3.009h24.173Q971.865,1378.289,971.912,1379.794Z" transform="translate(-778.363 -1376.785)" fill="#26282a"/>
              <path id="Path_131374" data-name="Path 131374" d="M893.922,1379.794H869.236q.487-1.5,1-3.009h24.173Q894.159,1378.289,893.922,1379.794Z" transform="translate(-728.402 -1376.785)" fill="#26282a"/>
              <path id="Path_131375" data-name="Path 131375" d="M815.93,1379.794H791.245q.771-1.5,1.578-3.009H817Q816.451,1378.289,815.93,1379.794Z" transform="translate(-678.44 -1376.785)" fill="#26282a"/>
              <path id="Path_131376" data-name="Path 131376" d="M1357.42,1379.794h-24.686q-1.219-1.5-2.495-3.009h24.173Q1355.951,1378.289,1357.42,1379.794Z" transform="translate(-1023.725 -1376.785)" fill="#26282a"/>
              <path id="Path_131377" data-name="Path 131377" d="M1280.466,1379.794H1255.78q-.935-1.5-1.913-3.009h24.173Q1279.282,1378.289,1280.466,1379.794Z" transform="translate(-974.8 -1376.785)" fill="#26282a"/>
              <path id="Path_131378" data-name="Path 131378" d="M1203.513,1379.794h-24.685q-.649-1.5-1.331-3.009h24.173Q1202.611,1378.289,1203.513,1379.794Z" transform="translate(-925.876 -1376.785)" fill="#26282a"/>
              <path id="Path_131379" data-name="Path 131379" d="M1126.559,1379.794h-24.685q-.366-1.5-.749-3.009H1125.3Q1125.943,1378.289,1126.559,1379.794Z" transform="translate(-876.951 -1376.785)" fill="#26282a"/>
              <path id="Path_131380" data-name="Path 131380" d="M1496.955,1379.794h-10.314q-1.787-1.5-3.659-3.009h10.1Q1495.063,1378.289,1496.955,1379.794Z" transform="translate(-1121.574 -1376.785)" fill="#26282a"/>
              <path id="Path_131381" data-name="Path 131381" d="M1434.373,1379.794h-24.686q-1.5-1.5-3.077-3.009h24.173Q1432.62,1378.289,1434.373,1379.794Z" transform="translate(-1072.649 -1376.785)" fill="#26282a"/>
            </g>
            <g id="Group_125513" data-name="Group 125513" transform="translate(9.644 7.606)">
              <path id="Path_131382" data-name="Path 131382" d="M709.365,1369.029H685.343q1.261-1.5,2.576-3.009H711.4Q710.36,1367.526,709.365,1369.029Z" transform="translate(-615.671 -1366.02)" fill="#26282a"/>
              <path id="Path_131383" data-name="Path 131383" d="M633.47,1369.029H609.448q1.562-1.5,3.192-3.009h23.48Q634.766,1367.526,633.47,1369.029Z" transform="translate(-567.052 -1366.02)" fill="#26282a"/>
              <path id="Path_131384" data-name="Path 131384" d="M557.575,1369.029H533.553q1.863-1.5,3.809-3.009h23.479Q559.173,1367.526,557.575,1369.029Z" transform="translate(-518.433 -1366.02)" fill="#26282a"/>
              <path id="Path_131385" data-name="Path 131385" d="M503.348,1369.029H491.482q2.031-1.5,4.15-3.009h11.6Q505.247,1367.526,503.348,1369.029Z" transform="translate(-491.482 -1366.02)" fill="#26282a"/>
              <path id="Path_131386" data-name="Path 131386" d="M1012.947,1369.029H988.925q.055-1.5.111-3.009h23.48Q1012.736,1367.526,1012.947,1369.029Z" transform="translate(-810.149 -1366.02)" fill="#26282a"/>
              <path id="Path_131387" data-name="Path 131387" d="M937.052,1369.029H913.03q.356-1.5.727-3.009h23.48Q937.142,1367.526,937.052,1369.029Z" transform="translate(-761.53 -1366.02)" fill="#26282a"/>
              <path id="Path_131388" data-name="Path 131388" d="M861.156,1369.029H837.134q.658-1.5,1.344-3.009h23.479Q861.549,1367.526,861.156,1369.029Z" transform="translate(-712.91 -1366.02)" fill="#26282a"/>
              <path id="Path_131389" data-name="Path 131389" d="M785.261,1369.029H761.239q.959-1.5,1.96-3.009h23.479Q785.954,1367.526,785.261,1369.029Z" transform="translate(-664.291 -1366.02)" fill="#26282a"/>
              <path id="Path_131390" data-name="Path 131390" d="M1312.332,1369.029H1288.31q-1.151-1.5-2.354-3.009h23.48Q1310.916,1367.526,1312.332,1369.029Z" transform="translate(-1000.43 -1366.02)" fill="#26282a"/>
              <path id="Path_131391" data-name="Path 131391" d="M1237.536,1369.029h-24.022q-.85-1.5-1.738-3.009h23.479Q1236.421,1367.526,1237.536,1369.029Z" transform="translate(-952.909 -1366.02)" fill="#26282a"/>
              <path id="Path_131392" data-name="Path 131392" d="M1162.739,1369.029h-24.022q-.549-1.5-1.122-3.009h23.479Q1161.926,1367.526,1162.739,1369.029Z" transform="translate(-905.388 -1366.02)" fill="#26282a"/>
              <path id="Path_131393" data-name="Path 131393" d="M1087.942,1369.029h-24.022q-.247-1.5-.505-3.009h23.479Q1087.43,1367.526,1087.942,1369.029Z" transform="translate(-857.868 -1366.02)" fill="#26282a"/>
              <path id="Path_131394" data-name="Path 131394" d="M1460.767,1369.029H1437.9q-1.754-1.5-3.586-3.009h22.346Q1458.761,1367.526,1460.767,1369.029Z" transform="translate(-1095.472 -1366.02)" fill="#26282a"/>
              <path id="Path_131395" data-name="Path 131395" d="M1387.13,1369.029h-24.023q-1.452-1.5-2.97-3.009h23.479Q1385.411,1367.526,1387.13,1369.029Z" transform="translate(-1047.951 -1366.02)" fill="#26282a"/>
            </g>
            <g id="Group_125514" data-name="Group 125514" transform="translate(20.481)">
              <path id="Path_131396" data-name="Path 131396" d="M725.619,1347.865h-22.6q1.4-1.505,2.866-3.009h22Q726.729,1346.361,725.619,1347.865Z" transform="translate(-637.829 -1344.856)" fill="#26282a"/>
              <path id="Path_131397" data-name="Path 131397" d="M654.2,1347.865H631.6q1.741-1.505,3.55-3.009h22Q655.647,1346.361,654.2,1347.865Z" transform="translate(-592.078 -1344.856)" fill="#26282a"/>
              <path id="Path_131398" data-name="Path 131398" d="M582.785,1347.865h-22.6q2.075-1.505,4.234-3.009h22Q584.566,1346.361,582.785,1347.865Z" transform="translate(-546.327 -1344.856)" fill="#26282a"/>
              <path id="Path_131399" data-name="Path 131399" d="M532.426,1347.865H521.635q2.257-1.505,4.6-3.009h10.5Q534.541,1346.361,532.426,1347.865Z" transform="translate(-521.635 -1344.856)" fill="#26282a"/>
              <path id="Path_131400" data-name="Path 131400" d="M1011.288,1347.865h-22.6q.064-1.505.131-3.009h22Q1011.057,1346.361,1011.288,1347.865Z" transform="translate(-820.831 -1344.856)" fill="#26282a"/>
              <path id="Path_131401" data-name="Path 131401" d="M939.871,1347.865h-22.6q.4-1.505.814-3.009h22Q939.975,1346.361,939.871,1347.865Z" transform="translate(-775.08 -1344.856)" fill="#26282a"/>
              <path id="Path_131402" data-name="Path 131402" d="M868.454,1347.865h-22.6q.734-1.505,1.5-3.009h22Q868.893,1346.361,868.454,1347.865Z" transform="translate(-729.33 -1344.856)" fill="#26282a"/>
              <path id="Path_131403" data-name="Path 131403" d="M797.036,1347.865H774.431q1.07-1.505,2.183-3.009h22Q797.811,1346.361,797.036,1347.865Z" transform="translate(-683.579 -1344.856)" fill="#26282a"/>
              <path id="Path_131404" data-name="Path 131404" d="M1292.314,1347.865h-22.605q-1.276-1.505-2.6-3.009h22Q1290.741,1346.361,1292.314,1347.865Z" transform="translate(-999.19 -1344.856)" fill="#26282a"/>
              <path id="Path_131405" data-name="Path 131405" d="M1222.115,1347.865h-22.6q-.942-1.505-1.921-3.009h22Q1220.879,1346.361,1222.115,1347.865Z" transform="translate(-954.659 -1344.856)" fill="#26282a"/>
              <path id="Path_131406" data-name="Path 131406" d="M1151.917,1347.865h-22.605q-.605-1.505-1.237-3.009h22Q1151.016,1346.361,1151.917,1347.865Z" transform="translate(-910.126 -1344.856)" fill="#26282a"/>
              <path id="Path_131407" data-name="Path 131407" d="M1081.719,1347.865h-22.6q-.271-1.505-.553-3.009h22Q1081.152,1346.361,1081.719,1347.865Z" transform="translate(-865.595 -1344.856)" fill="#26282a"/>
              <path id="Path_131408" data-name="Path 131408" d="M1431.995,1347.865h-21.889q-1.947-1.505-3.972-3.009h21.306Q1429.761,1346.361,1431.995,1347.865Z" transform="translate(-1088.253 -1344.856)" fill="#26282a"/>
              <path id="Path_131409" data-name="Path 131409" d="M1362.512,1347.865h-22.6q-1.612-1.505-3.288-3.009h22Q1360.6,1346.361,1362.512,1347.865Z" transform="translate(-1043.722 -1344.856)" fill="#26282a"/>
            </g>
            <g id="Group_125515" data-name="Group 125515" transform="translate(14.766 3.911)">
              <path id="Path_131410" data-name="Path 131410" d="M754,1358.746H730.649q1.171-1.506,2.391-3.009h22.781Q754.893,1357.242,754,1358.746Z" transform="translate(-649.817 -1355.737)" fill="#26282a"/>
              <path id="Path_131411" data-name="Path 131411" d="M680.222,1358.746H656.87q1.489-1.506,3.041-3.009h22.781Q681.432,1357.242,680.222,1358.746Z" transform="translate(-602.554 -1355.737)" fill="#26282a"/>
              <path id="Path_131412" data-name="Path 131412" d="M606.443,1358.746H583.091q1.808-1.506,3.69-3.009h22.78Q607.97,1357.242,606.443,1358.746Z" transform="translate(-555.29 -1355.737)" fill="#26282a"/>
              <path id="Path_131413" data-name="Path 131413" d="M530.373,1358.746H505.735q2.14-1.506,4.37-3.009H534.14Q532.218,1357.242,530.373,1358.746Z" transform="translate(-505.735 -1355.737)" fill="#26282a"/>
              <path id="Path_131414" data-name="Path 131414" d="M1048.751,1358.746H1025.4q-.1-1.506-.2-3.009h22.781Q1048.372,1357.242,1048.751,1358.746Z" transform="translate(-838.506 -1355.737)" fill="#26282a"/>
              <path id="Path_131415" data-name="Path 131415" d="M975.337,1358.746H951.985q.218-1.506.444-3.009H975.21Q975.275,1357.242,975.337,1358.746Z" transform="translate(-791.607 -1355.737)" fill="#26282a"/>
              <path id="Path_131416" data-name="Path 131416" d="M901.559,1358.746H878.207q.535-1.506,1.093-3.009h22.781Q901.815,1357.242,901.559,1358.746Z" transform="translate(-744.344 -1355.737)" fill="#26282a"/>
              <path id="Path_131417" data-name="Path 131417" d="M827.78,1358.746H804.428q.854-1.506,1.742-3.009h22.78Q828.354,1357.242,827.78,1358.746Z" transform="translate(-697.081 -1355.737)" fill="#26282a"/>
              <path id="Path_131418" data-name="Path 131418" d="M1339.239,1358.746h-23.352q-1.371-1.506-2.8-3.009h22.781Q1337.587,1357.242,1339.239,1358.746Z" transform="translate(-1022.932 -1355.737)" fill="#26282a"/>
              <path id="Path_131419" data-name="Path 131419" d="M1266.617,1358.746h-23.353q-1.053-1.506-2.152-3.009h22.781Q1265.284,1357.242,1266.617,1358.746Z" transform="translate(-976.825 -1355.737)" fill="#26282a"/>
              <path id="Path_131420" data-name="Path 131420" d="M1193.995,1358.746h-23.352q-.736-1.506-1.5-3.009h22.781Q1192.979,1357.242,1193.995,1358.746Z" transform="translate(-930.718 -1355.737)" fill="#26282a"/>
              <path id="Path_131421" data-name="Path 131421" d="M1121.373,1358.746h-23.352q-.417-1.506-.854-3.009h22.781Q1120.675,1357.242,1121.373,1358.746Z" transform="translate(-884.612 -1355.737)" fill="#26282a"/>
              <path id="Path_131422" data-name="Path 131422" d="M1470.252,1358.746h-9.123q-2.007-1.506-4.1-3.009h8.9Q1468.136,1357.242,1470.252,1358.746Z" transform="translate(-1115.144 -1355.737)" fill="#26282a"/>
              <path id="Path_131423" data-name="Path 131423" d="M1411.861,1358.746h-23.352q-1.689-1.506-3.45-3.009h22.781Q1409.891,1357.242,1411.861,1358.746Z" transform="translate(-1069.038 -1355.737)" fill="#26282a"/>
            </g>
          </g>
        </g>
      </g>
      <path id="Path_131424" data-name="Path 131424" d="M694.932,945.754H614.377l-107.011-216.9h80.56Z" transform="translate(-454.518 -719.424)" fill="#6aa888" opacity="0.14" style="mix-blend-mode: screen;isolation: isolate"/>
      <path id="Path_131425" data-name="Path 131425" d="M1309.46,898.144v45.739L1203.373,728.856h22.569Z" transform="translate(-900.387 -719.424)" fill="#6aa888" opacity="0.14" style="mix-blend-mode: screen;isolation: isolate"/>
      <path id="Path_131426" data-name="Path 131426" d="M1019.43,945.754H893.965l-107.011-216.9H912.423Z" transform="translate(-633.624 -719.424)" fill="#6aa888" opacity="0.14" style="mix-blend-mode: screen;isolation: isolate"/>
    </g>
    <g id="Group_125535" data-name="Group 125535" transform="translate(453.156 512.559)">
      <g id="Group_125526" data-name="Group 125526">
        <g id="Group_125522" data-name="Group 125522">
          <g id="Group_125520" data-name="Group 125520">
            <path id="Path_131427" data-name="Path 131427" d="M621.34,604.33a2.7,2.7,0,0,1-2.7-2.7v-86.38a2.7,2.7,0,0,1,2.7-2.7h54.473a2.7,2.7,0,1,1,0,5.391H624.036v83.685A2.7,2.7,0,0,1,621.34,604.33Z" transform="translate(-618.645 -512.559)" fill="#b58500"/>
          </g>
          <g id="Group_125521" data-name="Group 125521" transform="translate(214.246)">
            <path id="Path_131428" data-name="Path 131428" d="M1271.953,604.33a2.7,2.7,0,0,1-2.7-2.7V517.95H1217.48a2.7,2.7,0,1,1,0-5.391h54.473a2.7,2.7,0,0,1,2.7,2.7v86.38A2.7,2.7,0,0,1,1271.953,604.33Z" transform="translate(-1214.784 -512.559)" fill="#b58500"/>
          </g>
        </g>
        <g id="Group_125525" data-name="Group 125525" transform="translate(0 170.461)">
          <g id="Group_125523" data-name="Group 125523" transform="translate(214.246)">
            <path id="Path_131429" data-name="Path 131429" d="M1271.953,1078.637H1217.48a2.7,2.7,0,1,1,0-5.391h51.778V989.561a2.7,2.7,0,1,1,5.391,0v86.38A2.7,2.7,0,0,1,1271.953,1078.637Z" transform="translate(-1214.784 -986.866)" fill="#b58500"/>
          </g>
          <g id="Group_125524" data-name="Group 125524">
            <path id="Path_131430" data-name="Path 131430" d="M675.814,1078.637H621.34a2.7,2.7,0,0,1-2.7-2.7v-86.38a2.7,2.7,0,0,1,5.391,0v83.685h51.778a2.7,2.7,0,1,1,0,5.391Z" transform="translate(-618.645 -986.866)" fill="#b58500"/>
          </g>
        </g>
      </g>
      <g id="Group_125534" data-name="Group 125534" transform="translate(37.074 12.371)">
        <g id="Group_125527" data-name="Group 125527">
          <path id="Path_131431" data-name="Path 131431" d="M920.028,606.852a377.206,377.206,0,0,1-98.244-59.872c-.613,0-33.709,33.736-98.245,59.872-9.977,44.57,23.072,164.98,98.245,177.619C896.957,771.832,930.007,651.422,920.028,606.852Z" transform="translate(-721.803 -546.98)" fill="#286140"/>
          <path id="Path_131432" data-name="Path 131432" d="M841.677,802.836c-26-5.051-44.492-24.978-55.511-41.007-24.417-35.523-36.145-86.189-32.728-113.792,33.51-13.88,63.839-31.736,88.443-52.062a391.865,391.865,0,0,0,88.027,52c3.444,27.588-8.283,78.306-32.718,113.857C886.172,777.858,867.68,797.785,841.677,802.836Z" transform="translate(-741.696 -578.367)" fill="none" stroke="#fff" stroke-miterlimit="10" stroke-width="15"/>
        </g>
        <g id="Group_125533" data-name="Group 125533" transform="translate(63.981 69.422)">
          <g id="Group_125530" data-name="Group 125530" transform="translate(9.995)">
            <g id="Group_125529" data-name="Group 125529">
              <g id="Group_125528" data-name="Group 125528">
                <path id="Path_131433" data-name="Path 131433" d="M950.354,799.044h-2.412c-13.674,0-24.8-11.794-24.8-26.291V741.416c0-14.5,11.125-26.291,24.8-26.291h2.412c13.674,0,24.8,11.794,24.8,26.291v31.337C975.153,787.25,964.028,799.044,950.354,799.044ZM947.941,722.3c-9.942,0-18.03,8.575-18.03,19.115v31.337c0,10.539,8.088,19.114,18.03,19.114h2.412c9.942,0,18.03-8.575,18.03-19.114V741.416c0-10.539-8.088-19.115-18.03-19.115Z" transform="translate(-923.142 -715.125)" fill="#b58500"/>
              </g>
            </g>
          </g>
          <g id="Group_125531" data-name="Group 125531" transform="translate(0 37.011)">
            <path id="Path_131434" data-name="Path 131434" d="M958.927,882.275c-16.858,2.214-38.583,1.761-58.647,0-3.673-.322-6.677-2.736-6.677-6.11V831.816c0-3.374,3.388-7.541,7.052-7.3,16.3,1.084,41.312,1.084,58.385.453,3.679-.136,6.563,3.47,6.563,6.844v44.349C965.6,879.539,962.583,881.795,958.927,882.275Z" transform="translate(-893.603 -824.509)" fill="#b58500"/>
          </g>
          <g id="Group_125532" data-name="Group 125532" transform="translate(29.636 53.068)">
            <path id="Path_131435" data-name="Path 131435" d="M993.92,878.328a6.364,6.364,0,1,0-8.685,5.912l-2.546,12.93h9.733l-2.545-12.93A6.354,6.354,0,0,0,993.92,878.328Z" transform="translate(-981.192 -871.964)" fill="#10331f"/>
          </g>
        </g>
      </g>
    </g>
  </g>
</svg>
