<svg id="callFooter" xmlns="http://www.w3.org/2000/svg" width="30" height="30" viewBox="0 0 30 30">
  <g id="vuesax_outline_call" data-name="vuesax/outline/call">
    <g id="call">
      <path id="Vector" d="M20.25,26.875a11.436,11.436,0,0,1-4.437-.988,23.469,23.469,0,0,1-4.487-2.575,39.018,39.018,0,0,1-4.213-3.587,37.345,37.345,0,0,1-3.588-4.2,23.327,23.327,0,0,1-2.55-4.45A11.574,11.574,0,0,1,0,6.613,7.533,7.533,0,0,1,.512,3.85,6.676,6.676,0,0,1,2.188,1.425,4.539,4.539,0,0,1,5.425,0,3.38,3.38,0,0,1,6.837.313a2.861,2.861,0,0,1,1.2,1.012l2.9,4.087a4.842,4.842,0,0,1,.6,1.063,2.808,2.808,0,0,1,.25,1.113,2.652,2.652,0,0,1-.4,1.375,5,5,0,0,1-.838,1.063l-.85.887A.609.609,0,0,0,9.738,11a9.613,9.613,0,0,0,1.025,1.387c.612.7,1.188,1.337,1.763,1.925.738.725,1.35,1.3,1.925,1.775a8.141,8.141,0,0,0,1.45,1.038l-.025.063.913-.9a4.669,4.669,0,0,1,1.125-.863,2.639,2.639,0,0,1,2.438-.138,5.691,5.691,0,0,1,1.05.588l4.15,2.95a2.686,2.686,0,0,1,1,1.188,3.617,3.617,0,0,1,.275,1.35,4.169,4.169,0,0,1-.4,1.763,5.822,5.822,0,0,1-1,1.5,6.411,6.411,0,0,1-2.387,1.712A7.38,7.38,0,0,1,20.25,26.875Zm-14.825-25a2.74,2.74,0,0,0-1.938.9A4.8,4.8,0,0,0,2.262,4.538a5.469,5.469,0,0,0-.387,2.075A9.637,9.637,0,0,0,2.7,10.338a20.866,20.866,0,0,0,2.35,4.075,34.583,34.583,0,0,0,3.387,3.975,35.2,35.2,0,0,0,3.987,3.4,20.31,20.31,0,0,0,4.112,2.362,7.455,7.455,0,0,0,5.788.438,4.615,4.615,0,0,0,1.712-1.237,4.054,4.054,0,0,0,.7-1.05,2.214,2.214,0,0,0,.225-.962,1.492,1.492,0,0,0-.137-.625.946.946,0,0,0-.35-.375l-4.15-2.95A3.583,3.583,0,0,0,19.637,17a.657.657,0,0,0-.812.038,2.85,2.85,0,0,0-.725.563l-.95.938a1.782,1.782,0,0,1-1.812.375L15,18.763A10.656,10.656,0,0,1,13.225,17.5c-.6-.513-1.25-1.113-2.038-1.888-.613-.625-1.225-1.287-1.863-2.025A10.665,10.665,0,0,1,8.05,11.825L7.9,11.45a2.333,2.333,0,0,1-.1-.625,1.6,1.6,0,0,1,.475-1.163l.938-.975a3.62,3.62,0,0,0,.563-.7.8.8,0,0,0,.138-.425,1.162,1.162,0,0,0-.1-.4,3.586,3.586,0,0,0-.4-.662l-2.9-4.1a1.152,1.152,0,0,0-.462-.388A1.565,1.565,0,0,0,5.425,1.875ZM15.875,17.2l-.2.85.338-.875A.154.154,0,0,0,15.875,17.2Z" transform="translate(1.563 1.563)" fill="#b3862d"/>
      <path id="Vector-2" data-name="Vector" d="M0,0H30V30H0Z" fill="none" opacity="0"/>
    </g>
  </g>
</svg>
