<svg xmlns="http://www.w3.org/2000/svg" width="97.627" height="90" viewBox="0 0 97.627 90">
  <g id="iconNum2" transform="translate(0 -20)">
    <g id="XMLID_855_" transform="translate(0 20)">
      <path id="XMLID_1274_" d="M95.72,276.9H92.463V232.844a1.907,1.907,0,0,0-1.907-1.907H76.827a1.907,1.907,0,0,0-1.907,1.907V276.9h-5.71V250.144a1.907,1.907,0,0,0-1.907-1.907H53.575a1.907,1.907,0,0,0-1.907,1.907V276.9h-5.71v-12.5a1.907,1.907,0,0,0-3.814,0v12.5H32.23V234.751h9.915v12.5a1.907,1.907,0,1,0,3.814,0v-14.4a1.907,1.907,0,0,0-1.907-1.907H30.323a1.907,1.907,0,0,0-1.907,1.907V276.9h-5.71V250.144a1.907,1.907,0,0,0-1.907-1.907H7.071a1.907,1.907,0,0,0-1.907,1.907V276.9H1.907a1.907,1.907,0,1,0,0,3.814H95.72a1.907,1.907,0,1,0,0-3.814Zm-86.743,0V252.051h9.915V276.9Zm46.5,0V252.051H65.4V276.9Zm23.252,0V234.751h9.915V276.9Z" transform="translate(0 -190.716)" fill="#286140"/>
      <path id="XMLID_1363_" d="M35.855,60.794a8.764,8.764,0,0,0,7.4-13.47L54.408,36.172a8.74,8.74,0,0,0,9.4,0L74.961,47.327a8.771,8.771,0,1,0,14.8,0l11.155-11.155a8.784,8.784,0,1,0-2.7-2.7L87.061,44.63a8.74,8.74,0,0,0-9.4,0L66.5,33.477a8.771,8.771,0,1,0-14.793,0L40.56,44.627a8.769,8.769,0,1,0-4.705,16.168Zm69.756-36.981a4.958,4.958,0,1,1-4.958,4.958A4.963,4.963,0,0,1,105.611,23.814ZM87.317,52.029a4.958,4.958,0,1,1-4.958-4.958A4.963,4.963,0,0,1,87.317,52.029ZM59.107,23.814a4.958,4.958,0,1,1-4.958,4.958A4.963,4.963,0,0,1,59.107,23.814ZM35.855,47.066A4.958,4.958,0,1,1,30.9,52.023,4.963,4.963,0,0,1,35.855,47.066Z" transform="translate(-21.92 -20)" fill="#286140"/>
      <path id="XMLID_1403_" d="M222.937,351.47a1.907,1.907,0,1,0,1.348.559A1.921,1.921,0,0,0,222.937,351.47Z" transform="translate(-178.884 -288.266)" fill="#286140"/>
    </g>
  </g>
</svg>
