<svg xmlns="http://www.w3.org/2000/svg" width="113.218" height="90" viewBox="0 0 113.218 90">
  <g id="investment" transform="translate(0 -52.5)">
    <g id="Group_125274" data-name="Group 125274" transform="translate(0 52.5)">
      <path id="Path_131084" data-name="Path 131084" d="M136.04,123.045l-4.886-4.886a1.658,1.658,0,0,0-2.345,2.346l4.651,4.651-7.036,7.036-11.962-11.962,7.036-7.036,2.312,2.312a1.658,1.658,0,0,0,2.345-2.346l-5.921-5.921-2.255-2.255h0l-4.143-4.143a2.989,2.989,0,0,0-4.222,0l-.235.235-3.91-3.911a28.194,28.194,0,0,0,4.665-11.277,28.863,28.863,0,0,0,.387-3.287h12.531a1.658,1.658,0,1,0,0-3.317H110.529a28.371,28.371,0,0,0-2.389-9.917,1.659,1.659,0,1,0-3.033,1.343,25.056,25.056,0,0,1,2.149,10.227s0,0,0,.005,0,0,0,0a25.431,25.431,0,0,1-.387,4.364,25.068,25.068,0,1,1-6.952-22.154,25.428,25.428,0,0,1,1.721,1.9,1.659,1.659,0,1,0,2.571-2.1,28.73,28.73,0,0,0-1.947-2.154A28.4,28.4,0,0,0,53.821,79.183H51.127a1.658,1.658,0,0,0-1.356.7l-3.8,5.4L41.935,72.02a1.658,1.658,0,0,0-3.048-.3l-4.006,7.464h-2.8a1.658,1.658,0,1,0,0,3.317h3.792a1.658,1.658,0,0,0,1.461-.874L39.924,76.8,43.788,89.5a1.658,1.658,0,0,0,2.943.472L51.987,82.5h1.827a28.425,28.425,0,0,0,44.623,21.707l3.907,3.906-.235.235a2.985,2.985,0,0,0,0,4.222l22.2,22.2a2.986,2.986,0,0,0,4.222,0l7.505-7.505a2.986,2.986,0,0,0,0-4.222ZM102.262,101c.393-.393.769-.8,1.136-1.211l3.636,3.637-2.345,2.345-3.634-3.633q.617-.55,1.208-1.138Zm9.854,16.89-2.345-2.345,7.036-7.036,2.346,2.346Zm-.391-14.463,2.736,2.736-7.036,7.036-2.736-2.736Z" transform="translate(-23.696 -52.5)" fill="#286140"/>
      <path id="Path_131085" data-name="Path 131085" d="M172.345,88.859a21.772,21.772,0,1,0,30.8,0A21.634,21.634,0,0,0,172.345,88.859ZM200.8,117.317a18.487,18.487,0,1,1,5.4-13.056A18.339,18.339,0,0,1,200.8,117.317Z" transform="translate(-129.273 -75.858)" fill="#286140"/>
      <path id="Path_131086" data-name="Path 131086" d="M243.609,131.737c-.3-.108-.615-.219-.925-.335v-5.485a3.68,3.68,0,0,1,.983.529,1.658,1.658,0,0,0,2.032-2.621,7.288,7.288,0,0,0-3.016-1.334v-.972a1.658,1.658,0,1,0-3.317,0v1.089c-.114.029-.229.061-.345.1a5.681,5.681,0,0,0-3.9,4.454,5.043,5.043,0,0,0,1.665,4.967,12.538,12.538,0,0,0,2.576,1.5v7.242a5.2,5.2,0,0,1-2.322-.979,1.659,1.659,0,0,0-1.816,2.776,8.183,8.183,0,0,0,4.138,1.539V145.3a1.658,1.658,0,1,0,3.317,0v-1.248a6.865,6.865,0,0,0,5.031-5.479,5.97,5.97,0,0,0-4.106-6.833Zm-4.771-2.223a1.8,1.8,0,0,1-.452-1.743,2.552,2.552,0,0,1,.982-1.593v3.7A6.242,6.242,0,0,1,238.837,129.514Zm5.606,8.506a3.546,3.546,0,0,1-1.76,2.5v-5.587a2.67,2.67,0,0,1,1.76,3.087Z" transform="translate(-182.628 -104.965)" fill="#286140"/>
      <path id="Path_131087" data-name="Path 131087" d="M96.915,343.247H50.622v-9.84a3.431,3.431,0,0,0-3.428-3.427h-9.73c-.037,0-.074,0-.111.006V317.928a3.431,3.431,0,0,0-3.428-3.428H24.2a3.431,3.431,0,0,0-3.428,3.428v5.423c-.037,0-.073-.006-.111-.006h-9.73A3.431,3.431,0,0,0,7.5,326.773V329.8a1.658,1.658,0,0,0,3.317,0v-3.025a.111.111,0,0,1,.111-.111h9.73a.111.111,0,0,1,.111.111v16.474H10.818v-6.415a1.658,1.658,0,1,0-3.317,0v6.415H1.658a1.658,1.658,0,0,0,0,3.317H96.915a1.658,1.658,0,0,0,0-3.317ZM24.086,317.928a.111.111,0,0,1,.111-.111h9.73a.111.111,0,0,1,.111.111v25.319H24.086Zm13.268,25.319v-9.84a.111.111,0,0,1,.111-.111h9.73a.111.111,0,0,1,.111.111v9.84Z" transform="translate(0 -256.564)" fill="#286140"/>
    </g>
  </g>
</svg>
