<svg id="laptop" xmlns="http://www.w3.org/2000/svg" width="90" height="90" viewBox="0 0 90 90">
  <path id="Path_131097" data-name="Path 131097" d="M48,448h2.9v2.9H48Zm0,0" transform="translate(-39.29 -366.71)" fill="#286140"/>
  <path id="Path_131098" data-name="Path 131098" d="M80,448h2.9v2.9H80Zm0,0" transform="translate(-65.484 -366.71)" fill="#286140"/>
  <path id="Path_131099" data-name="Path 131099" d="M112,448h2.9v2.9H112Zm0,0" transform="translate(-91.677 -366.71)" fill="#286140"/>
  <path id="Path_131100" data-name="Path 131100" d="M384,448h11.613v2.9H384Zm0,0" transform="translate(-314.323 -366.71)" fill="#286140"/>
  <path id="Path_131101" data-name="Path 131101" d="M87.1,75.484v-47.9a7.267,7.267,0,0,0-7.258-7.258H75.484a20.323,20.323,0,1,0-40.645,0H10.161A7.267,7.267,0,0,0,2.9,27.581v47.9H0v7.258A7.267,7.267,0,0,0,7.258,90H82.742A7.267,7.267,0,0,0,90,82.742V75.484ZM79.839,23.226a4.361,4.361,0,0,1,4.355,4.355v47.9h-2.9V29.032a2.906,2.906,0,0,0-2.9-2.9H74.628a20.181,20.181,0,0,0,.624-2.9ZM38.585,14.988l15.407,6.42,5.276,15.824A17.392,17.392,0,0,1,38.585,14.988ZM62.026,36.327l-5.2-15.612L68.449,9.087a17.387,17.387,0,0,1-6.423,27.24ZM55.161,2.9A17.339,17.339,0,0,1,66.4,7.033L54.823,18.608l-15.113-6.3A17.423,17.423,0,0,1,55.161,2.9ZM5.806,27.581a4.361,4.361,0,0,1,4.355-4.355h24.91a19.989,19.989,0,0,0,.624,2.9H11.613a2.906,2.906,0,0,0-2.9,2.9V75.484h-2.9ZM87.1,82.742A4.361,4.361,0,0,1,82.742,87.1H7.258A4.361,4.361,0,0,1,2.9,82.742V78.387H32.809a11.28,11.28,0,0,0,7.588,2.9H49.6a11.28,11.28,0,0,0,7.588-2.9H75.484v-2.9H56.012l-.425.425A8.4,8.4,0,0,1,49.6,78.387H40.4a8.406,8.406,0,0,1-5.984-2.478l-.424-.425H11.613V29.032H36.827a20.278,20.278,0,0,0,36.667,0h4.892V78.387H87.1Zm0,0" fill="#286140"/>
  <path id="Path_131102" data-name="Path 131102" d="M136.613,296.71a4.33,4.33,0,0,0-2.411.733l-5.064-3.8a4.289,4.289,0,0,0,.218-1.291,4.355,4.355,0,0,0-8.71,0,4.31,4.31,0,0,0,.257,1.42l-8.13,6.5a4.268,4.268,0,0,0-4.885.213l-6.259-4.173a4.259,4.259,0,0,0,.147-1.061,4.355,4.355,0,1,0-8.71,0,4.259,4.259,0,0,0,.147,1.061l-6.259,4.173a4.309,4.309,0,0,0-2.6-.88,4.355,4.355,0,1,0,4.355,4.355,4.259,4.259,0,0,0-.147-1.061l6.259-4.173a4.274,4.274,0,0,0,5.194,0l6.259,4.173a4.269,4.269,0,0,0-.147,1.061,4.355,4.355,0,1,0,8.71,0,4.31,4.31,0,0,0-.257-1.42l8.13-6.5a4.3,4.3,0,0,0,4.7-.067l5.064,3.8a4.289,4.289,0,0,0-.218,1.291,4.355,4.355,0,1,0,4.355-4.355Zm-52.258,8.71a1.452,1.452,0,1,1,1.452-1.452A1.454,1.454,0,0,1,84.355,305.419Zm13.065-8.71a1.452,1.452,0,1,1,1.452-1.452A1.454,1.454,0,0,1,97.419,296.71Zm13.065,8.71a1.452,1.452,0,1,1,1.452-1.452A1.454,1.454,0,0,1,110.484,305.419ZM125,293.806a1.452,1.452,0,1,1,1.452-1.452A1.454,1.454,0,0,1,125,293.806Zm11.613,8.71a1.452,1.452,0,1,1,1.452-1.452A1.454,1.454,0,0,1,136.613,302.516Zm0,0" transform="translate(-65.484 -235.742)" fill="#286140"/>
  <path id="Path_131103" data-name="Path 131103" d="M103.226,176H80v20.323h23.226Zm-2.9,17.419H82.9V178.9h17.419Zm0,0" transform="translate(-65.484 -144.065)" fill="#286140"/>
  <path id="Path_131104" data-name="Path 131104" d="M112,208h11.613v2.9H112Zm0,0" transform="translate(-91.677 -170.258)" fill="#286140"/>
  <path id="Path_131105" data-name="Path 131105" d="M112,240h11.613v2.9H112Zm0,0" transform="translate(-91.677 -196.452)" fill="#286140"/>
  <path id="Path_131106" data-name="Path 131106" d="M224,256h2.9v2.9H224Zm0,0" transform="translate(-183.355 -209.548)" fill="#286140"/>
  <path id="Path_131107" data-name="Path 131107" d="M256,256h29.032v2.9H256Zm0,0" transform="translate(-209.548 -209.548)" fill="#286140"/>
</svg>
