<svg id="locationFooter" xmlns="http://www.w3.org/2000/svg" width="30" height="30" viewBox="0 0 30 30">
  <g id="vuesax_outline_location" data-name="vuesax/outline/location">
    <g id="location">
      <path id="Vector" d="M4.837,9.663A4.831,4.831,0,1,1,9.675,4.838,4.841,4.841,0,0,1,4.837,9.663Zm0-7.788A2.963,2.963,0,1,0,7.8,4.838,2.969,2.969,0,0,0,4.837,1.875Z" transform="translate(10.163 8.05)" fill="#b3862d"/>
      <path id="Vector-2" data-name="Vector" d="M11.721,26.888A7.463,7.463,0,0,1,6.558,24.8C2.871,21.25-1.2,15.587.333,8.85A11.4,11.4,0,0,1,11.721,0h.013A11.394,11.394,0,0,1,23.121,8.863C24.646,15.6,20.571,21.25,16.883,24.8A7.463,7.463,0,0,1,11.721,26.888Zm0-25.013a9.44,9.44,0,0,0-9.55,7.387c-1.35,5.887,2.35,10.963,5.7,14.175a5.532,5.532,0,0,0,7.713,0c3.337-3.212,7.037-8.288,5.712-14.175A9.475,9.475,0,0,0,11.721,1.875Z" transform="translate(3.279 1.563)" fill="#b3862d"/>
      <path id="Vector-3" data-name="Vector" d="M0,0H30V30H0Z" fill="none" opacity="0"/>
    </g>
  </g>
</svg>
