<svg xmlns="http://www.w3.org/2000/svg" width="42.522" height="30" viewBox="0 0 42.522 30">
  <g id="quote" transform="translate(-1 -5.414)">
    <path id="Path_130952" data-name="Path 130952" d="M8.937,25.011a24.033,24.033,0,0,1-4.38,6.917,2.091,2.091,0,0,0-.2,2.523,2.053,2.053,0,0,0,1.758.964,1.73,1.73,0,0,0,.6-.085c4.167-1.219,13.9-5.542,14.174-19.4a10.214,10.214,0,0,0-8.9-10.46A9.936,9.936,0,0,0,1,15.358a9.824,9.824,0,0,0,7.937,9.652Z" transform="translate(0 0)" fill="#c7993b"/>
    <path id="Path_130953" data-name="Path 130953" d="M27.941,5.465A9.934,9.934,0,0,0,16.97,15.358a9.824,9.824,0,0,0,7.937,9.652,24.034,24.034,0,0,1-4.38,6.917,2.091,2.091,0,0,0-.2,2.523,2.053,2.053,0,0,0,1.758.964,1.73,1.73,0,0,0,.6-.085c4.167-1.219,13.9-5.542,14.174-19.4v-.2A10.2,10.2,0,0,0,27.941,5.465Z" transform="translate(6.666 0)" fill="#c7993b"/>
  </g>
</svg>
