<svg xmlns="http://www.w3.org/2000/svg" width="90" height="90" viewBox="0 0 90 90">
  <path id="team" d="M90,37.742H86.738L81.876,40.3a7.217,7.217,0,0,0-1.73-.712l-6.115-1.53v-.7a10.194,10.194,0,0,0,4.356-8.33V26.495a10.429,10.429,0,0,0-9.849-10.523c-.276-.007-.547,0-.82.016L69.3,12.276,61.616,4.592,57.085,7.541a24.554,24.554,0,0,0-5.434-2.254L50.532,0H39.469L38.35,5.288a24.525,24.525,0,0,0-5.434,2.254L28.385,4.593l-7.68,7.68,1.559,3.715c-.06,0-.116-.013-.176-.015A10.165,10.165,0,0,0,11.613,26.129v2.9a10.19,10.19,0,0,0,4.355,8.329v.7l-3.989,1-7.23-4.217H0V64.918l14.281,4.76h2.781l.347-1.216,4.378,2.628a4.519,4.519,0,0,0,4.358,4.379A4.519,4.519,0,0,0,30.5,79.822a4.519,4.519,0,0,0,4.355,4.355,4.515,4.515,0,0,0,7.059,3.584L43.2,88.9A4.42,4.42,0,0,0,46.12,90h.269A4.42,4.42,0,0,0,50.8,85.639a4.415,4.415,0,0,0,4.355-4.355,4.415,4.415,0,0,0,4.355-4.359,4.464,4.464,0,0,0,4.361-4.454,4.25,4.25,0,0,0-.022-.435L90,58.962ZM75.484,26.495v2.537a7.286,7.286,0,0,1-3.633,6.281l-.726.42.006,4.594,7.252,1.812-15.963,8.4V46.63a7.223,7.223,0,0,0-2.079-5.059l4.982-1.245v-4.6l-.724-.419a7.278,7.278,0,0,1-3.63-6.279v-2.9a7.258,7.258,0,0,1,7.483-7.254,7.505,7.505,0,0,1,7.033,7.62Zm-28.3,22.9-6.571-2.1a17.926,17.926,0,0,0-9.3-.424l-.832.184v-.43a4.352,4.352,0,0,1,3.3-4.226L42.1,40.327v-4.6l-.724-.419a7.278,7.278,0,0,1-3.63-6.279v-2.9a7.258,7.258,0,0,1,7.483-7.254,7.505,7.505,0,0,1,7.033,7.62v2.537a7.286,7.286,0,0,1-3.633,6.281l-.726.42.006,4.594L56.218,42.4a4.352,4.352,0,0,1,3.3,4.226v5.439l-.359.189h-.89l-8.924-2.55a9.15,9.15,0,0,0-2.155-.308ZM30.809,21.726a15.957,15.957,0,0,1,28.322-.117,10.1,10.1,0,0,0-1.067,4.52v2.9a10.19,10.19,0,0,0,4.355,8.329v.7l-5.806,1.454L50.8,38.058v-.7a10.194,10.194,0,0,0,4.356-8.33V26.495a10.429,10.429,0,0,0-9.849-10.523A10.163,10.163,0,0,0,34.838,26.129v2.9a10.19,10.19,0,0,0,4.355,8.329v.7l-5.806,1.454-5.808-1.454v-.7a10.194,10.194,0,0,0,4.356-8.33V26.495a10.7,10.7,0,0,0-1.126-4.769Zm-6.676-8.779L28.77,8.309l4.082,2.657.781-.479a21.662,21.662,0,0,1,6.286-2.607l.893-.214L41.822,2.9h6.356l1.007,4.761.893.213a21.683,21.683,0,0,1,6.286,2.608l.781.479,4.082-2.657,4.632,4.633L64.213,16.8a10.146,10.146,0,0,0-3.064,2.037c-.06.058-.111.12-.169.18a18.852,18.852,0,0,0-32.016.087,10.239,10.239,0,0,0-3.2-2.27Zm-5.262,27.38v-4.6l-.724-.419a7.278,7.278,0,0,1-3.63-6.279v-2.9A7.258,7.258,0,0,1,22,18.875a7.505,7.505,0,0,1,7.033,7.62v2.537A7.286,7.286,0,0,1,25.4,35.313l-.726.42.006,4.594,4.981,1.245A7.223,7.223,0,0,0,27.58,46.63v1.075l-4.528,1.006.118-.411.055-2.683L15.57,41.152ZM2.9,37.742H3.961L14.4,43.831,9.133,64.9,2.9,62.824ZM14.751,66.774l-2.857-.952,5.117-20.468,3.311,1.931V47.7L14.873,66.774Zm9.926,4.179a1.639,1.639,0,0,1,.476-1.151l2.552-2.552a1.628,1.628,0,0,1,2.3,2.3L27.456,72.1a1.628,1.628,0,0,1-2.778-1.151Zm4.355,4.355a1.639,1.639,0,0,1,.476-1.151l2.552-2.552a1.628,1.628,0,0,1,2.3,2.3L31.81,76.459a1.628,1.628,0,0,1-2.778-1.151Zm4.355,4.355a1.639,1.639,0,0,1,.476-1.151l2.552-2.552a1.628,1.628,0,0,1,2.3,2.3l-2.552,2.552a1.628,1.628,0,0,1-2.778-1.151Zm5.982,5.982a1.628,1.628,0,0,1-1.151-2.778l2.552-2.552a1.628,1.628,0,0,1,2.3,2.3L40.52,85.169A1.639,1.639,0,0,1,39.369,85.645Zm7.02,1.452H46.12a1.5,1.5,0,0,1-1-.379l-1.086-.958,1.09-1.09a4.513,4.513,0,0,0,.914-1.349l1.32,1.1a1.514,1.514,0,0,1-.97,2.677ZM59.407,74.032h-.251a1.557,1.557,0,0,1-1-.363l-7.872-6.56-1.86,2.231L56.07,75.71a1.515,1.515,0,0,1-.971,2.677h-.317a1.514,1.514,0,0,1-.968-.352l-7.885-6.57L44.069,73.7l7.644,6.37a1.513,1.513,0,0,1-.97,2.675,2.4,2.4,0,0,1-1.527-.553l-3.24-2.7a4.516,4.516,0,0,0-3.9-2.537A4.519,4.519,0,0,0,37.724,72.6a4.519,4.519,0,0,0-4.355-4.355A4.52,4.52,0,0,0,25.652,65.2L23.1,67.749a4.474,4.474,0,0,0-.407.5l-4.459-2.676,3.909-13.681,9.8-2.179a14.954,14.954,0,0,1,7.788.352l2.138.684-7.25,3.625a4.839,4.839,0,0,0-2.686,4.349v.287A4.861,4.861,0,0,0,39.3,63.177L44.7,59.936a3,3,0,0,1,3.481.335L60.451,71.309a1.562,1.562,0,0,1-1.044,2.723ZM87.1,57.167,62.641,69.4c-.079-.084-.162-.164-.249-.242L50.129,58.115a5.842,5.842,0,0,0-6.919-.669L37.8,60.689a1.958,1.958,0,0,1-2.964-1.681v-.287a1.948,1.948,0,0,1,1.083-1.752l8.1-4.049a6.309,6.309,0,0,1,4.524-.42l9.122,2.606,2.209.055L87.1,40.834Zm0,0" transform="translate(0 0)" fill="#286140"/>
</svg>
