<svg xmlns="http://www.w3.org/2000/svg" xmlns:xlink="http://www.w3.org/1999/xlink" width="586" height="637" viewBox="0 0 586 637">
  <defs>
    <clipPath id="clip-path">
      <rect id="Rectangle_15644" data-name="Rectangle 15644" width="586" height="637" rx="12" transform="translate(1094 622)" fill="#fff"/>
    </clipPath>
    <clipPath id="clip-path-2">
      <circle id="Ellipse_11188" data-name="Ellipse 11188" cx="289" cy="289" r="289" transform="translate(176 787)" fill="#fff" stroke="#c7993b" stroke-width="1"/>
    </clipPath>
  </defs>
  <g id="form-pattern" transform="translate(-1094 -622)" clip-path="url(#clip-path)">
    <g id="Mask_Group_12" data-name="Mask Group 12" transform="translate(668 158)" opacity="0.27" clip-path="url(#clip-path-2)">
      <g id="Pattern2" transform="translate(804.66 623.213) rotate(90)">
        <g id="Group_125375" data-name="Group 125375">
          <path id="Path_130768" data-name="Path 130768" d="M952.789,595.393l-56.237-32.416-56.237,32.416L809.933,577.88l-30.381,17.512-56.237-32.416L667.08,595.393,636.7,577.88l-30.379,17.512-56.237-32.416-56.237,32.416L463.466,577.88l-30.382,17.512-56.235-32.416-56.237,32.416L290.231,577.88l-30.381,17.512-56.237-32.416-56.237,32.416L117,577.88,86.617,595.393m60.76-40.985L117,536.9,86.617,554.407m233.995,0L290.231,536.9l-30.381,17.511m234,0L463.466,536.9l-30.382,17.511m234,0L636.7,536.9l-30.379,17.511m233.995,0L809.933,536.9l-30.381,17.511M149.441,607.488l54.267-30.849,53.894,31.5m64.982-.646,54.265-30.849,53.894,31.5m65.073-.646,54.268-30.849,53.892,31.5m65.075-.646,54.265-30.849,53.9,31.5m65.073-.646,54.267-30.849,53.892,31.5m2.345-26.4-56.237-32.416-56.237,32.416-30.382-17.512-30.381,17.512-56.237-32.416L667.08,581.731,636.7,564.219l-30.379,17.512-56.237-32.416-56.237,32.416-30.381-17.512-30.382,17.512-56.235-32.416-56.237,32.416-30.381-17.512-30.381,17.512-56.237-32.416-56.237,32.416L117,564.219,86.617,581.731m866.171-13.663-56.237-32.415-56.237,32.415-30.382-17.511-30.381,17.511-56.237-32.415L667.08,568.069,636.7,550.558l-30.379,17.511-56.237-32.415-56.237,32.415-30.381-17.511-30.382,17.511-56.235-32.415-56.237,32.415-30.381-17.511-30.381,17.511-56.237-32.415-56.237,32.415L117,550.558,86.617,568.069M866.17,648.8l-56.237-32.415L753.7,648.8l-30.381-17.511L692.937,648.8,636.7,616.381,580.463,648.8l-30.379-17.511L519.7,648.8l-56.237-32.415L407.229,648.8l-30.381-17.511L346.468,648.8l-56.237-32.415L233.995,648.8l-30.381-17.511L173.235,648.8,117,616.381,60.761,648.8,30.382,631.286,0,648.8m60.761-40.984L30.382,590.3,0,607.813m233.995,0L203.614,590.3l-30.379,17.512m233.995,0L376.849,590.3l-30.381,17.512m233.995,0L550.084,590.3,519.7,607.813m233.993,0L723.316,590.3l-30.379,17.512M62.825,660.893l54.265-30.85,53.895,31.5m64.979-.645,54.266-30.85,53.895,31.5m65.073-.645,54.267-30.85,53.894,31.5m65.073-.645,54.267-30.85,53.895,31.5m65.073-.645,54.265-30.85,53.895,31.5m2.342-26.4-56.237-32.416L753.7,635.135l-30.381-17.512-30.379,17.512L636.7,602.719l-56.237,32.416-30.379-17.512L519.7,635.135l-56.237-32.416-56.237,32.416-30.381-17.512-30.381,17.512-56.237-32.416-56.237,32.416-30.381-17.512-30.379,17.512L117,602.719,60.761,635.135,30.382,617.623,0,635.135m866.17-13.661-56.237-32.416L753.7,621.474l-30.381-17.512-30.379,17.512L636.7,589.057l-56.237,32.416-30.379-17.512L519.7,621.474l-56.237-32.416-56.237,32.416-30.381-17.512-30.381,17.512-56.237-32.416-56.237,32.416-30.381-17.512-30.379,17.512L117,589.057,60.761,621.474,30.382,603.962,0,621.474M952.789,488.262l-56.237-32.416-56.237,32.416L809.933,470.75l-30.381,17.512-56.237-32.416L667.08,488.262,636.7,470.75l-30.379,17.512-56.237-32.416-56.237,32.416L463.466,470.75l-30.382,17.512-56.235-32.416-56.237,32.416L290.231,470.75l-30.381,17.512-56.237-32.416-56.237,32.416L117,470.75,86.617,488.262m60.76-40.985L117,429.766,86.617,447.277m233.995,0-30.381-17.511-30.381,17.511m234,0-30.381-17.511-30.382,17.511m234,0L636.7,429.766l-30.379,17.511m233.995,0-30.382-17.511-30.381,17.511M149.441,500.357l54.267-30.849L257.6,501m64.982-.646,54.265-30.849L430.742,501m65.073-.646,54.268-30.849L603.976,501m65.075-.646,54.265-30.849,53.9,31.5m65.073-.646,54.267-30.849L950.444,501m2.345-26.4-56.237-32.416L840.315,474.6l-30.382-17.512L779.553,474.6l-56.237-32.416L667.08,474.6,636.7,457.088,606.321,474.6l-56.237-32.416L493.847,474.6l-30.381-17.512L433.084,474.6l-56.235-32.416L320.612,474.6l-30.381-17.512L259.851,474.6l-56.237-32.416L147.377,474.6,117,457.088,86.617,474.6m866.171-13.663-56.237-32.415-56.237,32.415-30.382-17.511-30.381,17.511-56.237-32.415L667.08,460.938,636.7,443.427l-30.379,17.511-56.237-32.415-56.237,32.415-30.381-17.511-30.382,17.511-56.235-32.415-56.237,32.415-30.381-17.511-30.381,17.511-56.237-32.415-56.237,32.415L117,443.427,86.617,460.938M866.17,541.666l-56.237-32.416L753.7,541.666l-30.381-17.512-30.379,17.512L636.7,509.249l-56.237,32.416-30.379-17.512L519.7,541.666l-56.237-32.416-56.237,32.416-30.381-17.512-30.381,17.512-56.237-32.416-56.237,32.416-30.381-17.512-30.379,17.512L117,509.249,60.761,541.666,30.382,524.153,0,541.666m60.761-40.984L30.382,483.17,0,500.682m233.995,0L203.614,483.17l-30.379,17.512m233.995,0L376.849,483.17l-30.381,17.512m233.995,0L550.084,483.17,519.7,500.682m233.993,0L723.316,483.17l-30.379,17.512M62.825,553.761l54.265-30.849,53.895,31.5m64.979-.646,54.266-30.849,53.895,31.5m65.073-.646,54.267-30.849,53.894,31.5m65.073-.646L636.7,522.912l53.895,31.5m65.073-.646,54.265-30.849,53.895,31.5M866.17,528l-56.237-32.416L753.7,528l-30.381-17.512L692.937,528,636.7,495.588,580.463,528l-30.379-17.512L519.7,528l-56.237-32.416L407.229,528l-30.381-17.512L346.468,528l-56.237-32.416L233.995,528l-30.381-17.512L173.235,528,117,495.588,60.761,528,30.382,510.492,0,528m866.17-13.661-56.237-32.416L753.7,514.343l-30.381-17.512-30.379,17.512L636.7,481.927l-56.237,32.416-30.379-17.512L519.7,514.343l-56.237-32.416-56.237,32.416-30.381-17.512-30.381,17.512-56.237-32.416-56.237,32.416-30.381-17.512-30.379,17.512L117,481.927,60.761,514.343,30.382,496.831,0,514.343M952.789,381.131l-56.237-32.416-56.237,32.416-30.382-17.512-30.381,17.512-56.237-32.416L667.08,381.131,636.7,363.619l-30.379,17.512-56.237-32.416-56.237,32.416-30.381-17.512-30.382,17.512-56.235-32.416-56.237,32.416-30.381-17.512-30.381,17.512-56.237-32.416-56.237,32.416L117,363.619,86.617,381.131m60.76-40.985L117,322.634,86.617,340.146m233.995,0-30.381-17.512-30.381,17.512m234,0-30.381-17.512-30.382,17.512m234,0L636.7,322.634l-30.379,17.512m233.995,0-30.382-17.512-30.381,17.512M149.441,393.227l54.267-30.849,53.894,31.5m64.982-.646,54.265-30.849,53.894,31.5m65.073-.646,54.268-30.849,53.892,31.5m65.075-.646,54.265-30.849,53.9,31.5m65.073-.646,54.267-30.849,53.892,31.5m2.345-26.4-56.237-32.416L840.315,367.47l-30.382-17.512L779.553,367.47l-56.237-32.416L667.08,367.47,636.7,349.958,606.321,367.47l-56.237-32.416L493.847,367.47l-30.381-17.512L433.084,367.47l-56.235-32.416L320.612,367.47l-30.381-17.512L259.851,367.47l-56.237-32.416L147.377,367.47,117,349.958,86.617,367.47m866.171-13.663-56.237-32.415-56.237,32.415L809.933,336.3l-30.381,17.511-56.237-32.415L667.08,353.807,636.7,336.3l-30.379,17.511-56.237-32.415-56.237,32.415L463.466,336.3l-30.382,17.511-56.235-32.415-56.237,32.415L290.231,336.3l-30.381,17.511-56.237-32.415-56.237,32.415L117,336.3,86.617,353.807M866.17,434.535l-56.237-32.416L753.7,434.535l-30.381-17.512-30.379,17.512L636.7,402.119l-56.237,32.416-30.379-17.512L519.7,434.535l-56.237-32.416-56.237,32.416-30.381-17.512-30.381,17.512-56.237-32.416-56.237,32.416-30.381-17.512-30.379,17.512L117,402.119,60.761,434.535,30.382,417.023,0,434.535M60.761,393.55,30.382,376.039,0,393.55m233.995,0-30.381-17.511L173.235,393.55m233.995,0-30.381-17.511L346.468,393.55m233.995,0-30.379-17.511L519.7,393.55m233.993,0-30.381-17.511L692.937,393.55M62.825,446.632l54.265-30.85,53.895,31.5m64.979-.645,54.266-30.85,53.895,31.5m65.073-.645,54.267-30.85,53.894,31.5m65.073-.645,54.267-30.85,53.895,31.5m65.073-.645,54.265-30.85,53.895,31.5m2.342-26.4-56.237-32.416L753.7,420.874l-30.381-17.512-30.379,17.512L636.7,388.457l-56.237,32.416-30.379-17.512L519.7,420.874l-56.237-32.416-56.237,32.416-30.381-17.512-30.381,17.512-56.237-32.416-56.237,32.416-30.381-17.512-30.379,17.512L117,388.457,60.761,420.874,30.382,403.361,0,420.874m866.17-13.661L809.933,374.8,753.7,407.212,723.316,389.7l-30.379,17.512L636.7,374.8l-56.237,32.416L550.084,389.7,519.7,407.212,463.466,374.8l-56.237,32.416L376.849,389.7l-30.381,17.512L290.231,374.8l-56.237,32.416L203.614,389.7l-30.379,17.512L117,374.8,60.761,407.212,30.382,389.7,0,407.212M952.789,274l-56.237-32.416L840.315,274l-30.382-17.512L779.553,274l-56.237-32.416L667.08,274,636.7,256.488,606.321,274l-56.237-32.416L493.847,274l-30.381-17.512L433.084,274l-56.235-32.416L320.612,274l-30.381-17.512L259.851,274l-56.237-32.416L147.377,274,117,256.488,86.617,274m60.76-40.985L117,215.5,86.617,233.015m233.995,0L290.231,215.5l-30.381,17.512m234,0L463.466,215.5l-30.382,17.512m234,0L636.7,215.5l-30.379,17.512m233.995,0L809.933,215.5l-30.381,17.512M149.441,286.1l54.267-30.85,53.894,31.5m64.982-.646,54.265-30.85,53.894,31.5m65.073-.646,54.268-30.85,53.892,31.5m65.075-.646,54.265-30.85,53.9,31.5m65.073-.646,54.267-30.85,53.892,31.5m2.345-26.4-56.237-32.415-56.237,32.415-30.382-17.511-30.381,17.511-56.237-32.415L667.08,260.338,636.7,242.827l-30.379,17.511-56.237-32.415-56.237,32.415-30.381-17.511-30.382,17.511-56.235-32.415-56.237,32.415-30.381-17.511-30.381,17.511-56.237-32.415-56.237,32.415L117,242.827,86.617,260.338m866.171-13.661-56.237-32.415-56.237,32.415-30.382-17.511-30.381,17.511-56.237-32.415L667.08,246.676,636.7,229.166l-30.379,17.511-56.237-32.415-56.237,32.415-30.381-17.511-30.382,17.511-56.235-32.415-56.237,32.415-30.381-17.511-30.381,17.511-56.237-32.415-56.237,32.415L117,229.166,86.617,246.676M866.17,327.4l-56.237-32.416L753.7,327.4l-30.381-17.512L692.937,327.4,636.7,294.988,580.463,327.4l-30.379-17.512L519.7,327.4l-56.237-32.416L407.229,327.4l-30.381-17.512L346.468,327.4l-56.237-32.416L233.995,327.4l-30.381-17.512L173.235,327.4,117,294.988,60.761,327.4,30.382,309.892,0,327.4m60.761-40.985L30.382,268.908,0,286.419m233.995,0-30.381-17.511-30.379,17.511m233.995,0-30.381-17.511-30.381,17.511m233.995,0-30.379-17.511L519.7,286.419m233.993,0-30.381-17.511-30.379,17.511M62.825,339.5l54.265-30.849,53.895,31.5m64.979-.646,54.266-30.849,53.895,31.5M409.2,339.5l54.267-30.849,53.894,31.5m65.073-.646L636.7,308.651l53.895,31.5m65.073-.646,54.265-30.849,53.895,31.5m2.342-26.4-56.237-32.416L753.7,313.743l-30.381-17.512-30.379,17.512L636.7,281.327l-56.237,32.416-30.379-17.512L519.7,313.743l-56.237-32.416-56.237,32.416-30.381-17.512-30.381,17.512-56.237-32.416-56.237,32.416-30.381-17.512-30.379,17.512L117,281.327,60.761,313.743,30.382,296.231,0,313.743m866.17-13.661-56.237-32.416L753.7,300.082l-30.381-17.512-30.379,17.512L636.7,267.665l-56.237,32.416-30.379-17.512L519.7,300.082l-56.237-32.416-56.237,32.416-30.381-17.512-30.381,17.512-56.237-32.416-56.237,32.416-30.381-17.512-30.379,17.512L117,267.665,60.761,300.082,30.382,282.569,0,300.082M952.789,166.87l-56.237-32.416L840.315,166.87l-30.382-17.512L779.553,166.87l-56.237-32.416L667.08,166.87,636.7,149.357,606.321,166.87l-56.237-32.416L493.847,166.87l-30.381-17.512L433.084,166.87l-56.235-32.416L320.612,166.87l-30.381-17.512L259.851,166.87l-56.237-32.416L147.377,166.87,117,149.357,86.617,166.87m60.76-40.985L117,108.372,86.617,125.884m233.995,0-30.381-17.512-30.381,17.512m234,0-30.381-17.512-30.382,17.512m234,0L636.7,108.372l-30.379,17.512m233.995,0-30.382-17.512-30.381,17.512M149.441,178.965l54.267-30.85,53.894,31.5m64.982-.646,54.265-30.85,53.894,31.5m65.073-.646,54.268-30.85,53.892,31.5m65.075-.646,54.265-30.85,53.9,31.5m65.073-.646,54.267-30.85,53.892,31.5m2.345-26.4-56.237-32.415-56.237,32.415L809.933,135.7l-30.381,17.511-56.237-32.415L667.08,153.207,636.7,135.7l-30.379,17.511-56.237-32.415-56.237,32.415L463.466,135.7l-30.382,17.511-56.235-32.415-56.237,32.415L290.231,135.7l-30.381,17.511-56.237-32.415-56.237,32.415L117,135.7,86.617,153.207m866.171-13.661-56.237-32.416-56.237,32.416-30.382-17.511-30.381,17.511-56.237-32.416L667.08,139.546,636.7,122.035l-30.379,17.511-56.237-32.416-56.237,32.416-30.381-17.511-30.382,17.511-56.235-32.416-56.237,32.416-30.381-17.511-30.381,17.511-56.237-32.416-56.237,32.416L117,122.035,86.617,139.546M866.17,220.274l-56.237-32.416L753.7,220.274l-30.381-17.512-30.379,17.512L636.7,187.857l-56.237,32.416-30.379-17.512L519.7,220.274l-56.237-32.416-56.237,32.416-30.381-17.512-30.381,17.512-56.237-32.416-56.237,32.416-30.381-17.512-30.379,17.512L117,187.857,60.761,220.274,30.382,202.761,0,220.274m60.761-40.985L30.382,161.777,0,179.288m233.995,0-30.381-17.511-30.379,17.511m233.995,0-30.381-17.511-30.381,17.511m233.995,0-30.379-17.511L519.7,179.288m233.993,0-30.381-17.511-30.379,17.511M62.825,232.369l54.265-30.849,53.895,31.5m64.979-.646,54.266-30.849,53.895,31.5m65.073-.646,54.267-30.849,53.894,31.5m65.073-.646L636.7,201.52l53.895,31.5m65.073-.646,54.265-30.849,53.895,31.5m2.342-26.4L809.933,174.2,753.7,206.612,723.316,189.1l-30.379,17.512L636.7,174.2l-56.237,32.416L550.084,189.1,519.7,206.612,463.466,174.2l-56.237,32.416L376.849,189.1l-30.381,17.512L290.231,174.2l-56.237,32.416L203.614,189.1l-30.379,17.512L117,174.2,60.761,206.612,30.382,189.1,0,206.612m866.17-13.663-56.237-32.415L753.7,192.949l-30.381-17.511-30.379,17.511L636.7,160.535l-56.237,32.415-30.379-17.511L519.7,192.949l-56.237-32.415-56.237,32.415-30.381-17.511-30.381,17.511-56.237-32.415-56.237,32.415-30.381-17.511-30.379,17.511L117,160.535,60.761,192.949,30.382,175.439,0,192.949M952.789,59.739,896.552,27.323,840.315,59.739,809.933,42.227,779.553,59.739,723.316,27.323,667.08,59.739,636.7,42.227,606.321,59.739,550.084,27.323,493.847,59.739,463.466,42.227,433.084,59.739,376.849,27.323,320.612,59.739,290.231,42.227,259.851,59.739,203.614,27.323,147.377,59.739,117,42.227,86.617,59.739m60.76-40.985L117,1.241,86.617,18.754m233.995,0L290.231,1.241,259.851,18.754m234,0L463.466,1.241,433.084,18.754m234,0L636.7,1.241,606.321,18.754m233.995,0L809.933,1.241,779.553,18.754M149.441,71.834l54.267-30.85,53.894,31.5m64.982-.646,54.265-30.85,53.894,31.5m65.073-.646,54.268-30.85,53.892,31.5m65.075-.646,54.265-30.85,53.9,31.5m65.073-.646,54.267-30.85,53.892,31.5m2.345-26.4L896.552,13.661,840.315,46.076,809.933,28.565,779.553,46.076,723.316,13.661,667.08,46.076,636.7,28.565,606.321,46.076,550.084,13.661,493.847,46.076,463.466,28.565,433.084,46.076,376.849,13.661,320.612,46.076,290.231,28.565,259.851,46.076,203.614,13.661,147.377,46.076,117,28.565,86.617,46.076M952.789,32.415,896.552,0,840.315,32.415,809.933,14.9,779.553,32.415,723.316,0,667.08,32.415,636.7,14.9,606.321,32.415,550.084,0,493.847,32.415,463.466,14.9,433.084,32.415,376.849,0,320.612,32.415,290.231,14.9,259.851,32.415,203.614,0,147.377,32.415,117,14.9,86.617,32.415M866.17,113.143,809.933,80.726,753.7,113.143,723.316,95.631l-30.379,17.512L636.7,80.726l-56.237,32.416L550.084,95.631,519.7,113.143,463.466,80.726l-56.237,32.416L376.849,95.631l-30.381,17.512L290.231,80.726l-56.237,32.416L203.614,95.631l-30.379,17.512L117,80.726,60.761,113.143,30.382,95.631,0,113.143M60.761,72.157,30.382,54.645,0,72.157m233.995,0L203.614,54.645,173.235,72.157m233.995,0L376.849,54.645,346.468,72.157m233.995,0L550.084,54.645,519.7,72.157m233.993,0L723.316,54.645,692.937,72.157M62.825,125.238l54.265-30.849,53.895,31.5m64.979-.646,54.266-30.849,53.895,31.5m65.073-.646,54.267-30.849,53.894,31.5m65.073-.646L636.7,94.389l53.895,31.5m65.073-.646,54.265-30.849,53.895,31.5m2.342-26.4L809.933,67.065,753.7,99.481,723.316,81.969,692.937,99.481,636.7,67.065,580.463,99.481,550.084,81.969,519.7,99.481,463.466,67.065,407.229,99.481,376.849,81.969,346.468,99.481,290.231,67.065,233.995,99.481,203.614,81.969,173.235,99.481,117,67.065,60.761,99.481,30.382,81.969,0,99.481M866.17,85.819,809.933,53.4,753.7,85.819,723.316,68.308,692.937,85.819,636.7,53.4,580.463,85.819,550.084,68.308,519.7,85.819,463.466,53.4,407.229,85.819,376.849,68.308,346.468,85.819,290.231,53.4,233.995,85.819,203.614,68.308,173.235,85.819,117,53.4,60.761,85.819,30.382,68.308,0,85.819" fill="none" stroke="#c7993b" stroke-miterlimit="10" stroke-width="1.363"/>
        </g>
      </g>
    </g>
  </g>
</svg>
