<svg xmlns="http://www.w3.org/2000/svg" xmlns:xlink="http://www.w3.org/1999/xlink" width="1196" height="466" viewBox="0 0 1196 466">
  <defs>
    <clipPath id="clip-path">
      <rect id="Rectangle_15633" data-name="Rectangle 15633" width="1196" height="466" transform="translate(362 2247)" fill="#fff"/>
    </clipPath>
    <clipPath id="clip-path-2">
      <circle id="Ellipse_11185" data-name="Ellipse 11185" cx="249" cy="249" r="249" transform="translate(0.56 0.727)" fill="#fff" stroke="#b3862d" stroke-width="1"/>
    </clipPath>
  </defs>
  <g id="Mask_Group_11" data-name="Mask Group 11" transform="translate(-362 -2247)" clip-path="url(#clip-path)">
    <g id="Mask_GroupValue" data-name="Mask GroupValue" transform="translate(710.44 2463.273)" opacity="0.18" clip-path="url(#clip-path-2)">
      <g id="Artwork_1" data-name="Artwork 1" transform="translate(-135.72 -17.978)">
        <path id="Path_131135" data-name="Path 131135" d="M771.776,482.279l-45.553-26.258L680.67,482.279l-24.61-14.185-24.609,14.185L585.9,456.021l-45.552,26.258-24.609-14.185-24.608,14.185-45.553-26.258-45.553,26.258-24.609-14.185-24.61,14.185-45.552-26.258L259.7,482.279l-24.609-14.185-24.609,14.185-45.553-26.258-45.553,26.258L94.77,468.093,70.162,482.279m49.216-33.2L94.77,434.9,70.162,449.08m189.54,0L235.093,434.9,210.484,449.08m189.541,0L375.416,434.9l-24.61,14.184m189.541,0L515.738,434.9,491.131,449.08m189.54,0L656.06,434.9,631.451,449.08m-510.4,43,43.957-24.988L208.662,492.6m52.637-.524,43.956-24.988L348.909,492.6m52.711-.524,43.958-24.988L489.231,492.6m52.712-.524L585.9,467.088,629.556,492.6m52.711-.524,43.957-24.988L769.877,492.6m1.9-21.387-45.553-26.258L680.67,471.213l-24.61-14.185-24.609,14.185L585.9,444.955l-45.552,26.258-24.609-14.185-24.608,14.185-45.553-26.258-45.553,26.258-24.609-14.185-24.61,14.185-45.552-26.258L259.7,471.213l-24.609-14.185-24.609,14.185-45.553-26.258-45.553,26.258L94.77,457.028,70.162,471.213m701.614-11.067-45.553-26.257L680.67,460.146l-24.61-14.184-24.609,14.184L585.9,433.889l-45.552,26.257-24.609-14.184-24.608,14.184-45.553-26.257-45.553,26.257-24.609-14.184-24.61,14.184-45.552-26.257L259.7,460.146l-24.609-14.184-24.609,14.184-45.553-26.257-45.553,26.257L94.77,445.962,70.162,460.146m631.452,65.391L656.06,499.28l-45.553,26.257L585.9,511.353l-24.608,14.184L515.738,499.28l-45.553,26.257-24.608-14.184-24.609,14.184L375.416,499.28l-45.553,26.257-24.609-14.184-24.609,14.184L235.093,499.28,189.54,525.537l-24.609-14.184-24.608,14.184L94.77,499.28,49.218,525.537,24.61,511.353,0,525.537m49.218-33.2L24.61,478.154,0,492.339m189.54,0-24.609-14.185-24.608,14.185m189.54,0-24.609-14.185-24.609,14.185m189.54,0-24.608-14.185-24.609,14.185m189.539,0L585.9,478.154l-24.608,14.185m-510.4,43,43.956-24.989L138.5,535.858m52.635-.522,43.957-24.989,43.656,25.512m52.711-.522,43.957-24.989,43.655,25.512m52.711-.522,43.957-24.989,43.656,25.512m52.711-.522,43.956-24.989,43.656,25.512m1.9-21.387L656.06,488.213l-45.553,26.258L585.9,500.286l-24.608,14.185-45.553-26.258-45.553,26.258-24.608-14.185-24.609,14.185-45.553-26.258-45.553,26.258-24.609-14.185-24.609,14.185-45.553-26.258L189.54,514.471l-24.609-14.185-24.608,14.185L94.77,488.213,49.218,514.471,24.61,500.286,0,514.471M701.613,503.4,656.06,477.147,610.508,503.4,585.9,489.22,561.291,503.4l-45.553-26.258L470.185,503.4,445.578,489.22,420.969,503.4l-45.553-26.258L329.863,503.4,305.254,489.22,280.646,503.4l-45.553-26.258L189.54,503.4,164.931,489.22,140.323,503.4,94.77,477.147,49.218,503.4,24.61,489.22,0,503.4M771.776,395.5l-45.553-26.258L680.67,395.5l-24.61-14.185L631.451,395.5,585.9,369.243,540.347,395.5l-24.609-14.185L491.131,395.5l-45.553-26.258L400.025,395.5l-24.609-14.185L350.806,395.5l-45.552-26.258L259.7,395.5l-24.609-14.185L210.484,395.5l-45.553-26.258L119.378,395.5,94.77,381.316,70.162,395.5m49.216-33.2L94.77,348.118,70.162,362.3m189.54,0-24.609-14.184L210.484,362.3m189.541,0-24.609-14.184L350.806,362.3m189.541,0-24.609-14.184L491.131,362.3m189.54,0-24.61-14.184L631.451,362.3m-510.4,43,43.957-24.988,43.655,25.512M261.3,405.3l43.956-24.988,43.655,25.512m52.711-.524,43.958-24.988,43.654,25.512m52.712-.524L585.9,380.31l43.657,25.512m52.711-.524,43.957-24.988,43.653,25.512m1.9-21.387-45.553-26.258L680.67,384.435,656.06,370.25l-24.609,14.185L585.9,358.177l-45.552,26.258L515.738,370.25l-24.608,14.185-45.553-26.258-45.553,26.258L375.416,370.25l-24.61,14.185-45.552-26.258L259.7,384.435,235.093,370.25l-24.609,14.185-45.553-26.258-45.553,26.258L94.77,370.25,70.162,384.435m701.614-11.067-45.553-26.257L680.67,373.368l-24.61-14.184-24.609,14.184L585.9,347.111l-45.552,26.257-24.609-14.184-24.608,14.184-45.553-26.257-45.553,26.257-24.609-14.184-24.61,14.184-45.552-26.257L259.7,373.368l-24.609-14.184-24.609,14.184-45.553-26.257-45.553,26.257L94.77,359.184,70.162,373.368m631.452,65.391L656.06,412.5l-45.553,26.258L585.9,424.574l-24.608,14.185L515.738,412.5l-45.553,26.258-24.608-14.185-24.609,14.185L375.416,412.5l-45.553,26.258-24.609-14.185-24.609,14.185L235.093,412.5,189.54,438.759l-24.609-14.185-24.608,14.185L94.77,412.5,49.218,438.759,24.61,424.574,0,438.759m49.218-33.2L24.61,391.376,0,405.561m189.54,0-24.609-14.185-24.608,14.185m189.54,0-24.609-14.185-24.609,14.185m189.54,0-24.608-14.185-24.609,14.185m189.539,0L585.9,391.376l-24.608,14.185m-510.4,43,43.956-24.988L138.5,449.08m52.635-.524,43.957-24.988,43.656,25.512m52.711-.524,43.957-24.988,43.655,25.512m52.711-.524,43.957-24.988,43.656,25.512m52.711-.524,43.956-24.988,43.656,25.512m1.9-21.387L656.06,401.435l-45.553,26.258L585.9,413.508l-24.608,14.185-45.553-26.258-45.553,26.258-24.608-14.185-24.609,14.185-45.553-26.258-45.553,26.258-24.609-14.185-24.609,14.185-45.553-26.258L189.54,427.693l-24.609-14.185-24.608,14.185L94.77,401.435,49.218,427.693,24.61,413.508,0,427.693m701.613-11.066L656.06,390.369l-45.553,26.258L585.9,402.442l-24.608,14.185-45.553-26.258-45.553,26.258-24.608-14.185-24.609,14.185-45.553-26.258-45.553,26.258-24.609-14.185-24.609,14.185-45.553-26.258L189.54,416.627l-24.609-14.185-24.608,14.185L94.77,390.369,49.218,416.627,24.61,402.442,0,416.627m771.776-107.9-45.553-26.258L680.67,308.723l-24.61-14.185-24.609,14.185L585.9,282.465l-45.552,26.258-24.609-14.185-24.608,14.185-45.553-26.258-45.553,26.258-24.609-14.185-24.61,14.185-45.552-26.258L259.7,308.723l-24.609-14.185-24.609,14.185-45.553-26.258-45.553,26.258L94.77,294.538,70.162,308.723m49.216-33.2L94.77,261.339,70.162,275.524m189.54,0-24.609-14.185-24.609,14.185m189.541,0-24.609-14.185-24.61,14.185m189.541,0-24.609-14.185-24.608,14.185m189.54,0-24.61-14.185-24.609,14.185m-510.4,43,43.957-24.988,43.655,25.512m52.637-.524,43.956-24.988,43.655,25.512m52.711-.524,43.958-24.988,43.654,25.512m52.712-.524L585.9,293.532l43.657,25.512m52.711-.524,43.957-24.988,43.653,25.512m1.9-21.387L726.223,271.4,680.67,297.657l-24.61-14.185-24.609,14.185L585.9,271.4l-45.552,26.258-24.609-14.185-24.608,14.185L445.578,271.4l-45.553,26.258-24.609-14.185-24.61,14.185L305.254,271.4,259.7,297.657l-24.609-14.185-24.609,14.185L164.931,271.4l-45.553,26.258L94.77,283.472,70.162,297.657M771.776,286.59l-45.553-26.257L680.67,286.59l-24.61-14.184L631.451,286.59,585.9,260.333,540.347,286.59l-24.609-14.184L491.131,286.59l-45.553-26.257L400.025,286.59l-24.609-14.184-24.61,14.184-45.552-26.257L259.7,286.59l-24.609-14.184L210.484,286.59l-45.553-26.257L119.378,286.59,94.77,272.406,70.162,286.59m631.452,65.391L656.06,325.723l-45.553,26.258L585.9,337.8l-24.608,14.185-45.553-26.258-45.553,26.258L445.578,337.8l-24.609,14.185-45.553-26.258-45.553,26.258L305.254,337.8l-24.609,14.185-45.553-26.258L189.54,351.981,164.931,337.8l-24.608,14.185L94.77,325.723,49.218,351.981,24.61,337.8,0,351.981m49.218-33.2L24.61,304.6,0,318.782m189.54,0L164.931,304.6l-24.608,14.184m189.54,0L305.254,304.6l-24.609,14.184m189.54,0L445.578,304.6l-24.609,14.184m189.539,0L585.9,304.6l-24.608,14.184m-510.4,43L94.845,336.79,138.5,362.3m52.635-.522,43.957-24.989L278.749,362.3m52.711-.522,43.957-24.989L419.071,362.3m52.711-.522,43.957-24.989L559.394,362.3m52.711-.522L656.06,336.79,699.716,362.3m1.9-21.387L656.06,314.657l-45.553,26.258L585.9,326.73l-24.608,14.185-45.553-26.258-45.553,26.258L445.578,326.73l-24.609,14.185-45.553-26.258-45.553,26.258L305.254,326.73l-24.609,14.185-45.553-26.258L189.54,340.915,164.931,326.73l-24.608,14.185L94.77,314.657,49.218,340.915,24.61,326.73,0,340.915m701.613-11.066L656.06,303.591l-45.553,26.258L585.9,315.664l-24.608,14.185-45.553-26.258-45.553,26.258-24.608-14.185-24.609,14.185-45.553-26.258-45.553,26.258-24.609-14.185-24.609,14.185-45.553-26.258L189.54,329.849l-24.609-14.185-24.608,14.185L94.77,303.591,49.218,329.849,24.61,315.664,0,329.849m771.776-107.9-45.553-26.258L680.67,221.945,656.06,207.76l-24.609,14.185L585.9,195.687l-45.552,26.258L515.738,207.76l-24.608,14.185-45.553-26.258-45.553,26.258L375.416,207.76l-24.61,14.185-45.552-26.258L259.7,221.945,235.093,207.76l-24.609,14.185-45.553-26.258-45.553,26.258L94.77,207.76,70.162,221.945m49.216-33.2L94.77,174.561,70.162,188.746m189.54,0-24.609-14.185-24.609,14.185m189.541,0-24.609-14.185-24.61,14.185m189.541,0-24.609-14.185-24.608,14.185m189.54,0-24.61-14.185-24.609,14.185m-510.4,43,43.957-24.989,43.655,25.513m52.637-.524,43.956-24.989,43.655,25.513m52.711-.524,43.958-24.989,43.654,25.513m52.712-.524L585.9,206.753l43.657,25.513m52.711-.524,43.957-24.989,43.653,25.513m1.9-21.388-45.553-26.257L680.67,210.878l-24.61-14.184-24.609,14.184L585.9,184.622l-45.552,26.257-24.609-14.184-24.608,14.184-45.553-26.257-45.553,26.257-24.609-14.184-24.61,14.184-45.552-26.257L259.7,210.878l-24.609-14.184-24.609,14.184-45.553-26.257-45.553,26.257L94.77,196.694,70.162,210.878m701.614-11.066-45.553-26.257L680.67,199.812l-24.61-14.184-24.609,14.184L585.9,173.556l-45.552,26.257-24.609-14.184-24.608,14.184-45.553-26.257-45.553,26.257-24.609-14.184-24.61,14.184-45.552-26.257L259.7,199.812l-24.609-14.184-24.609,14.184-45.553-26.257-45.553,26.257L94.77,185.628,70.162,199.812M701.613,265.2,656.06,238.945,610.508,265.2,585.9,251.018,561.291,265.2l-45.553-26.258L470.185,265.2l-24.608-14.185L420.969,265.2l-45.553-26.258L329.863,265.2l-24.609-14.185L280.646,265.2l-45.553-26.258L189.54,265.2l-24.609-14.185L140.323,265.2,94.77,238.945,49.218,265.2,24.61,251.018,0,265.2M49.218,232,24.61,217.82,0,232m189.54,0L164.931,217.82,140.323,232m189.54,0L305.254,217.82,280.646,232m189.54,0L445.578,217.82,420.969,232m189.539,0L585.9,217.82,561.291,232M50.89,275l43.956-24.988L138.5,275.524M191.136,275l43.957-24.988,43.656,25.512M331.459,275l43.957-24.988,43.655,25.512M471.781,275l43.957-24.988,43.656,25.512M612.1,275l43.956-24.988,43.656,25.512m1.9-21.387L656.06,227.88l-45.553,26.258L585.9,239.952l-24.608,14.185L515.738,227.88l-45.553,26.258-24.608-14.185-24.609,14.185L375.416,227.88l-45.553,26.258-24.609-14.185-24.609,14.185L235.093,227.88,189.54,254.137l-24.609-14.185-24.608,14.185L94.77,227.88,49.218,254.137,24.61,239.952,0,254.137m701.613-11.066L656.06,216.814l-45.553,26.258L585.9,228.886l-24.608,14.185-45.553-26.258-45.553,26.258-24.608-14.185-24.609,14.185-45.553-26.258-45.553,26.258-24.609-14.185-24.609,14.185-45.553-26.258L189.54,243.072l-24.609-14.185-24.608,14.185L94.77,216.814,49.218,243.072,24.61,228.886,0,243.072m771.776-107.9L726.223,108.91,680.67,135.167l-24.61-14.185-24.609,14.185L585.9,108.91l-45.552,26.258-24.609-14.185-24.608,14.185L445.578,108.91l-45.553,26.258-24.609-14.185-24.61,14.185L305.254,108.91,259.7,135.167l-24.609-14.185-24.609,14.185L164.931,108.91l-45.553,26.258L94.77,120.982,70.162,135.167m49.216-33.2L94.77,87.783,70.162,101.969m189.54,0L235.093,87.783l-24.609,14.185m189.541,0L375.416,87.783l-24.61,14.185m189.541,0L515.738,87.783l-24.608,14.185m189.54,0L656.06,87.783l-24.609,14.185m-510.4,43,43.957-24.989,43.655,25.513m52.637-.524,43.956-24.989,43.655,25.513m52.711-.524,43.958-24.989,43.654,25.513m52.712-.524L585.9,119.975l43.657,25.513m52.711-.524,43.957-24.989,43.653,25.513m1.9-21.388L726.223,97.844,680.67,124.1l-24.61-14.184L631.451,124.1,585.9,97.844,540.347,124.1l-24.609-14.184L491.131,124.1,445.578,97.844,400.025,124.1l-24.609-14.184L350.806,124.1,305.254,97.844,259.7,124.1l-24.609-14.184L210.484,124.1,164.931,97.844,119.378,124.1,94.77,109.916,70.162,124.1m701.614-11.066L726.223,86.777,680.67,113.035,656.06,98.85l-24.609,14.184L585.9,86.777l-45.552,26.258L515.738,98.85l-24.608,14.184L445.578,86.777l-45.553,26.258L375.416,98.85l-24.61,14.184L305.254,86.777,259.7,113.035,235.093,98.85l-24.609,14.184L164.931,86.777l-45.553,26.258L94.77,98.85,70.162,113.035m631.452,65.391L656.06,152.168l-45.553,26.258L585.9,164.24l-24.608,14.185-45.553-26.258-45.553,26.258L445.578,164.24l-24.609,14.185-45.553-26.258-45.553,26.258L305.254,164.24l-24.609,14.185-45.553-26.258L189.54,178.425,164.931,164.24l-24.608,14.185L94.77,152.168,49.218,178.425,24.61,164.24,0,178.425m49.218-33.2L24.61,131.043,0,145.227m189.54,0-24.609-14.184-24.608,14.184m189.54,0-24.609-14.184-24.609,14.184m189.54,0-24.608-14.184-24.609,14.184m189.539,0L585.9,131.043l-24.608,14.184m-510.4,43,43.956-24.988L138.5,188.746m52.635-.524,43.957-24.988,43.656,25.512m52.711-.524,43.957-24.988,43.655,25.512m52.711-.524,43.957-24.988,43.656,25.512m52.711-.524,43.956-24.988,43.656,25.512m1.9-21.387L656.06,141.1,610.508,167.36,585.9,153.174,561.291,167.36,515.738,141.1,470.185,167.36l-24.608-14.185L420.969,167.36,375.416,141.1,329.863,167.36l-24.609-14.185L280.646,167.36,235.093,141.1,189.54,167.36l-24.609-14.185L140.323,167.36,94.77,141.1,49.218,167.36,24.61,153.174,0,167.36m701.613-11.067L656.06,130.036l-45.553,26.257L585.9,142.108l-24.608,14.184-45.553-26.257-45.553,26.257-24.608-14.184-24.609,14.184-45.553-26.257-45.553,26.257-24.609-14.184-24.609,14.184-45.553-26.257L189.54,156.293l-24.609-14.184-24.608,14.184L94.77,130.036,49.218,156.293,24.61,142.108,0,156.293M771.776,48.39,726.223,22.132,680.67,48.39,656.06,34.2,631.451,48.39,585.9,22.132,540.347,48.39,515.738,34.2,491.131,48.39,445.578,22.132,400.025,48.39,375.416,34.2,350.806,48.39,305.254,22.132,259.7,48.39,235.093,34.2,210.484,48.39,164.931,22.132,119.378,48.39,94.77,34.2,70.162,48.39m49.216-33.2L94.77,1.006,70.162,15.191m189.54,0L235.093,1.006,210.484,15.191m189.541,0L375.416,1.006l-24.61,14.185m189.541,0L515.738,1.006,491.131,15.191m189.54,0L656.06,1.006,631.451,15.191m-510.4,43L165.007,33.2l43.655,25.513m52.637-.524L305.254,33.2l43.655,25.513m52.711-.524L445.578,33.2l43.654,25.513m52.712-.524L585.9,33.2l43.657,25.513m52.711-.524L726.223,33.2l43.653,25.513m1.9-21.388L726.223,11.066,680.67,37.323,656.06,23.139,631.451,37.323,585.9,11.066,540.347,37.323,515.738,23.139,491.131,37.323,445.578,11.066,400.025,37.323,375.416,23.139l-24.61,14.184L305.254,11.066,259.7,37.323,235.093,23.139,210.484,37.323,164.931,11.066,119.378,37.323,94.77,23.139,70.162,37.323M771.776,26.257,726.223,0,680.67,26.257,656.06,12.071,631.451,26.257,585.9,0,540.347,26.257,515.738,12.071,491.131,26.257,445.578,0,400.025,26.257,375.416,12.071l-24.61,14.185L305.254,0,259.7,26.257,235.093,12.071,210.484,26.257,164.931,0,119.378,26.257,94.77,12.071,70.162,26.257M701.613,91.648,656.06,65.39,610.508,91.648,585.9,77.462,561.291,91.648,515.738,65.39,470.185,91.648,445.578,77.462,420.969,91.648,375.416,65.39,329.863,91.648,305.254,77.462,280.646,91.648,235.093,65.39,189.54,91.648,164.931,77.462,140.323,91.648,94.77,65.39,49.218,91.648,24.61,77.462,0,91.648m49.218-33.2L24.61,44.264,0,58.449m189.54,0L164.931,44.264,140.323,58.449m189.54,0L305.254,44.264,280.646,58.449m189.54,0L445.578,44.264,420.969,58.449m189.539,0L585.9,44.264,561.291,58.449m-510.4,43L94.845,76.457,138.5,101.969m52.635-.524,43.957-24.988,43.656,25.512m52.711-.524,43.957-24.988,43.655,25.512m52.711-.524,43.957-24.988,43.656,25.512m52.711-.524L656.06,76.457l43.656,25.512m1.9-21.387L656.06,54.324,610.508,80.582,585.9,66.4,561.291,80.582,515.738,54.324,470.185,80.582,445.578,66.4,420.969,80.582,375.416,54.324,329.863,80.582,305.254,66.4,280.646,80.582,235.093,54.324,189.54,80.582,164.931,66.4,140.323,80.582,94.77,54.324,49.218,80.582,24.61,66.4,0,80.582M701.613,69.515,656.06,43.258,610.508,69.515,585.9,55.331,561.291,69.515,515.738,43.258,470.185,69.515,445.578,55.331,420.969,69.515,375.416,43.258,329.863,69.515,305.254,55.331,280.646,69.515,235.093,43.258,189.54,69.515,164.931,55.331,140.323,69.515,94.77,43.258,49.218,69.515,24.61,55.331,0,69.515" transform="translate(0 0)" fill="none" stroke="#b3862d" stroke-miterlimit="10" stroke-width="1.363"/>
      </g>
    </g>
  </g>
</svg>
