<svg xmlns="http://www.w3.org/2000/svg" width="66.308" height="56" viewBox="0 0 66.308 56">
  <g id="checked" transform="translate(0 -39.796)">
    <g id="Group_125316" data-name="Group 125316" transform="translate(9.613 49.412)">
      <ellipse id="Ellipse_11182" data-name="Ellipse 11182" cx="18.377" cy="18.384" rx="18.377" ry="18.384" transform="translate(0 0)" fill="#b58500"/>
    </g>
    <g id="Group_125317" data-name="Group 125317" transform="translate(0 39.796)">
      <path id="Path_131119" data-name="Path 131119" d="M61.377,82.477A24.315,24.315,0,0,0,42.006,43.485q-.05,0-.1,0A28,28,0,0,0,5.751,84.8L4,88.931A1.3,1.3,0,0,0,5.365,90.72l5.526-.755A28.024,28.024,0,0,0,41.906,92.1q.049,0,.1,0a24.364,24.364,0,0,0,14.786-5.017l4.689.641a1.3,1.3,0,0,0,1.367-1.789ZM12.073,87.6a1.295,1.295,0,0,0-.988-.275l-3.814.521,1.162-2.738a1.3,1.3,0,0,0-.186-1.321,25.4,25.4,0,1,1,19.741,9.42A25.112,25.112,0,0,1,12.073,87.6ZM56.6,84.45a1.3,1.3,0,0,0-.988.275,21.444,21.444,0,0,1-9.5,4.409q.858-.732,1.666-1.539a28.008,28.008,0,0,0,0-39.6q-.8-.8-1.655-1.53a21.728,21.728,0,0,1,12.754,35,1.3,1.3,0,0,0-.186,1.321l.879,2.07Z" transform="translate(0 -39.796)" fill="#286140"/>
      <path id="Path_131120" data-name="Path 131120" d="M153.955,190.785a4.36,4.36,0,0,0-3.1-1.286h0a4.361,4.361,0,0,0-3.106,1.292l-5,5.026-1.243-1.271a4.359,4.359,0,0,0-3.114-1.321h-.026a4.39,4.39,0,0,0-3.121,7.476l4.866,4.921a3.681,3.681,0,0,0,2.628,1.1h.008a3.681,3.681,0,0,0,2.625-1.089L153.97,197a4.4,4.4,0,0,0,0-6.2Zm-1.819,4.386-8.611,8.635a1.109,1.109,0,0,1-.791.328h0a1.109,1.109,0,0,1-.792-.332l-4.866-4.921a1.8,1.8,0,0,1,1.279-3.065h.01a1.787,1.787,0,0,1,1.277.541l2.16,2.21a1.3,1.3,0,0,0,.92.39h.006a1.3,1.3,0,0,0,.918-.381l5.931-5.956a1.788,1.788,0,0,1,1.273-.53h0a1.786,1.786,0,0,1,1.27.524l.013.014A1.8,1.8,0,0,1,152.136,195.171Z" transform="translate(-116.619 -170.111)" fill="#286140"/>
    </g>
  </g>
</svg>
