<svg xmlns="http://www.w3.org/2000/svg" width="79.433" height="56" viewBox="0 0 79.433 56">
  <g id="good-quality" transform="translate(0 -75.521)">
    <path id="Path_131121" data-name="Path 131121" d="M67.8,87.146C42.956,62.222-.062,80.057,0,115.231a1.551,1.551,0,0,0,1.551,1.551H24.978a1.551,1.551,0,0,0,0-3.1H13.388c3.075-32.891,49.594-32.866,52.657,0H54.455a1.551,1.551,0,0,0,0,3.1H77.881a1.551,1.551,0,0,0,1.551-1.551A39.457,39.457,0,0,0,67.8,87.146ZM19.055,94.206a29.3,29.3,0,0,0-8.776,19.473H3.135A36.633,36.633,0,0,1,20.087,84.335l3.563,6.172a29.733,29.733,0,0,0-4.6,3.7Zm7.28-5.254-3.564-6.173c10-5.5,23.893-5.5,33.889,0L53.1,88.951a29.7,29.7,0,0,0-26.761,0Zm42.817,24.727A29.51,29.51,0,0,0,55.782,90.507l3.563-6.172A36.633,36.633,0,0,1,76.3,113.679Z" transform="translate(0)" fill="#286140"/>
    <path id="Path_131122" data-name="Path 131122" d="M167.285,258.964A16.29,16.29,0,0,1,151,242.674c-.13-12.615,14.195-20.551,24.794-13.9l5.232-1.4a1.269,1.269,0,0,1,1.567,1.546q-.7,2.626-1.408,5.249C187.837,244.774,179.9,259.094,167.285,258.964Z" transform="translate(-127.569 -127.444)" fill="#c7993b" fill-rule="evenodd"/>
    <g id="Group_125321" data-name="Group 125321" transform="translate(33.221 110.717)">
      <g id="Group_125318" data-name="Group 125318" transform="translate(0 6.974)">
        <path id="Path_131123" data-name="Path 131123" d="M220.63,352.49a8.477,8.477,0,0,1-6.034-2.5,1.552,1.552,0,0,1,2.194-2.194,5.455,5.455,0,0,0,7.679,0,1.552,1.552,0,0,1,2.194,2.194A8.478,8.478,0,0,1,220.63,352.49Z" transform="translate(-214.135 -347.335)" fill="#286140"/>
      </g>
      <g id="Group_125319" data-name="Group 125319" transform="translate(0.017)">
        <path id="Path_131124" data-name="Path 131124" d="M215.786,305.487a1.551,1.551,0,0,1,0-3.1h0A1.551,1.551,0,0,1,215.786,305.487Z" transform="translate(-214.243 -302.384)" fill="#286140"/>
      </g>
      <g id="Group_125320" data-name="Group 125320" transform="translate(9.89 0)">
        <path id="Path_131125" data-name="Path 131125" d="M279.425,305.488a1.551,1.551,0,0,1,0-3.1h0A1.551,1.551,0,0,1,279.425,305.488Z" transform="translate(-277.882 -302.385)" fill="#286140"/>
      </g>
    </g>
  </g>
</svg>
