<svg xmlns="http://www.w3.org/2000/svg" width="429.289" height="138.271" viewBox="0 0 429.289 138.271">
  <g id="overlayAbout" transform="translate(-614.277 -458.881)">
    <path id="Path_130770" data-name="Path 130770" d="M739.65,498.6l-32.791,21.628-44.345-29.238,9.43-6.8,32.787,21.623,21.859-14.417H685l21.855-14.412,41.585,27.423-42.18,28.017-43.12-28.017m76.505-5.8-32.791,21.628-43.714-28.834m8.8-7.206,32.787-21.619,43.714,28.825m-76.5-7.206,32.787-21.619,43.714,28.825" transform="translate(165.778 9.513)" fill="none" stroke="#b58500" stroke-linecap="round" stroke-linejoin="round" stroke-width="2"/>
    <path id="Path_130771" data-name="Path 130771" d="M724.569,541.936l42.189-28.017L725.168,486.5l-21.859,14.412h41.585L723.04,515.33,681.45,487.9l42.184-28.022L766.759,487.9m-8.8,20.212-32.791,21.628L681.45,500.908m76.5,7.206-32.791,21.628L681.45,500.908m8.8-7.206,32.791-21.619,43.714,28.825" transform="translate(232.772 0)" fill="none" stroke="#b58500" stroke-linecap="round" stroke-linejoin="round" stroke-width="2"/>
    <path id="Path_130772" data-name="Path 130772" d="M692.163,510.548l-32.791,21.623-43.714-28.829m76.5,7.206-32.791,21.623-43.714-28.829m8.8-7.206,32.787-21.619,43.714,28.825m-76.5-7.206,32.787-21.619,43.714,28.825" transform="translate(0.005 51.781)" fill="none" stroke="#b58500" stroke-linecap="round" stroke-linejoin="round" stroke-width="2"/>
    <path id="Path_130773" data-name="Path 130773" d="M615.657,499.85v26.016l43.119,28.017,42.185-28.017-41.586-27.423-21.859,14.412H679.1l-21.859,14.417L615.657,499.85l42.184-28.022,43.12,28.022" transform="translate(0 42.267)" fill="none" stroke="#b58500" stroke-linecap="round" stroke-linejoin="round" stroke-width="2"/>
    <path id="Path_130774" data-name="Path 130774" d="M710.96,510.548l-32.791,21.623-43.714-28.829m76.5,7.206-32.791,21.623-43.714-28.829m8.8-7.206,32.791-21.619,43.714,28.825" transform="translate(66.507 51.781)" fill="none" stroke="#b58500" stroke-linecap="round" stroke-linejoin="round" stroke-width="2"/>
    <path id="Path_130775" data-name="Path 130775" d="M634.455,525.866l43.124,28.017,42.189-28.017-41.59-27.423-21.863,14.412H697.9l-21.85,14.417-41.595-27.418,42.189-28.026,43.124,28.026" transform="translate(66.506 42.269)" fill="none" stroke="#b58500" stroke-linecap="round" stroke-linejoin="round" stroke-width="2"/>
    <path id="Path_130776" data-name="Path 130776" d="M729.754,510.548l-32.791,21.623-43.709-28.829m8.795-7.206,32.791-21.619,43.714,28.825" transform="translate(133.017 51.781)" fill="none" stroke="#b58500" stroke-linecap="round" stroke-linejoin="round" stroke-width="2"/>
    <path id="Path_130777" data-name="Path 130777" d="M653.254,525.866l43.119,28.017,42.185-28.017-41.59-27.423-21.859,14.412h41.586l-21.855,14.417-41.585-27.418,42.184-28.026" transform="translate(133.016 42.269)" fill="none" stroke="#b58500" stroke-linecap="round" stroke-linejoin="round" stroke-width="2"/>
    <path id="Path_130778" data-name="Path 130778" d="M748.552,510.548l-32.786,21.623-43.714-28.829m8.795-7.206,32.791-21.619,43.714,28.825m-76.505-7.206,32.791-21.619,43.714,28.825" transform="translate(199.523 51.781)" fill="none" stroke="#b58500" stroke-linecap="round" stroke-linejoin="round" stroke-width="2"/>
    <path id="Path_130779" data-name="Path 130779" d="M757.356,525.866l43.12,28.017,42.185-28.017-41.586-27.423-21.864,14.412H820.8l-21.864,14.417-41.581-27.418,42.185-28.026,43.12,28.026m-8.8,20.208-32.791,21.623-43.714-28.829m8.795-7.206,32.791-21.619,43.714,28.825m-170.6,13.01,43.12,28.017,42.184-28.017L715.77,498.443l-21.864,14.412h41.586l-21.855,14.417-41.586-27.418,42.185-28.026,43.119,28.026" transform="translate(199.523 42.267)" fill="none" stroke="#b58500" stroke-linecap="round" stroke-linejoin="round" stroke-width="2"/>
  </g>
</svg>
