<svg xmlns="http://www.w3.org/2000/svg" width="82.375" height="56" viewBox="0 0 82.375 56">
  <g id="partnership" transform="translate(0 -81.968)">
    <path id="Path_131126" data-name="Path 131126" d="M0,0H11.491V26.265H0Z" transform="matrix(0.866, -0.5, 0.5, 0.866, 52.689, 101.681)" fill="#c7993b" fill-rule="evenodd"/>
    <g id="Group_125322" data-name="Group 125322" transform="translate(2.824 81.968)">
      <path id="Path_131127" data-name="Path 131127" d="M407.236,280.535h0a1.609,1.609,0,1,0,.786-2.136A1.61,1.61,0,0,0,407.236,280.536Z" transform="translate(-344.415 -246.67)" fill="#286140"/>
      <path id="Path_131128" data-name="Path 131128" d="M94.69,116.3l-2.778,1.6L78.747,95.1,96.3,84.97a1.609,1.609,0,0,0-1.609-2.787L75.745,93.122a1.609,1.609,0,0,0-.589,2.2l.017.029-12.246,7.07-8.077-2.164a4.9,4.9,0,0,0-5.889,3.124L33.1,94.221a1.609,1.609,0,1,0-1.609,2.787l9.117,5.264-11.524,19.96-9.117-5.264a1.609,1.609,0,1,0-1.609,2.787L48.77,137.313a4.905,4.905,0,0,0,6.341-1.276,4.9,4.9,0,0,0,6.341,1.276l28.462-16.432.016.028a1.61,1.61,0,0,0,2.2.589L96.3,119.09A1.609,1.609,0,1,0,94.69,116.3ZM68.2,120.137a1.684,1.684,0,0,1-2.287.613l-.008,0-10.432-6.023a1.609,1.609,0,1,0-1.609,2.787l13.283,7.669a1.674,1.674,0,0,1-1.674,2.9l-13.283-7.669a1.609,1.609,0,0,0-1.609,2.787l10.43,6.022.009.005a1.674,1.674,0,0,1-1.674,2.9L48.91,126.1a1.609,1.609,0,1,0-1.609,2.787l4.74,2.737.012.007a1.692,1.692,0,0,1,.613,2.287,1.684,1.684,0,0,1-2.287.613L31.869,123.84l11.524-19.96,5.868,3.388a4.88,4.88,0,0,0,3.055,2.436l2.174.583,13.1,7.563a1.684,1.684,0,0,1,.613,2.287Zm2.777,7.96a4.91,4.91,0,0,0-1.218-4.939,4.863,4.863,0,0,0,1.227-1.412,4.925,4.925,0,0,0-1.791-6.683l-13.283-7.669a1.606,1.606,0,0,0-.388-.161l-2.378-.637a1.674,1.674,0,1,1,.867-3.235l8.721,2.337a1.609,1.609,0,0,0,1.221-.161l12.823-7.4,11.524,19.96Z" transform="translate(-17.552 -81.968)" fill="#286140"/>
      <path id="Path_131129" data-name="Path 131129" d="M75.672,281.241a1.609,1.609,0,1,0-.527-2.214h0A1.609,1.609,0,0,0,75.672,281.241Z" transform="translate(-65.678 -246.679)" fill="#286140"/>
    </g>
    <path id="Path_131130" data-name="Path 131130" d="M0,86.078,20.066,97.663l-15.6,27.012L0,122.093Z" transform="translate(0 -3.449)" fill="#c7993b" fill-rule="evenodd"/>
  </g>
</svg>
