<svg xmlns="http://www.w3.org/2000/svg" xmlns:xlink="http://www.w3.org/1999/xlink" width="249.206" height="642.675" viewBox="0 0 249.206 642.675">
  <defs>
    <clipPath id="clip-path">
      <rect id="Rectangle_15586" data-name="Rectangle 15586" width="642.675" height="249.206" transform="translate(-13 0)" fill="none"/>
    </clipPath>
  </defs>
  <g id="PatternBGcont" transform="translate(487.63 -154.527) rotate(90)" opacity="0.17">
    <g id="Group_125186" data-name="Group 125186" transform="translate(167.527 238.424)" clip-path="url(#clip-path)">
      <path id="Path_130768" data-name="Path 130768" d="M965.317,598.519l-51.882-27.835-51.882,27.835-28.029-15.037L805.5,598.519l-51.882-27.835-51.88,27.835-28.028-15.037L645.68,598.519,593.8,570.684l-51.882,27.835-28.028-15.037-28.029,15.037-51.88-27.835L382.1,598.519l-28.028-15.037-28.028,15.037L274.16,570.684l-51.882,27.835-28.027-15.037-28.028,15.037m56.054-35.193L194.251,548.29l-28.028,15.036m215.874,0L354.069,548.29l-28.028,15.036m215.875,0L513.889,548.29l-28.029,15.036m215.875,0L673.707,548.29,645.68,563.326m215.874,0L833.525,548.29,805.5,563.326M224.182,608.9l50.064-26.489,49.72,27.044m59.95-.555,50.063-26.489L483.7,609.46m60.034-.555L593.8,582.416l49.719,27.044m60.035-.555,50.063-26.489,49.723,27.044m60.034-.555,50.064-26.489,49.719,27.044m2.163-22.671-51.882-27.835-51.882,27.835-28.029-15.037L805.5,586.788l-51.882-27.835-51.88,27.835-28.028-15.037L645.68,586.788,593.8,558.954l-51.882,27.835-28.028-15.037-28.029,15.037-51.88-27.835L382.1,586.788l-28.028-15.037-28.028,15.037L274.16,558.954l-51.882,27.835-28.027-15.037-28.028,15.037m799.093-11.732-51.882-27.834-51.882,27.834-28.029-15.036L805.5,575.057l-51.882-27.834-51.88,27.834-28.028-15.036L645.68,575.057,593.8,547.223l-51.882,27.834-28.028-15.036-28.029,15.036-51.88-27.834L382.1,575.057l-28.028-15.036-28.028,15.036L274.16,547.223l-51.882,27.834-28.027-15.036-28.028,15.036m719.183,69.318-51.882-27.834-51.882,27.834-28.028-15.036-28.027,15.036-51.882-27.834-51.882,27.834L593.8,629.339,565.77,644.375l-51.882-27.834-51.882,27.834-28.028-15.036-28.028,15.036-51.882-27.834-51.882,27.834L274.16,629.339l-28.027,15.036-51.882-27.834L142.37,644.375l-28.027-15.036L86.314,644.375m56.056-35.192-28.027-15.037L86.314,609.183m215.874,0L274.16,594.146l-28.027,15.037m215.874,0-28.028-15.037-28.028,15.037m215.874,0L593.8,594.146,565.77,609.183m215.872,0-28.028-15.037-28.027,15.037M144.274,654.762l50.063-26.49,49.721,27.044m59.947-.554,50.064-26.49,49.721,27.044m60.034-.554,50.064-26.49,49.72,27.044m60.034-.554,50.064-26.49,49.721,27.044m60.034-.554,50.063-26.49,49.721,27.044m2.16-22.671L833.525,604.81l-51.882,27.835-28.028-15.037-28.027,15.037L673.707,604.81l-51.882,27.835L593.8,617.607,565.77,632.645,513.889,604.81l-51.882,27.835-28.028-15.037-28.028,15.037L354.069,604.81l-51.882,27.835L274.16,617.607l-28.027,15.037L194.251,604.81,142.37,632.645l-28.027-15.037L86.314,632.645m799.092-11.731-51.882-27.835-51.882,27.835-28.028-15.037-28.027,15.037-51.882-27.835-51.882,27.835L593.8,605.877,565.77,620.914l-51.882-27.835-51.882,27.835-28.028-15.037-28.028,15.037-51.882-27.835-51.882,27.835L274.16,605.877l-28.027,15.037-51.882-27.835L142.37,620.914l-28.027-15.037L86.314,620.914m879-114.385-51.882-27.835-51.882,27.835-28.029-15.037L805.5,506.529l-51.882-27.835-51.88,27.835-28.028-15.037L645.68,506.529,593.8,478.695l-51.882,27.835-28.028-15.037-28.029,15.037-51.88-27.835L382.1,506.529l-28.028-15.037-28.028,15.037L274.16,478.695l-51.882,27.835-28.027-15.037-28.028,15.037m56.054-35.193L194.251,456.3l-28.028,15.036m215.874,0L354.069,456.3l-28.028,15.036m215.875,0L513.889,456.3l-28.029,15.036m215.875,0L673.707,456.3,645.68,471.337m215.874,0L833.525,456.3,805.5,471.337M224.182,516.915l50.064-26.489,49.72,27.044m59.95-.555,50.063-26.489L483.7,517.47m60.034-.555L593.8,490.426l49.719,27.044m60.035-.555,50.063-26.489,49.723,27.044m60.034-.555,50.064-26.489,49.719,27.044m2.163-22.671-51.882-27.835L861.554,494.8l-28.029-15.037L805.5,494.8l-51.882-27.835L701.734,494.8l-28.028-15.037L645.68,494.8,593.8,466.964,541.917,494.8l-28.028-15.037L485.859,494.8l-51.88-27.835L382.1,494.8l-28.028-15.037L326.041,494.8,274.16,466.964,222.278,494.8l-28.027-15.037L166.224,494.8m799.093-11.732-51.882-27.834-51.882,27.834-28.029-15.036L805.5,483.067l-51.882-27.834-51.88,27.834-28.028-15.036L645.68,483.067,593.8,455.233l-51.882,27.834-28.028-15.036-28.029,15.036-51.88-27.834L382.1,483.067l-28.028-15.036-28.028,15.036L274.16,455.233l-51.882,27.834-28.027-15.036-28.028,15.036m719.183,69.318L833.525,524.55l-51.882,27.835-28.028-15.037-28.027,15.037L673.707,524.55l-51.882,27.835L593.8,537.348,565.77,552.385,513.889,524.55l-51.882,27.835-28.028-15.037-28.028,15.037L354.069,524.55l-51.882,27.835L274.16,537.348l-28.027,15.037L194.251,524.55,142.37,552.385l-28.027-15.037L86.314,552.385m56.056-35.191-28.027-15.037L86.314,517.194m215.874,0L274.16,502.157l-28.027,15.037m215.874,0-28.028-15.037-28.028,15.037m215.874,0L593.8,502.157,565.77,517.194m215.872,0-28.028-15.037-28.027,15.037M144.274,562.771l50.063-26.489,49.721,27.044m59.947-.555,50.064-26.489,49.721,27.044m60.034-.555,50.064-26.489,49.72,27.044m60.034-.555,50.064-26.489,49.721,27.044m60.034-.555,50.063-26.489,49.721,27.044m2.16-22.671L833.525,512.82l-51.882,27.835-28.028-15.037-28.027,15.037L673.707,512.82l-51.882,27.835L593.8,525.618,565.77,540.655,513.889,512.82l-51.882,27.835-28.028-15.037-28.028,15.037L354.069,512.82l-51.882,27.835L274.16,525.618l-28.027,15.037L194.251,512.82,142.37,540.655l-28.027-15.037L86.314,540.655m799.092-11.73L833.525,501.09l-51.882,27.835-28.028-15.037-28.027,15.037L673.707,501.09l-51.882,27.835L593.8,513.887,565.77,528.924,513.889,501.09l-51.882,27.835-28.028-15.037-28.028,15.037L354.069,501.09l-51.882,27.835L274.16,513.887l-28.027,15.037L194.251,501.09,142.37,528.924l-28.027-15.037L86.314,528.924m879-114.385L913.435,386.7,861.554,414.54,833.525,399.5,805.5,414.54,753.615,386.7l-51.88,27.835L673.707,399.5,645.68,414.54,593.8,386.7,541.917,414.54,513.889,399.5,485.859,414.54,433.979,386.7,382.1,414.54,354.069,399.5,326.041,414.54,274.16,386.7,222.278,414.54,194.251,399.5,166.224,414.54m56.054-35.193L194.251,364.31l-28.028,15.037m215.874,0L354.069,364.31l-28.028,15.037m215.875,0L513.889,364.31l-28.029,15.037m215.875,0L673.707,364.31,645.68,379.347m215.874,0L833.525,364.31,805.5,379.347M224.182,424.926l50.064-26.489,49.72,27.044m59.95-.555,50.063-26.489,49.72,27.044m60.034-.555L593.8,398.437l49.719,27.044m60.035-.555,50.063-26.489,49.723,27.044m60.034-.555,50.064-26.489,49.719,27.044m2.163-22.671-51.882-27.835-51.882,27.835-28.029-15.037L805.5,402.809l-51.882-27.835-51.88,27.835-28.028-15.037L645.68,402.809,593.8,374.974l-51.882,27.835-28.028-15.037-28.029,15.037-51.88-27.835L382.1,402.809l-28.028-15.037-28.028,15.037L274.16,374.974l-51.882,27.835-28.027-15.037-28.028,15.037m799.093-11.732-51.882-27.834-51.882,27.834-28.029-15.036L805.5,391.078l-51.882-27.834-51.88,27.834-28.028-15.036L645.68,391.078,593.8,363.244l-51.882,27.834-28.028-15.036-28.029,15.036-51.88-27.834L382.1,391.078l-28.028-15.036-28.028,15.036L274.16,363.244l-51.882,27.834-28.027-15.036-28.028,15.036M885.406,460.4l-51.882-27.835L781.643,460.4l-28.028-15.037L725.588,460.4l-51.882-27.835L621.825,460.4,593.8,445.359,565.77,460.4l-51.882-27.835L462.007,460.4l-28.028-15.037L405.951,460.4l-51.882-27.835L302.188,460.4,274.16,445.359,246.133,460.4l-51.882-27.835L142.37,460.4l-28.027-15.037L86.314,460.4M142.37,425.2l-28.027-15.036L86.314,425.2m215.874,0L274.16,410.167,246.133,425.2m215.874,0-28.028-15.036L405.951,425.2m215.874,0L593.8,410.167,565.77,425.2m215.872,0-28.028-15.036L725.588,425.2m-581.314,45.58,50.063-26.49,49.721,27.044m59.947-.554,50.064-26.49,49.721,27.044m60.034-.554,50.064-26.49,49.72,27.044m60.034-.554,50.064-26.49,49.721,27.044m60.034-.554,50.063-26.49,49.721,27.044m2.16-22.671L833.525,420.83l-51.882,27.835-28.028-15.037-28.027,15.037L673.707,420.83l-51.882,27.835L593.8,433.628,565.77,448.665,513.889,420.83l-51.882,27.835-28.028-15.037-28.028,15.037L354.069,420.83l-51.882,27.835L274.16,433.628l-28.027,15.037L194.251,420.83,142.37,448.665l-28.027-15.037L86.314,448.665m799.092-11.73L833.525,409.1l-51.882,27.835L753.615,421.9l-28.027,15.037L673.707,409.1l-51.882,27.835L593.8,421.9,565.77,436.935,513.889,409.1l-51.882,27.835L433.979,421.9l-28.028,15.037L354.069,409.1l-51.882,27.835L274.16,421.9l-28.027,15.037L194.251,409.1,142.37,436.935,114.343,421.9,86.314,436.935m879-114.385-51.882-27.835L861.554,322.55l-28.029-15.037L805.5,322.55l-51.882-27.835-51.88,27.835-28.028-15.037L645.68,322.55,593.8,294.715,541.917,322.55l-28.028-15.037L485.859,322.55l-51.88-27.835L382.1,322.55l-28.028-15.037L326.041,322.55,274.16,294.715,222.278,322.55l-28.027-15.037L166.224,322.55m56.054-35.193L194.251,272.32l-28.028,15.037m215.874,0L354.069,272.32l-28.028,15.037m215.875,0L513.889,272.32l-28.029,15.037m215.875,0L673.707,272.32,645.68,287.357m215.874,0L833.525,272.32,805.5,287.357M224.182,332.936l50.064-26.49,49.72,27.045m59.95-.555,50.063-26.49,49.72,27.045m60.034-.555,50.065-26.49,49.719,27.045m60.035-.555,50.063-26.49,49.723,27.045m60.034-.555,50.064-26.49,49.719,27.045m2.163-22.673-51.882-27.834-51.882,27.834-28.029-15.036L805.5,310.818l-51.882-27.834-51.88,27.834-28.028-15.036L645.68,310.818,593.8,282.985l-51.882,27.834-28.028-15.036-28.029,15.036-51.88-27.834L382.1,310.818l-28.028-15.036-28.028,15.036L274.16,282.985l-51.882,27.834-28.027-15.036-28.028,15.036m799.093-11.73-51.882-27.834-51.882,27.834-28.029-15.036L805.5,299.088l-51.882-27.834-51.88,27.834-28.028-15.036L645.68,299.088,593.8,271.254l-51.882,27.834-28.028-15.036-28.029,15.036-51.88-27.834L382.1,299.088l-28.028-15.036-28.028,15.036L274.16,271.254l-51.882,27.834-28.027-15.036-28.028,15.036m719.183,69.318-51.882-27.835-51.882,27.835-28.028-15.037-28.027,15.037-51.882-27.835-51.882,27.835L593.8,353.369,565.77,368.406l-51.882-27.835-51.882,27.835-28.028-15.037-28.028,15.037-51.882-27.835-51.882,27.835L274.16,353.369l-28.027,15.037-51.882-27.835L142.37,368.406l-28.027-15.037L86.314,368.406m56.056-35.193-28.027-15.036L86.314,333.213m215.874,0L274.16,318.177l-28.027,15.036m215.874,0-28.028-15.036-28.028,15.036m215.874,0L593.8,318.177,565.77,333.213m215.872,0-28.028-15.036-28.027,15.036M144.274,378.792,194.337,352.3l49.721,27.044m59.947-.555L354.069,352.3l49.721,27.044m60.034-.555L513.889,352.3l49.72,27.044m60.034-.555L673.707,352.3l49.721,27.044m60.034-.555L833.525,352.3l49.721,27.044m2.16-22.671-51.882-27.835-51.882,27.835-28.028-15.037-28.027,15.037-51.882-27.835-51.882,27.835L593.8,341.638,565.77,356.676l-51.882-27.835-51.882,27.835-28.028-15.037-28.028,15.037-51.882-27.835-51.882,27.835L274.16,341.638l-28.027,15.037-51.882-27.835L142.37,356.676l-28.027-15.037L86.314,356.676m799.092-11.73L833.525,317.11l-51.882,27.835-28.028-15.037-28.027,15.037L673.707,317.11l-51.882,27.835L593.8,329.908,565.77,344.945,513.889,317.11l-51.882,27.835-28.028-15.037-28.028,15.037L354.069,317.11l-51.882,27.835L274.16,329.908l-28.027,15.037L194.251,317.11,142.37,344.945l-28.027-15.037L86.314,344.945m879-114.385-51.882-27.835-51.882,27.835-28.029-15.037L805.5,230.561l-51.882-27.835-51.88,27.835-28.028-15.037L645.68,230.561,593.8,202.726l-51.882,27.835-28.028-15.037-28.029,15.037-51.88-27.835L382.1,230.561l-28.028-15.037-28.028,15.037L274.16,202.726l-51.882,27.835-28.027-15.037-28.028,15.037m56.054-35.193-28.027-15.037-28.028,15.037m215.874,0-28.028-15.037-28.028,15.037m215.875,0-28.028-15.037-28.029,15.037m215.875,0-28.028-15.037L645.68,195.368m215.874,0-28.029-15.037L805.5,195.368M224.182,240.946l50.064-26.49,49.72,27.045m59.95-.555,50.063-26.49L483.7,241.5m60.034-.555,50.065-26.49L643.517,241.5m60.035-.555,50.063-26.49L803.337,241.5m60.034-.555,50.064-26.49L963.154,241.5m2.163-22.673L913.435,191l-51.882,27.834-28.029-15.036L805.5,218.829,753.615,191l-51.88,27.834-28.028-15.036L645.68,218.829,593.8,191l-51.882,27.834-28.028-15.036-28.029,15.036L433.979,191,382.1,218.829l-28.028-15.036-28.028,15.036L274.16,191l-51.882,27.834-28.027-15.036-28.028,15.036M965.317,207.1l-51.882-27.835L861.554,207.1l-28.029-15.036L805.5,207.1l-51.882-27.835L701.734,207.1l-28.028-15.036L645.68,207.1,593.8,179.263,541.917,207.1l-28.028-15.036L485.859,207.1l-51.88-27.835L382.1,207.1l-28.028-15.036L326.041,207.1,274.16,179.263,222.278,207.1l-28.027-15.036L166.224,207.1m719.183,69.318-51.882-27.835-51.882,27.835-28.028-15.037-28.027,15.037-51.882-27.835-51.882,27.835L593.8,261.379,565.77,276.417l-51.882-27.835-51.882,27.835-28.028-15.037-28.028,15.037-51.882-27.835-51.882,27.835L274.16,261.379l-28.027,15.037-51.882-27.835L142.37,276.417l-28.027-15.037L86.314,276.417m56.056-35.193-28.027-15.036L86.314,241.224m215.874,0L274.16,226.188l-28.027,15.036m215.874,0-28.028-15.036-28.028,15.036m215.874,0L593.8,226.188,565.77,241.224m215.872,0-28.028-15.036-28.027,15.036M144.274,286.8l50.063-26.489,49.721,27.044m59.947-.555,50.064-26.489,49.721,27.044m60.034-.555,50.064-26.489,49.72,27.044m60.034-.555,50.064-26.489,49.721,27.044m60.034-.555,50.063-26.489,49.721,27.044m2.16-22.671-51.882-27.835-51.882,27.835-28.028-15.037-28.027,15.037-51.882-27.835-51.882,27.835L593.8,249.649,565.77,264.686l-51.882-27.835-51.882,27.835-28.028-15.037-28.028,15.037-51.882-27.835-51.882,27.835L274.16,249.649l-28.027,15.037-51.882-27.835L142.37,264.686l-28.027-15.037L86.314,264.686m799.092-11.732-51.882-27.834-51.882,27.834-28.028-15.036-28.027,15.036-51.882-27.834-51.882,27.834L593.8,237.918,565.77,252.954l-51.882-27.834-51.882,27.834-28.028-15.036-28.028,15.036-51.882-27.834-51.882,27.834L274.16,237.918l-28.027,15.036-51.882-27.834L142.37,252.954l-28.027-15.036L86.314,252.954m879-114.383-51.882-27.835-51.882,27.835-28.029-15.037L805.5,138.571l-51.882-27.835-51.88,27.835-28.028-15.037L645.68,138.571,593.8,110.736l-51.882,27.835-28.028-15.037-28.029,15.037-51.88-27.835L382.1,138.571l-28.028-15.037-28.028,15.037L274.16,110.736l-51.882,27.835-28.027-15.037-28.028,15.037m56.054-35.193L194.251,88.341l-28.028,15.037m215.874,0L354.069,88.341l-28.028,15.037m215.875,0L513.889,88.341l-28.029,15.037m215.875,0L673.707,88.341,645.68,103.378m215.874,0L833.525,88.341,805.5,103.378M224.182,148.957l50.064-26.49,49.72,27.045m59.95-.555,50.063-26.49,49.72,27.045m60.034-.555,50.065-26.49,49.719,27.045m60.035-.555,50.063-26.49,49.723,27.045m60.034-.555,50.064-26.49,49.719,27.045m2.163-22.673L913.435,99.006l-51.882,27.834L833.525,111.8,805.5,126.839,753.615,99.006l-51.88,27.834L673.707,111.8,645.68,126.839,593.8,99.006l-51.882,27.834L513.889,111.8l-28.029,15.036-51.88-27.834L382.1,126.839,354.069,111.8l-28.028,15.036L274.16,99.006l-51.882,27.834L194.251,111.8l-28.028,15.036m799.093-11.731L913.435,87.275l-51.882,27.834-28.029-15.037L805.5,115.109,753.615,87.275l-51.88,27.834-28.028-15.037L645.68,115.109,593.8,87.275l-51.882,27.834-28.028-15.037-28.029,15.037-51.88-27.834L382.1,115.109l-28.028-15.037-28.028,15.037L274.16,87.275l-51.882,27.834-28.027-15.037-28.028,15.037m719.183,69.318-51.882-27.835-51.882,27.835L753.615,169.39l-28.027,15.037-51.882-27.835-51.882,27.835L593.8,169.39,565.77,184.427l-51.882-27.835-51.882,27.835L433.979,169.39l-28.028,15.037-51.882-27.835-51.882,27.835L274.16,169.39l-28.027,15.037-51.882-27.835L142.37,184.427,114.343,169.39,86.314,184.427m56.056-35.193L114.343,134.2,86.314,149.234m215.874,0L274.16,134.2l-28.027,15.037m215.874,0L433.979,134.2l-28.028,15.037m215.874,0L593.8,134.2,565.77,149.234m215.872,0L753.615,134.2l-28.027,15.037M144.274,194.813l50.063-26.489,49.721,27.044m59.947-.555,50.064-26.489,49.721,27.044m60.034-.555,50.064-26.489,49.72,27.044m60.034-.555,50.064-26.489,49.721,27.044m60.034-.555,50.063-26.489,49.721,27.044m2.16-22.671-51.882-27.835L781.643,172.7l-28.028-15.037L725.588,172.7l-51.882-27.835L621.825,172.7,593.8,157.659,565.77,172.7l-51.882-27.835L462.007,172.7l-28.028-15.037L405.951,172.7l-51.882-27.835L302.188,172.7,274.16,157.659,246.133,172.7l-51.882-27.835L142.37,172.7l-28.027-15.037L86.314,172.7m799.092-11.732-51.882-27.834-51.882,27.834-28.028-15.036-28.027,15.036-51.882-27.834-51.882,27.834L593.8,145.929,565.77,160.965l-51.882-27.834-51.882,27.834-28.028-15.036-28.028,15.036-51.882-27.834-51.882,27.834L274.16,145.929l-28.027,15.036-51.882-27.834L142.37,160.965l-28.027-15.036L86.314,160.965" transform="translate(-192.979 -254.061)" fill="none" stroke="#b58500" stroke-miterlimit="10" stroke-width="2"/>
    </g>
  </g>
</svg>
